regular.ufo
<glyph name="exclamation" format="2">
  <advance width="274.05"/>
  <unicode hex="0021"/>
  <outline>
    <contour>
      <point x="232.025" y="83.75" type="curve" smooth="yes"/>
      <point x="232.025" y="136.18193"/>
      <point x="189.45693" y="178.75"/>
      <point x="137.025" y="178.75" type="curve" smooth="yes"/>
      <point x="84.59307" y="178.75"/>
      <point x="42.025" y="136.18193"/>
      <point x="42.025" y="83.75" type="curve" smooth="yes"/>
      <point x="42.025" y="31.31807"/>
      <point x="84.59307" y="-11.25"/>
      <point x="137.025" y="-11.25" type="curve" smooth="yes"/>
      <point x="189.45693" y="-11.25"/>
      <point x="232.025" y="31.31807"/>
    </contour>
    <contour>
      <point x="47.025" y="208.33333" type="line"/>
      <point x="227.025" y="208.33333" type="line"/>
      <point x="227.025" y="400.0" type="line"/>
      <point x="47.025" y="400.0" type="line"/>
    </contour>
    <contour>
      <point x="47.025" y="400" type="line"/>
      <point x="227.025" y="400" type="line"/>
      <point x="227.025" y="600" type="line"/>
      <point x="47.025" y="600" type="line"/>
    </contour>
    <contour>
      <point x="47.025" y="600" type="line"/>
      <point x="227.025" y="600" type="line"/>
      <point x="227.025" y="800" type="line"/>
      <point x="47.025" y="800" type="line"/>
    </contour>
  </outline>
</glyph>
<glyph name="quotedouble" format="2">
  <advance width="501.55"/>
  <unicode hex="0022"/>
  <outline>
    <contour>
      <point x="47.025" y="700.0" type="line"/>
      <point x="146.3697" y="700.0"/>
      <point x="227.025" y="780.6553"/>
      <point x="227.025" y="880.0" type="curve"/>
      <point x="47.025" y="880.0" type="line"/>
    </contour>
    <contour>
      <point x="47.025" y="880.0" type="line"/>
      <point x="227.025" y="880.0" type="line"/>
      <point x="227.025" y="900.0" type="line"/>
      <point x="47.025" y="900.0" type="line"/>
    </contour>
    <contour>
      <point x="274.525" y="700.0" type="line"/>
      <point x="373.86969999999997" y="700.0"/>
      <point x="454.525" y="780.6553"/>
      <point x="454.525" y="880.0" type="curve"/>
      <point x="274.525" y="880.0" type="line"/>
    </contour>
    <contour>
      <point x="274.525" y="880.0" type="line"/>
      <point x="454.525" y="880.0" type="line"/>
      <point x="454.525" y="900.0" type="line"/>
      <point x="274.525" y="900.0" type="line"/>
    </contour>
  </outline>
</glyph>
<glyph name="numbersign" format="2">
  <advance width="904.0268050980754"/>
  <unicode hex="0023"/>
  <outline>
    <contour>
      <point x="271.07880191177827" y="340.0" type="line"/>
      <point x="171.7341019117783" y="340.0"/>
      <point x="71.33895408213911" y="259.3447"/>
      <point x="47.025" y="160.0" type="curve"/>
      <point x="227.025" y="160.0" type="line"/>
    </contour>
    <contour>
      <point x="344.50180509807547" y="640.0" type="line"/>
      <point x="245.1571050980755" y="640.0"/>
      <point x="144.76195726843628" y="559.3447"/>
      <point x="120.44800318629717" y="460.0" type="curve"/>
      <point x="300.4480031862971" y="460.0" type="line"/>
    </contour>
    <contour>
      <point x="149.14234824753655" y="-5.0" type="line"/>
      <point x="248.48704824753653" y="-5.0"/>
      <point x="348.8821960771757" y="75.6553"/>
      <point x="373.1961501593148" y="175.0" type="curve"/>
      <point x="193.19615015931484" y="175.0" type="line"/>
    </contour>
    <contour>
      <point x="193.19615015931484" y="175.0" type="line"/>
      <point x="373.1961501593148" y="175.0" type="line"/>
      <point x="379.3147337581729" y="200.0" type="line"/>
      <point x="199.31473375817293" y="200.0" type="line"/>
    </contour>
    <contour>
      <point x="199.31473375817293" y="200" type="line"/>
      <point x="379.3147337581729" y="200" type="line"/>
      <point x="428.2634025490377" y="400" type="line"/>
      <point x="248.26340254903775" y="400" type="line"/>
    </contour>
    <contour>
      <point x="248.26340254903775" y="400" type="line"/>
      <point x="428.2634025490377" y="400" type="line"/>
      <point x="477.2120713399024" y="600" type="line"/>
      <point x="297.2120713399025" y="600" type="line"/>
    </contour>
    <contour>
      <point x="527.3844568505389" y="805.0" type="line"/>
      <point x="428.0397568505389" y="805.0"/>
      <point x="327.6446090208997" y="724.3447"/>
      <point x="303.3306549387606" y="625.0" type="curve"/>
      <point x="483.3306549387605" y="625.0" type="line"/>
    </contour>
    <contour>
      <point x="297.2120713399025" y="600" type="line"/>
      <point x="477.2120713399024" y="600" type="line"/>
      <point x="483.3306549387605" y="625.0" type="line"/>
      <point x="303.3306549387606" y="625.0" type="line"/>
    </contour>
    <contour>
      <point x="279.525" y="160.0" type="line"/>
      <point x="459.525" y="160.0" type="line"/>
      <point x="503.5788019117783" y="340.0" type="line"/>
      <point x="323.57880191177827" y="340.0" type="line"/>
    </contour>
    <contour>
      <point x="376.6423482475365" y="-5.0" type="line"/>
      <point x="475.98704824753656" y="-5.0"/>
      <point x="576.3821960771758" y="75.6553"/>
      <point x="600.6961501593148" y="175.0" type="curve"/>
      <point x="420.6961501593148" y="175.0" type="line"/>
    </contour>
    <contour>
      <point x="420.6961501593148" y="175.0" type="line"/>
      <point x="600.6961501593148" y="175.0" type="line"/>
      <point x="606.8147337581729" y="200.0" type="line"/>
      <point x="426.8147337581729" y="200.0" type="line"/>
    </contour>
    <contour>
      <point x="426.8147337581729" y="200" type="line"/>
      <point x="606.8147337581729" y="200" type="line"/>
      <point x="655.7634025490377" y="400" type="line"/>
      <point x="475.76340254903766" y="400" type="line"/>
    </contour>
    <contour>
      <point x="475.76340254903766" y="400" type="line"/>
      <point x="655.7634025490377" y="400" type="line"/>
      <point x="704.7120713399024" y="600" type="line"/>
      <point x="524.7120713399024" y="600" type="line"/>
    </contour>
    <contour>
      <point x="754.8844568505389" y="805.0" type="line"/>
      <point x="655.5397568505389" y="805.0"/>
      <point x="555.1446090208997" y="724.3447"/>
      <point x="530.8306549387605" y="625.0" type="curve"/>
      <point x="710.8306549387605" y="625.0" type="line"/>
    </contour>
    <contour>
      <point x="524.7120713399024" y="600" type="line"/>
      <point x="704.7120713399024" y="600" type="line"/>
      <point x="710.8306549387605" y="625.0" type="line"/>
      <point x="530.8306549387605" y="625.0" type="line"/>
    </contour>
    <contour>
      <point x="400.4480031862971" y="460.0" type="line"/>
      <point x="580.4480031862971" y="460.0" type="line"/>
      <point x="624.5018050980755" y="640.0" type="line"/>
      <point x="444.50180509807547" y="640.0" type="line"/>
    </contour>
    <contour>
      <point x="559.525" y="160.0" type="line"/>
      <point x="658.8697" y="160.0"/>
      <point x="759.2648478296392" y="240.6553"/>
      <point x="783.5788019117783" y="340.0" type="curve"/>
      <point x="603.5788019117783" y="340.0" type="line"/>
    </contour>
    <contour>
      <point x="632.9480031862971" y="460.0" type="line"/>
      <point x="732.2927031862971" y="460.0"/>
      <point x="832.6878510159363" y="540.6553"/>
      <point x="857.0018050980755" y="640.0" type="curve"/>
      <point x="677.0018050980755" y="640.0" type="line"/>
    </contour>
  </outline>
</glyph>
<glyph name="dollar" format="2">
  <advance width="501.55"/>
  <unicode hex="0024"/>
  <outline>
    <contour>
      <point x="137.025" y="0" type="line"/>
      <point x="227.025" y="0" type="line"/>
      <point x="227.025" y="100.0" type="line"/>
      <point x="137.025" y="100.0" type="line"/>
    </contour>
    <contour>
      <point x="227.025" y="100.0" type="line"/>
      <point x="227.025" y="199.3447"/>
      <point x="146.3697" y="280.0"/>
      <point x="47.025" y="280.0" type="curve"/>
      <point x="47.025" y="100.0" type="line"/>
    </contour>
    <contour>
      <point x="47.025" y="490.0" type="line"/>
      <point x="47.025" y="390.6553"/>
      <point x="127.68029999999999" y="310.0"/>
      <point x="227.025" y="310.0" type="curve"/>
      <point x="227.025" y="490.0" type="line"/>
    </contour>
    <contour>
      <point x="47.025" y="490.0" type="line"/>
      <point x="227.025" y="490.0" type="line"/>
      <point x="227.025" y="500.0" type="line"/>
      <point x="47.025" y="500.0" type="line"/>
    </contour>
    <contour>
      <point x="227.025" y="700.0" type="line"/>
      <point x="127.68029999999999" y="700.0"/>
      <point x="47.025" y="619.3447"/>
      <point x="47.025" y="520.0" type="curve"/>
      <point x="227.025" y="520.0" type="line"/>
    </contour>
    <contour>
      <point x="47.025" y="500.0" type="line"/>
      <point x="227.025" y="500.0" type="line"/>
      <point x="227.025" y="520.0" type="line"/>
      <point x="47.025" y="520.0" type="line"/>
    </contour>
    <contour>
      <point x="137.025" y="600" type="line"/>
      <point x="227.025" y="600" type="line"/>
      <point x="227.025" y="700.0" type="line"/>
      <point x="137.025" y="700.0" type="line"/>
    </contour>
    <contour>
      <point x="137.025" y="700.0" type="line"/>
      <point x="227.025" y="700.0" type="line"/>
      <point x="227.025" y="800.0" type="line"/>
      <point x="137.025" y="800.0" type="line"/>
    </contour>
    <contour>
      <point x="274.525" y="0" type="line"/>
      <point x="364.525" y="0" type="line"/>
      <point x="364.525" y="100.0" type="line"/>
      <point x="274.525" y="100.0" type="line"/>
    </contour>
    <contour>
      <point x="274.525" y="100.0" type="line"/>
      <point x="364.525" y="100.0" type="line"/>
      <point x="364.525" y="200.0" type="line"/>
      <point x="274.525" y="200.0" type="line"/>
    </contour>
    <contour>
      <point x="274.525" y="100.0" type="line"/>
      <point x="373.86969999999997" y="100.0"/>
      <point x="454.525" y="180.6553"/>
      <point x="454.525" y="280.0" type="curve"/>
      <point x="274.525" y="280.0" type="line"/>
    </contour>
    <contour>
      <point x="274.525" y="280.0" type="line"/>
      <point x="454.525" y="280.0" type="line"/>
      <point x="454.525" y="300.0" type="line"/>
      <point x="274.525" y="300.0" type="line"/>
    </contour>
    <contour>
      <point x="454.525" y="310.0" type="line"/>
      <point x="454.525" y="409.3447"/>
      <point x="373.86969999999997" y="490.0"/>
      <point x="274.525" y="490.0" type="curve"/>
      <point x="274.525" y="310.0" type="line"/>
    </contour>
    <contour>
      <point x="274.525" y="300.0" type="line"/>
      <point x="454.525" y="300.0" type="line"/>
      <point x="454.525" y="310.0" type="line"/>
      <point x="274.525" y="310.0" type="line"/>
    </contour>
    <contour>
      <point x="268.9" y="700.0" type="line"/>
      <point x="268.9" y="600.6553"/>
      <point x="349.5553" y="520.0"/>
      <point x="448.9" y="520.0" type="curve"/>
      <point x="448.9" y="700.0" type="line"/>
    </contour>
    <contour>
      <point x="268.9" y="700.0" type="line"/>
      <point x="358.9" y="700.0" type="line"/>
      <point x="358.9" y="800.0" type="line"/>
      <point x="268.9" y="800.0" type="line"/>
    </contour>
  </outline>
</glyph>
<glyph name="percent" format="2">
  <advance width="834.05"/>
  <unicode hex="0025"/>
  <outline>
    <contour>
      <point x="142.025" y="805.0" type="line"/>
      <point x="89.59307000000001" y="805.0"/>
      <point x="47.025" y="762.43193"/>
      <point x="47.025" y="710.0" type="curve" smooth="yes"/>
      <point x="47.025" y="657.56807"/>
      <point x="89.59307000000001" y="615.0"/>
      <point x="142.025" y="615.0" type="curve"/>
    </contour>
    <contour>
      <point x="189.525" y="615.0" type="line"/>
      <point x="241.95693000000003" y="615.0"/>
      <point x="284.525" y="657.56807"/>
      <point x="284.525" y="710.0" type="curve" smooth="yes"/>
      <point x="284.525" y="762.43193"/>
      <point x="241.95693000000003" y="805.0"/>
      <point x="189.525" y="805.0" type="curve"/>
    </contour>
    <contour>
      <point x="327.025" y="0.0" type="line"/>
      <point x="426.36969999999997" y="0.0"/>
      <point x="507.025" y="80.6553"/>
      <point x="507.025" y="180.0" type="curve"/>
      <point x="327.025" y="180.0" type="line"/>
    </contour>
    <contour>
      <point x="327.025" y="180.0" type="line"/>
      <point x="507.025" y="180.0" type="line"/>
      <point x="507.025" y="200.0" type="line"/>
      <point x="327.025" y="200.0" type="line"/>
    </contour>
    <contour>
      <point x="327.025" y="200" type="line"/>
      <point x="507.025" y="200" type="line"/>
      <point x="507.025" y="400" type="line"/>
      <point x="327.025" y="400" type="line"/>
    </contour>
    <contour>
      <point x="327.025" y="400" type="line"/>
      <point x="507.025" y="400" type="line"/>
      <point x="507.025" y="600" type="line"/>
      <point x="327.025" y="600" type="line"/>
    </contour>
    <contour>
      <point x="507.025" y="800.0" type="line"/>
      <point x="407.6803" y="800.0"/>
      <point x="327.025" y="719.3447"/>
      <point x="327.025" y="620.0" type="curve"/>
      <point x="507.025" y="620.0" type="line"/>
    </contour>
    <contour>
      <point x="327.025" y="600" type="line"/>
      <point x="507.025" y="600" type="line"/>
      <point x="507.025" y="620.0" type="line"/>
      <point x="327.025" y="620.0" type="line"/>
    </contour>
    <contour>
      <point x="644.525" y="185.0" type="line"/>
      <point x="592.09307" y="185.0"/>
      <point x="549.525" y="142.43193"/>
      <point x="549.525" y="90.0" type="curve" smooth="yes"/>
      <point x="549.525" y="37.56807"/>
      <point x="592.09307" y="-5.0"/>
      <point x="644.525" y="-5.0" type="curve"/>
    </contour>
    <contour>
      <point x="692.025" y="-5.0" type="line"/>
      <point x="744.4569299999999" y="-5.0"/>
      <point x="787.025" y="37.56807"/>
      <point x="787.025" y="90.0" type="curve" smooth="yes"/>
      <point x="787.025" y="142.43193"/>
      <point x="744.4569299999999" y="185.0"/>
      <point x="692.025" y="185.0" type="curve"/>
    </contour>
  </outline>
</glyph>
<glyph name="ampersand" format="2">
  <advance width="681.55"/>
  <unicode hex="0026"/>
  <outline>
    <contour>
      <point x="47.025" y="175.0" type="line"/>
      <point x="47.025" y="75.6553"/>
      <point x="127.68029999999999" y="-5.0"/>
      <point x="227.025" y="-5.0" type="curve"/>
      <point x="227.025" y="175.0" type="line"/>
    </contour>
    <contour>
      <point x="47.025" y="175.0" type="line"/>
      <point x="227.025" y="175.0" type="line"/>
      <point x="227.025" y="200.0" type="line"/>
      <point x="47.025" y="200.0" type="line"/>
    </contour>
    <contour>
      <point x="227.025" y="400.0" type="line"/>
      <point x="127.68029999999999" y="400.0"/>
      <point x="47.025" y="319.3447"/>
      <point x="47.025" y="220.0" type="curve"/>
      <point x="227.025" y="220.0" type="line"/>
    </contour>
    <contour>
      <point x="47.025" y="200" type="line"/>
      <point x="227.025" y="200" type="line"/>
      <point x="227.025" y="220.0" type="line"/>
      <point x="47.025" y="220.0" type="line"/>
    </contour>
    <contour>
      <point x="47.025" y="580.0" type="line"/>
      <point x="47.025" y="480.6553"/>
      <point x="127.68029999999999" y="400.0"/>
      <point x="227.025" y="400.0" type="curve"/>
      <point x="227.025" y="580.0" type="line"/>
    </contour>
    <contour>
      <point x="47.025" y="580.0" type="line"/>
      <point x="227.025" y="580.0" type="line"/>
      <point x="227.025" y="600.0" type="line"/>
      <point x="47.025" y="600.0" type="line"/>
    </contour>
    <contour>
      <point x="227.025" y="800.0" type="line"/>
      <point x="127.68029999999999" y="800.0"/>
      <point x="47.025" y="719.3447"/>
      <point x="47.025" y="620.0" type="curve"/>
      <point x="227.025" y="620.0" type="line"/>
    </contour>
    <contour>
      <point x="47.025" y="600" type="line"/>
      <point x="227.025" y="600" type="line"/>
      <point x="227.025" y="620.0" type="line"/>
      <point x="47.025" y="620.0" type="line"/>
    </contour>
    <contour>
      <point x="274.525" y="-5.0" type="line"/>
      <point x="373.86969999999997" y="-5.0"/>
      <point x="454.525" y="75.6553"/>
      <point x="454.525" y="175.0" type="curve"/>
      <point x="274.525" y="175.0" type="line"/>
    </contour>
    <contour>
      <point x="274.525" y="175.0" type="line"/>
      <point x="454.525" y="175.0" type="line"/>
      <point x="454.525" y="200.0" type="line"/>
      <point x="274.525" y="200.0" type="line"/>
    </contour>
    <contour>
      <point x="274.525" y="200" type="line"/>
      <point x="454.525" y="200" type="line"/>
      <point x="454.525" y="300.0" type="line"/>
      <point x="274.525" y="300.0" type="line"/>
    </contour>
    <contour>
      <point x="454.525" y="500.0" type="line"/>
      <point x="355.1803" y="500.0"/>
      <point x="274.525" y="419.3447"/>
      <point x="274.525" y="320.0" type="curve"/>
      <point x="454.525" y="320.0" type="line"/>
    </contour>
    <contour>
      <point x="274.525" y="300.0" type="line"/>
      <point x="454.525" y="300.0" type="line"/>
      <point x="454.525" y="320.0" type="line"/>
      <point x="274.525" y="320.0" type="line"/>
    </contour>
    <contour>
      <point x="263.275" y="800.0" type="line"/>
      <point x="263.275" y="700.6553"/>
      <point x="343.9303" y="620.0"/>
      <point x="443.275" y="620.0" type="curve"/>
      <point x="443.275" y="800.0" type="line"/>
    </contour>
    <contour>
      <point x="454.525" y="320.0" type="line"/>
      <point x="553.8697" y="320.0"/>
      <point x="634.525" y="400.6553"/>
      <point x="634.525" y="500.0" type="curve"/>
      <point x="454.525" y="500.0" type="line"/>
    </contour>
  </outline>
</glyph>
<glyph name="parenleft" format="2">
  <advance width="274.05"/>
  <unicode hex="0028"/>
  <outline>
    <contour>
      <point x="47.025" y="80.0" type="line"/>
      <point x="47.025" y="-19.3447"/>
      <point x="127.68029999999999" y="-100.0"/>
      <point x="227.025" y="-100.0" type="curve"/>
      <point x="227.025" y="80.0" type="line"/>
    </contour>
    <contour>
      <point x="47.025" y="80.0" type="line"/>
      <point x="227.025" y="80.0" type="line"/>
      <point x="227.025" y="100.0" type="line"/>
      <point x="47.025" y="100.0" type="line"/>
    </contour>
    <contour>
      <point x="47.025" y="100.0" type="line"/>
      <point x="227.025" y="100.0" type="line"/>
      <point x="227.025" y="300.0" type="line"/>
      <point x="47.025" y="300.0" type="line"/>
    </contour>
    <contour>
      <point x="47.025" y="300.0" type="line"/>
      <point x="227.025" y="300.0" type="line"/>
      <point x="227.025" y="500.0" type="line"/>
      <point x="47.025" y="500.0" type="line"/>
    </contour>
    <contour>
      <point x="47.025" y="500.0" type="line"/>
      <point x="227.025" y="500.0" type="line"/>
      <point x="227.025" y="700.0" type="line"/>
      <point x="47.025" y="700.0" type="line"/>
    </contour>
    <contour>
      <point x="227.025" y="900.0" type="line"/>
      <point x="127.68029999999999" y="900.0"/>
      <point x="47.025" y="819.3447"/>
      <point x="47.025" y="720.0" type="curve"/>
      <point x="227.025" y="720.0" type="line"/>
    </contour>
    <contour>
      <point x="47.025" y="700.0" type="line"/>
      <point x="227.025" y="700.0" type="line"/>
      <point x="227.025" y="720.0" type="line"/>
      <point x="47.025" y="720.0" type="line"/>
    </contour>
  </outline>
</glyph>
<glyph name="asterisk" format="2">
  <advance width="569.7421938165305"/>
  <unicode hex="002A"/>
  <outline>
    <contour>
      <point x="522.7171938165305" y="628.0384757729337" type="line"/>
      <point x="462.71719381653054" y="731.9615242270663" type="line"/>
      <point x="47.025" y="491.9615242270663" type="line"/>
      <point x="107.025" y="388.0384757729337" type="line"/>
    </contour>
    <contour>
      <point x="462.71719381653054" y="388.0384757729337" type="line"/>
      <point x="522.7171938165305" y="491.9615242270663" type="line"/>
      <point x="107.025" y="731.9615242270663" type="line"/>
      <point x="47.025" y="628.0384757729337" type="line"/>
    </contour>
    <contour>
      <point x="224.8710969082653" y="320.0" type="line"/>
      <point x="344.87109690826526" y="320.0" type="line"/>
      <point x="344.87109690826526" y="800.0" type="line"/>
      <point x="224.8710969082653" y="800.0" type="line"/>
    </contour>
  </outline>
</glyph>
<glyph name="plus" format="2">
  <advance width="729.05"/>
  <unicode hex="002B"/>
  <outline>
    <contour>
      <point x="94.525" y="310.0" type="line"/>
      <point x="274.525" y="310.0" type="line"/>
      <point x="274.525" y="490.0" type="line"/>
      <point x="94.525" y="490.0" type="line"/>
    </contour>
    <contour>
      <point x="274.525" y="120.0" type="line"/>
      <point x="454.525" y="120.0" type="line"/>
      <point x="454.525" y="300.0" type="line"/>
      <point x="274.525" y="300.0" type="line"/>
    </contour>
    <contour>
      <point x="274.525" y="300.0" type="line"/>
      <point x="454.525" y="300.0" type="line"/>
      <point x="454.525" y="500.0" type="line"/>
      <point x="274.525" y="500.0" type="line"/>
    </contour>
    <contour>
      <point x="274.525" y="500.0" type="line"/>
      <point x="454.525" y="500.0" type="line"/>
      <point x="454.525" y="680.0" type="line"/>
      <point x="274.525" y="680.0" type="line"/>
    </contour>
    <contour>
      <point x="454.525" y="310.0" type="line"/>
      <point x="634.525" y="310.0" type="line"/>
      <point x="634.525" y="490.0" type="line"/>
      <point x="454.525" y="490.0" type="line"/>
    </contour>
  </outline>
</glyph>
<glyph name="zero" format="2">
  <advance width="501.55"/>
  <unicode hex="0030"/>
  <outline>
    <contour>
      <point x="47.025" y="175.0" type="line"/>
      <point x="47.025" y="75.6553"/>
      <point x="127.68029999999999" y="-5.0"/>
      <point x="227.025" y="-5.0" type="curve"/>
      <point x="227.025" y="175.0" type="line"/>
    </contour>
    <contour>
      <point x="47.025" y="175.0" type="line"/>
      <point x="227.025" y="175.0" type="line"/>
      <point x="227.025" y="200.0" type="line"/>
      <point x="47.025" y="200.0" type="line"/>
    </contour>
    <contour>
      <point x="47.025" y="200" type="line"/>
      <point x="227.025" y="200" type="line"/>
      <point x="227.025" y="400" type="line"/>
      <point x="47.025" y="400" type="line"/>
    </contour>
    <contour>
      <point x="47.025" y="400" type="line"/>
      <point x="227.025" y="400" type="line"/>
      <point x="227.025" y="600" type="line"/>
      <point x="47.025" y="600" type="line"/>
    </contour>
    <contour>
      <point x="227.025" y="805.0" type="line"/>
      <point x="127.68029999999999" y="805.0"/>
      <point x="47.025" y="724.3447"/>
      <point x="47.025" y="625.0" type="curve"/>
      <point x="227.025" y="625.0" type="line"/>
    </contour>
    <contour>
      <point x="47.025" y="600" type="line"/>
      <point x="227.025" y="600" type="line"/>
      <point x="227.025" y="625.0" type="line"/>
      <point x="47.025" y="625.0" type="line"/>
    </contour>
    <contour>
      <point x="274.525" y="-5.0" type="line"/>
      <point x="373.86969999999997" y="-5.0"/>
      <point x="454.525" y="75.6553"/>
      <point x="454.525" y="175.0" type="curve"/>
      <point x="274.525" y="175.0" type="line"/>
    </contour>
    <contour>
      <point x="274.525" y="175.0" type="line"/>
      <point x="454.525" y="175.0" type="line"/>
      <point x="454.525" y="200.0" type="line"/>
      <point x="274.525" y="200.0" type="line"/>
    </contour>
    <contour>
      <point x="274.525" y="200" type="line"/>
      <point x="454.525" y="200" type="line"/>
      <point x="454.525" y="400" type="line"/>
      <point x="274.525" y="400" type="line"/>
    </contour>
    <contour>
      <point x="274.525" y="400" type="line"/>
      <point x="454.525" y="400" type="line"/>
      <point x="454.525" y="600" type="line"/>
      <point x="274.525" y="600" type="line"/>
    </contour>
    <contour>
      <point x="454.525" y="625.0" type="line"/>
      <point x="454.525" y="724.3447"/>
      <point x="373.86969999999997" y="805.0"/>
      <point x="274.525" y="805.0" type="curve"/>
      <point x="274.525" y="625.0" type="line"/>
    </contour>
    <contour>
      <point x="274.525" y="600" type="line"/>
      <point x="454.525" y="600" type="line"/>
      <point x="454.525" y="625.0" type="line"/>
      <point x="274.525" y="625.0" type="line"/>
    </contour>
  </outline>
</glyph>
<glyph name="two" format="2">
  <advance width="501.55"/>
  <unicode hex="0032"/>
  <outline>
    <contour>
      <point x="227.025" y="180.0" type="line"/>
      <point x="127.68029999999999" y="180.0"/>
      <point x="47.025" y="99.3447"/>
      <point x="47.025" y="0.0" type="curve"/>
      <point x="227.025" y="0.0" type="line"/>
    </contour>
    <contour>
      <point x="227.025" y="0" type="line"/>
      <point x="274.525" y="0" type="line"/>
      <point x="274.525" y="180.0" type="line"/>
      <point x="227.025" y="180.0" type="line"/>
    </contour>
    <contour>
      <point x="237.65" y="710.0" type="curve" smooth="yes"/>
      <point x="237.65" y="762.43193"/>
      <point x="195.08193" y="805.0"/>
      <point x="142.65" y="805.0" type="curve" smooth="yes"/>
      <point x="90.21807" y="805.0"/>
      <point x="47.65" y="762.43193"/>
      <point x="47.65" y="710.0" type="curve" smooth="yes"/>
      <point x="47.65" y="657.56807"/>
      <point x="90.21807" y="615.0"/>
      <point x="142.65" y="615.0" type="curve" smooth="yes"/>
      <point x="195.08193" y="615.0"/>
      <point x="237.65" y="657.56807"/>
    </contour>
    <contour>
      <point x="274.525" y="0" type="line"/>
      <point x="454.525" y="0" type="line"/>
      <point x="454.525" y="180.0" type="line"/>
      <point x="274.525" y="180.0" type="line"/>
    </contour>
    <contour>
      <point x="274.525" y="228.33333" type="line"/>
      <point x="373.86969999999997" y="228.33333"/>
      <point x="454.525" y="308.98863"/>
      <point x="454.525" y="408.33333" type="curve"/>
      <point x="274.525" y="408.33333" type="line"/>
    </contour>
    <contour>
      <point x="274.525" y="408.33333" type="line"/>
      <point x="454.525" y="408.33333" type="line"/>
      <point x="454.525" y="500.0" type="line"/>
      <point x="274.525" y="500.0" type="line"/>
    </contour>
    <contour>
      <point x="274.525" y="500.0" type="line"/>
      <point x="454.525" y="500.0" type="line"/>
      <point x="454.525" y="600.0" type="line"/>
      <point x="274.525" y="600.0" type="line"/>
    </contour>
    <contour>
      <point x="454.525" y="625.0" type="line"/>
      <point x="454.525" y="724.3447"/>
      <point x="373.86969999999997" y="805.0"/>
      <point x="274.525" y="805.0" type="curve"/>
      <point x="274.525" y="625.0" type="line"/>
    </contour>
    <contour>
      <point x="274.525" y="600" type="line"/>
      <point x="454.525" y="600" type="line"/>
      <point x="454.525" y="625.0" type="line"/>
      <point x="274.525" y="625.0" type="line"/>
    </contour>
  </outline>
</glyph>
<glyph name="three" format="2">
  <advance width="501.55"/>
  <unicode hex="0033"/>
  <outline>
    <contour>
      <point x="232.025" y="90.0" type="curve" smooth="yes"/>
      <point x="232.025" y="142.43193"/>
      <point x="189.45693" y="185.0"/>
      <point x="137.025" y="185.0" type="curve" smooth="yes"/>
      <point x="84.59307" y="185.0"/>
      <point x="42.025" y="142.43193"/>
      <point x="42.025" y="90.0" type="curve" smooth="yes"/>
      <point x="42.025" y="37.56807"/>
      <point x="84.59307" y="-5.0"/>
      <point x="137.025" y="-5.0" type="curve" smooth="yes"/>
      <point x="189.45693" y="-5.0"/>
      <point x="232.025" y="37.56807"/>
    </contour>
    <contour>
      <point x="232.025" y="710.0" type="curve" smooth="yes"/>
      <point x="232.025" y="762.43193"/>
      <point x="189.45693" y="805.0"/>
      <point x="137.025" y="805.0" type="curve" smooth="yes"/>
      <point x="84.59307" y="805.0"/>
      <point x="42.025" y="762.43193"/>
      <point x="42.025" y="710.0" type="curve" smooth="yes"/>
      <point x="42.025" y="657.56807"/>
      <point x="84.59307" y="615.0"/>
      <point x="137.025" y="615.0" type="curve" smooth="yes"/>
      <point x="189.45693" y="615.0"/>
      <point x="232.025" y="657.56807"/>
    </contour>
    <contour>
      <point x="274.525" y="-5.0" type="line"/>
      <point x="373.86969999999997" y="-5.0"/>
      <point x="454.525" y="75.6553"/>
      <point x="454.525" y="175.0" type="curve"/>
      <point x="274.525" y="175.0" type="line"/>
    </contour>
    <contour>
      <point x="274.525" y="175.0" type="line"/>
      <point x="454.525" y="175.0" type="line"/>
      <point x="454.525" y="200.0" type="line"/>
      <point x="274.525" y="200.0" type="line"/>
    </contour>
    <contour>
      <point x="454.525" y="220.0" type="line"/>
      <point x="454.525" y="319.3447"/>
      <point x="373.86969999999997" y="400.0"/>
      <point x="274.525" y="400.0" type="curve"/>
      <point x="274.525" y="220.0" type="line"/>
    </contour>
    <contour>
      <point x="274.525" y="200" type="line"/>
      <point x="454.525" y="200" type="line"/>
      <point x="454.525" y="220.0" type="line"/>
      <point x="274.525" y="220.0" type="line"/>
    </contour>
    <contour>
      <point x="274.525" y="400.0" type="line"/>
      <point x="373.86969999999997" y="400.0"/>
      <point x="454.525" y="480.6553"/>
      <point x="454.525" y="580.0" type="curve"/>
      <point x="274.525" y="580.0" type="line"/>
    </contour>
    <contour>
      <point x="274.525" y="580.0" type="line"/>
      <point x="454.525" y="580.0" type="line"/>
      <point x="454.525" y="600.0" type="line"/>
      <point x="274.525" y="600.0" type="line"/>
    </contour>
    <contour>
      <point x="454.525" y="625.0" type="line"/>
      <point x="454.525" y="724.3447"/>
      <point x="373.86969999999997" y="805.0"/>
      <point x="274.525" y="805.0" type="curve"/>
      <point x="274.525" y="625.0" type="line"/>
    </contour>
    <contour>
      <point x="274.525" y="600" type="line"/>
      <point x="454.525" y="600" type="line"/>
      <point x="454.525" y="625.0" type="line"/>
      <point x="274.525" y="625.0" type="line"/>
    </contour>
  </outline>
</glyph>
<glyph name="four" format="2">
  <advance width="501.55"/>
  <unicode hex="0034"/>
  <outline>
    <contour>
      <point x="47.025" y="300.0" type="line"/>
      <point x="146.3697" y="300.0"/>
      <point x="227.025" y="380.6553"/>
      <point x="227.025" y="480.0" type="curve"/>
      <point x="47.025" y="480.0" type="line"/>
    </contour>
    <contour>
      <point x="47.025" y="480.0" type="line"/>
      <point x="227.025" y="480.0" type="line"/>
      <point x="227.025" y="500.0" type="line"/>
      <point x="47.025" y="500.0" type="line"/>
    </contour>
    <contour>
      <point x="47.025" y="500.0" type="line"/>
      <point x="227.025" y="500.0" type="line"/>
      <point x="227.025" y="600.0" type="line"/>
      <point x="47.025" y="600.0" type="line"/>
    </contour>
    <contour>
      <point x="47.025" y="600" type="line"/>
      <point x="227.025" y="600" type="line"/>
      <point x="227.025" y="800" type="line"/>
      <point x="47.025" y="800" type="line"/>
    </contour>
    <contour>
      <point x="274.525" y="0" type="line"/>
      <point x="454.525" y="0" type="line"/>
      <point x="454.525" y="200" type="line"/>
      <point x="274.525" y="200" type="line"/>
    </contour>
    <contour>
      <point x="274.525" y="200" type="line"/>
      <point x="454.525" y="200" type="line"/>
      <point x="454.525" y="400" type="line"/>
      <point x="274.525" y="400" type="line"/>
    </contour>
    <contour>
      <point x="274.525" y="400" type="line"/>
      <point x="454.525" y="400" type="line"/>
      <point x="454.525" y="500.0" type="line"/>
      <point x="274.525" y="500.0" type="line"/>
    </contour>
  </outline>
</glyph>
<glyph name="five" format="2">
  <advance width="501.55"/>
  <unicode hex="0035"/>
  <outline>
    <contour>
      <point x="232.025" y="85.0" type="curve" smooth="yes"/>
      <point x="232.025" y="137.43193"/>
      <point x="189.45693" y="180.0"/>
      <point x="137.025" y="180.0" type="curve" smooth="yes"/>
      <point x="84.59307" y="180.0"/>
      <point x="42.025" y="137.43193"/>
      <point x="42.025" y="85.0" type="curve" smooth="yes"/>
      <point x="42.025" y="32.56807"/>
      <point x="84.59307" y="-10.0"/>
      <point x="137.025" y="-10.0" type="curve" smooth="yes"/>
      <point x="189.45693" y="-10.0"/>
      <point x="232.025" y="32.56807"/>
    </contour>
    <contour>
      <point x="52.65" y="490.0" type="line"/>
      <point x="52.65" y="390.6553"/>
      <point x="133.3053" y="310.0"/>
      <point x="232.65" y="310.0" type="curve"/>
      <point x="232.65" y="490.0" type="line"/>
    </contour>
    <contour>
      <point x="52.65" y="490.0" type="line"/>
      <point x="232.65" y="490.0" type="line"/>
      <point x="232.65" y="500.0" type="line"/>
      <point x="52.65" y="500.0" type="line"/>
    </contour>
    <contour>
      <point x="52.65" y="500.0" type="line"/>
      <point x="232.65" y="500.0" type="line"/>
      <point x="232.65" y="600.0" type="line"/>
      <point x="52.65" y="600.0" type="line"/>
    </contour>
    <contour>
      <point x="52.65" y="600" type="line"/>
      <point x="232.65" y="600" type="line"/>
      <point x="232.65" y="800" type="line"/>
      <point x="52.65" y="800" type="line"/>
    </contour>
    <contour>
      <point x="274.525" y="-5.0" type="line"/>
      <point x="373.86969999999997" y="-5.0"/>
      <point x="454.525" y="75.6553"/>
      <point x="454.525" y="175.0" type="curve"/>
      <point x="274.525" y="175.0" type="line"/>
    </contour>
    <contour>
      <point x="274.525" y="175.0" type="line"/>
      <point x="454.525" y="175.0" type="line"/>
      <point x="454.525" y="200.0" type="line"/>
      <point x="274.525" y="200.0" type="line"/>
    </contour>
    <contour>
      <point x="274.525" y="200" type="line"/>
      <point x="454.525" y="200" type="line"/>
      <point x="454.525" y="300.0" type="line"/>
      <point x="274.525" y="300.0" type="line"/>
    </contour>
    <contour>
      <point x="454.525" y="310.0" type="line"/>
      <point x="454.525" y="409.3447"/>
      <point x="373.86969999999997" y="490.0"/>
      <point x="274.525" y="490.0" type="curve"/>
      <point x="274.525" y="310.0" type="line"/>
    </contour>
    <contour>
      <point x="274.525" y="300.0" type="line"/>
      <point x="454.525" y="300.0" type="line"/>
      <point x="454.525" y="310.0" type="line"/>
      <point x="274.525" y="310.0" type="line"/>
    </contour>
    <contour>
      <point x="268.9" y="800.0" type="line"/>
      <point x="268.9" y="700.6553"/>
      <point x="349.5553" y="620.0"/>
      <point x="448.9" y="620.0" type="curve"/>
      <point x="448.9" y="800.0" type="line"/>
    </contour>
  </outline>
</glyph>
<glyph name="six" format="2">
  <advance width="501.55"/>
  <unicode hex="0036"/>
  <outline>
    <contour>
      <point x="47.025" y="175.0" type="line"/>
      <point x="47.025" y="75.6553"/>
      <point x="127.68029999999999" y="-5.0"/>
      <point x="227.025" y="-5.0" type="curve"/>
      <point x="227.025" y="175.0" type="line"/>
    </contour>
    <contour>
      <point x="47.025" y="175.0" type="line"/>
      <point x="227.025" y="175.0" type="line"/>
      <point x="227.025" y="200.0" type="line"/>
      <point x="47.025" y="200.0" type="line"/>
    </contour>
    <contour>
      <point x="47.025" y="200" type="line"/>
      <point x="227.025" y="200" type="line"/>
      <point x="227.025" y="400" type="line"/>
      <point x="47.025" y="400" type="line"/>
    </contour>
    <contour>
      <point x="47.025" y="400" type="line"/>
      <point x="227.025" y="400" type="line"/>
      <point x="227.025" y="600" type="line"/>
      <point x="47.025" y="600" type="line"/>
    </contour>
    <contour>
      <point x="227.025" y="805.0" type="line"/>
      <point x="127.68029999999999" y="805.0"/>
      <point x="47.025" y="724.3447"/>
      <point x="47.025" y="625.0" type="curve"/>
      <point x="227.025" y="625.0" type="line"/>
    </contour>
    <contour>
      <point x="47.025" y="600" type="line"/>
      <point x="227.025" y="600" type="line"/>
      <point x="227.025" y="625.0" type="line"/>
      <point x="47.025" y="625.0" type="line"/>
    </contour>
    <contour>
      <point x="274.525" y="-5.0" type="line"/>
      <point x="373.86969999999997" y="-5.0"/>
      <point x="454.525" y="75.6553"/>
      <point x="454.525" y="175.0" type="curve"/>
      <point x="274.525" y="175.0" type="line"/>
    </contour>
    <contour>
      <point x="274.525" y="175.0" type="line"/>
      <point x="454.525" y="175.0" type="line"/>
      <point x="454.525" y="200.0" type="line"/>
      <point x="274.525" y="200.0" type="line"/>
    </contour>
    <contour>
      <point x="274.525" y="200" type="line"/>
      <point x="454.525" y="200" type="line"/>
      <point x="454.525" y="300.0" type="line"/>
      <point x="274.525" y="300.0" type="line"/>
    </contour>
    <contour>
      <point x="454.525" y="320.0" type="line"/>
      <point x="454.525" y="419.3447"/>
      <point x="373.86969999999997" y="500.0"/>
      <point x="274.525" y="500.0" type="curve"/>
      <point x="274.525" y="320.0" type="line"/>
    </contour>
    <contour>
      <point x="274.525" y="300.0" type="line"/>
      <point x="454.525" y="300.0" type="line"/>
      <point x="454.525" y="320.0" type="line"/>
      <point x="274.525" y="320.0" type="line"/>
    </contour>
    <contour>
      <point x="448.9" y="715.0" type="curve" smooth="yes"/>
      <point x="448.9" y="764.67235"/>
      <point x="408.57235" y="805.0"/>
      <point x="358.9" y="805.0" type="curve" smooth="yes"/>
      <point x="309.22765" y="805.0"/>
      <point x="268.9" y="764.67235"/>
      <point x="268.9" y="715.0" type="curve" smooth="yes"/>
      <point x="268.9" y="665.32765"/>
      <point x="309.22765" y="625.0"/>
      <point x="358.9" y="625.0" type="curve" smooth="yes"/>
      <point x="408.57235" y="625.0"/>
      <point x="448.9" y="665.32765"/>
    </contour>
  </outline>
</glyph>
<glyph name="eight" format="2">
  <advance width="501.55"/>
  <unicode hex="0038"/>
  <outline>
    <contour>
      <point x="47.025" y="175.0" type="line"/>
      <point x="47.025" y="75.6553"/>
      <point x="127.68029999999999" y="-5.0"/>
      <point x="227.025" y="-5.0" type="curve"/>
      <point x="227.025" y="175.0" type="line"/>
    </contour>
    <contour>
      <point x="47.025" y="175.0" type="line"/>
      <point x="227.025" y="175.0" type="line"/>
      <point x="227.025" y="200.0" type="line"/>
      <point x="47.025" y="200.0" type="line"/>
    </contour>
    <contour>
      <point x="227.025" y="400.0" type="line"/>
      <point x="127.68029999999999" y="400.0"/>
      <point x="47.025" y="319.3447"/>
      <point x="47.025" y="220.0" type="curve"/>
      <point x="227.025" y="220.0" type="line"/>
    </contour>
    <contour>
      <point x="47.025" y="200" type="line"/>
      <point x="227.025" y="200" type="line"/>
      <point x="227.025" y="220.0" type="line"/>
      <point x="47.025" y="220.0" type="line"/>
    </contour>
    <contour>
      <point x="47.025" y="580.0" type="line"/>
      <point x="47.025" y="480.6553"/>
      <point x="127.68029999999999" y="400.0"/>
      <point x="227.025" y="400.0" type="curve"/>
      <point x="227.025" y="580.0" type="line"/>
    </contour>
    <contour>
      <point x="47.025" y="580.0" type="line"/>
      <point x="227.025" y="580.0" type="line"/>
      <point x="227.025" y="600.0" type="line"/>
      <point x="47.025" y="600.0" type="line"/>
    </contour>
    <contour>
      <point x="227.025" y="805.0" type="line"/>
      <point x="127.68029999999999" y="805.0"/>
      <point x="47.025" y="724.3447"/>
      <point x="47.025" y="625.0" type="curve"/>
      <point x="227.025" y="625.0" type="line"/>
    </contour>
    <contour>
      <point x="47.025" y="600" type="line"/>
      <point x="227.025" y="600" type="line"/>
      <point x="227.025" y="625.0" type="line"/>
      <point x="47.025" y="625.0" type="line"/>
    </contour>
    <contour>
      <point x="274.525" y="-5.0" type="line"/>
      <point x="373.86969999999997" y="-5.0"/>
      <point x="454.525" y="75.6553"/>
      <point x="454.525" y="175.0" type="curve"/>
      <point x="274.525" y="175.0" type="line"/>
    </contour>
    <contour>
      <point x="274.525" y="175.0" type="line"/>
      <point x="454.525" y="175.0" type="line"/>
      <point x="454.525" y="200.0" type="line"/>
      <point x="274.525" y="200.0" type="line"/>
    </contour>
    <contour>
      <point x="454.525" y="220.0" type="line"/>
      <point x="454.525" y="319.3447"/>
      <point x="373.86969999999997" y="400.0"/>
      <point x="274.525" y="400.0" type="curve"/>
      <point x="274.525" y="220.0" type="line"/>
    </contour>
    <contour>
      <point x="274.525" y="200" type="line"/>
      <point x="454.525" y="200" type="line"/>
      <point x="454.525" y="220.0" type="line"/>
      <point x="274.525" y="220.0" type="line"/>
    </contour>
    <contour>
      <point x="274.525" y="400.0" type="line"/>
      <point x="373.86969999999997" y="400.0"/>
      <point x="454.525" y="480.6553"/>
      <point x="454.525" y="580.0" type="curve"/>
      <point x="274.525" y="580.0" type="line"/>
    </contour>
    <contour>
      <point x="274.525" y="580.0" type="line"/>
      <point x="454.525" y="580.0" type="line"/>
      <point x="454.525" y="600.0" type="line"/>
      <point x="274.525" y="600.0" type="line"/>
    </contour>
    <contour>
      <point x="454.525" y="625.0" type="line"/>
      <point x="454.525" y="724.3447"/>
      <point x="373.86969999999997" y="805.0"/>
      <point x="274.525" y="805.0" type="curve"/>
      <point x="274.525" y="625.0" type="line"/>
    </contour>
    <contour>
      <point x="274.525" y="600" type="line"/>
      <point x="454.525" y="600" type="line"/>
      <point x="454.525" y="625.0" type="line"/>
      <point x="274.525" y="625.0" type="line"/>
    </contour>
  </outline>
</glyph>
<glyph name="nine" format="2">
  <advance width="501.55"/>
  <unicode hex="0039"/>
  <outline>
    <contour>
      <point x="237.65" y="85.0" type="curve" smooth="yes"/>
      <point x="237.65" y="137.43193"/>
      <point x="195.08193" y="180.0"/>
      <point x="142.65" y="180.0" type="curve" smooth="yes"/>
      <point x="90.21807" y="180.0"/>
      <point x="47.65" y="137.43193"/>
      <point x="47.65" y="85.0" type="curve" smooth="yes"/>
      <point x="47.65" y="32.56807"/>
      <point x="90.21807" y="-10.0"/>
      <point x="142.65" y="-10.0" type="curve" smooth="yes"/>
      <point x="195.08193" y="-10.0"/>
      <point x="237.65" y="32.56807"/>
    </contour>
    <contour>
      <point x="47.025" y="480.0" type="line"/>
      <point x="47.025" y="380.6553"/>
      <point x="127.68029999999999" y="300.0"/>
      <point x="227.025" y="300.0" type="curve"/>
      <point x="227.025" y="480.0" type="line"/>
    </contour>
    <contour>
      <point x="47.025" y="480.0" type="line"/>
      <point x="227.025" y="480.0" type="line"/>
      <point x="227.025" y="500.0" type="line"/>
      <point x="47.025" y="500.0" type="line"/>
    </contour>
    <contour>
      <point x="47.025" y="500.0" type="line"/>
      <point x="227.025" y="500.0" type="line"/>
      <point x="227.025" y="600.0" type="line"/>
      <point x="47.025" y="600.0" type="line"/>
    </contour>
    <contour>
      <point x="227.025" y="805.0" type="line"/>
      <point x="127.68029999999999" y="805.0"/>
      <point x="47.025" y="724.3447"/>
      <point x="47.025" y="625.0" type="curve"/>
      <point x="227.025" y="625.0" type="line"/>
    </contour>
    <contour>
      <point x="47.025" y="600" type="line"/>
      <point x="227.025" y="600" type="line"/>
      <point x="227.025" y="625.0" type="line"/>
      <point x="47.025" y="625.0" type="line"/>
    </contour>
    <contour>
      <point x="274.525" y="-5.0" type="line"/>
      <point x="373.86969999999997" y="-5.0"/>
      <point x="454.525" y="75.6553"/>
      <point x="454.525" y="175.0" type="curve"/>
      <point x="274.525" y="175.0" type="line"/>
    </contour>
    <contour>
      <point x="274.525" y="175.0" type="line"/>
      <point x="454.525" y="175.0" type="line"/>
      <point x="454.525" y="200.0" type="line"/>
      <point x="274.525" y="200.0" type="line"/>
    </contour>
    <contour>
      <point x="274.525" y="200" type="line"/>
      <point x="454.525" y="200" type="line"/>
      <point x="454.525" y="400" type="line"/>
      <point x="274.525" y="400" type="line"/>
    </contour>
    <contour>
      <point x="274.525" y="400" type="line"/>
      <point x="454.525" y="400" type="line"/>
      <point x="454.525" y="600" type="line"/>
      <point x="274.525" y="600" type="line"/>
    </contour>
    <contour>
      <point x="454.525" y="625.0" type="line"/>
      <point x="454.525" y="724.3447"/>
      <point x="373.86969999999997" y="805.0"/>
      <point x="274.525" y="805.0" type="curve"/>
      <point x="274.525" y="625.0" type="line"/>
    </contour>
    <contour>
      <point x="274.525" y="600" type="line"/>
      <point x="454.525" y="600" type="line"/>
      <point x="454.525" y="625.0" type="line"/>
      <point x="274.525" y="625.0" type="line"/>
    </contour>
  </outline>
</glyph>
<glyph name="semicolon" format="2">
  <advance width="274.05"/>
  <unicode hex="003B"/>
  <outline>
    <contour>
      <point x="47.025" y="-100.0" type="line"/>
      <point x="146.3697" y="-100.0"/>
      <point x="227.025" y="-19.3447"/>
      <point x="227.025" y="80.0" type="curve"/>
      <point x="47.025" y="80.0" type="line"/>
    </contour>
    <contour>
      <point x="47.025" y="80.0" type="line"/>
      <point x="227.025" y="80.0" type="line"/>
      <point x="227.025" y="100.0" type="line"/>
      <point x="47.025" y="100.0" type="line"/>
    </contour>
    <contour>
      <point x="232.025" y="510.0" type="curve" smooth="yes"/>
      <point x="232.025" y="562.43193"/>
      <point x="189.45693" y="605.0"/>
      <point x="137.025" y="605.0" type="curve" smooth="yes"/>
      <point x="84.59307" y="605.0"/>
      <point x="42.025" y="562.43193"/>
      <point x="42.025" y="510.0" type="curve" smooth="yes"/>
      <point x="42.025" y="457.56807"/>
      <point x="84.59307" y="415.0"/>
      <point x="137.025" y="415.0" type="curve" smooth="yes"/>
      <point x="189.45693" y="415.0"/>
      <point x="232.025" y="457.56807"/>
    </contour>
  </outline>
</glyph>
<glyph name="less" format="2">
  <advance width="454.05"/>
  <unicode hex="003C"/>
  <outline>
    <contour>
      <point x="47.025" y="280.0" type="line"/>
      <point x="47.025" y="180.6553"/>
      <point x="127.68029999999999" y="100.0"/>
      <point x="227.025" y="100.0" type="curve"/>
      <point x="227.025" y="280.0" type="line"/>
    </contour>
    <contour>
      <point x="47.025" y="280.0" type="line"/>
      <point x="227.025" y="280.0" type="line"/>
      <point x="227.025" y="300.0" type="line"/>
      <point x="47.025" y="300.0" type="line"/>
    </contour>
    <contour>
      <point x="47.025" y="300.0" type="line"/>
      <point x="227.025" y="300.0" type="line"/>
      <point x="227.025" y="500.0" type="line"/>
      <point x="47.025" y="500.0" type="line"/>
    </contour>
    <contour>
      <point x="227.025" y="700.0" type="line"/>
      <point x="127.68029999999999" y="700.0"/>
      <point x="47.025" y="619.3447"/>
      <point x="47.025" y="520.0" type="curve"/>
      <point x="227.025" y="520.0" type="line"/>
    </contour>
    <contour>
      <point x="47.025" y="500.0" type="line"/>
      <point x="227.025" y="500.0" type="line"/>
      <point x="227.025" y="520.0" type="line"/>
      <point x="47.025" y="520.0" type="line"/>
    </contour>
    <contour>
      <point x="407.025" y="100.0" type="line"/>
      <point x="407.025" y="199.3447"/>
      <point x="326.36969999999997" y="280.0"/>
      <point x="227.025" y="280.0" type="curve"/>
      <point x="227.025" y="100.0" type="line"/>
    </contour>
    <contour>
      <point x="227.025" y="520.0" type="line"/>
      <point x="326.36969999999997" y="520.0"/>
      <point x="407.025" y="600.6553"/>
      <point x="407.025" y="700.0" type="curve"/>
      <point x="227.025" y="700.0" type="line"/>
    </contour>
  </outline>
</glyph>
<glyph name="equal" format="2">
  <advance width="729.05"/>
  <unicode hex="003D"/>
  <outline>
    <contour>
      <point x="94.525" y="170.0" type="line"/>
      <point x="274.525" y="170.0" type="line"/>
      <point x="274.525" y="350.0" type="line"/>
      <point x="94.525" y="350.0" type="line"/>
    </contour>
    <contour>
      <point x="94.525" y="450.0" type="line"/>
      <point x="274.525" y="450.0" type="line"/>
      <point x="274.525" y="630.0" type="line"/>
      <point x="94.525" y="630.0" type="line"/>
    </contour>
    <contour>
      <point x="274.525" y="170.0" type="line"/>
      <point x="454.525" y="170.0" type="line"/>
      <point x="454.525" y="350.0" type="line"/>
      <point x="274.525" y="350.0" type="line"/>
    </contour>
    <contour>
      <point x="274.525" y="450.0" type="line"/>
      <point x="454.525" y="450.0" type="line"/>
      <point x="454.525" y="630.0" type="line"/>
      <point x="274.525" y="630.0" type="line"/>
    </contour>
    <contour>
      <point x="454.525" y="170.0" type="line"/>
      <point x="634.525" y="170.0" type="line"/>
      <point x="634.525" y="350.0" type="line"/>
      <point x="454.525" y="350.0" type="line"/>
    </contour>
    <contour>
      <point x="454.525" y="450.0" type="line"/>
      <point x="634.525" y="450.0" type="line"/>
      <point x="634.525" y="630.0" type="line"/>
      <point x="454.525" y="630.0" type="line"/>
    </contour>
  </outline>
</glyph>
<glyph name="greater" format="2">
  <advance width="454.05"/>
  <unicode hex="003E"/>
  <outline>
    <contour>
      <point x="227.025" y="280.0" type="line"/>
      <point x="127.68030000000002" y="280.0"/>
      <point x="47.025" y="199.3447"/>
      <point x="47.025" y="100.0" type="curve"/>
      <point x="227.025" y="100.0" type="line"/>
    </contour>
    <contour>
      <point x="47.025" y="700.0" type="line"/>
      <point x="47.025" y="600.6553"/>
      <point x="127.68030000000002" y="520.0"/>
      <point x="227.025" y="520.0" type="curve"/>
      <point x="227.025" y="700.0" type="line"/>
    </contour>
    <contour>
      <point x="227.025" y="100.0" type="line"/>
      <point x="326.36969999999997" y="100.0"/>
      <point x="407.025" y="180.6553"/>
      <point x="407.025" y="280.0" type="curve"/>
      <point x="227.025" y="280.0" type="line"/>
    </contour>
    <contour>
      <point x="227.025" y="280.0" type="line"/>
      <point x="407.025" y="280.0" type="line"/>
      <point x="407.025" y="300.0" type="line"/>
      <point x="227.025" y="300.0" type="line"/>
    </contour>
    <contour>
      <point x="227.025" y="300.0" type="line"/>
      <point x="407.025" y="300.0" type="line"/>
      <point x="407.025" y="500.0" type="line"/>
      <point x="227.025" y="500.0" type="line"/>
    </contour>
    <contour>
      <point x="407.025" y="520.0" type="line"/>
      <point x="407.025" y="619.3447"/>
      <point x="326.36969999999997" y="700.0"/>
      <point x="227.025" y="700.0" type="curve"/>
      <point x="227.025" y="520.0" type="line"/>
    </contour>
    <contour>
      <point x="227.025" y="500.0" type="line"/>
      <point x="407.025" y="500.0" type="line"/>
      <point x="407.025" y="520.0" type="line"/>
      <point x="227.025" y="520.0" type="line"/>
    </contour>
  </outline>
</glyph>
<glyph name="question" format="2">
  <advance width="501.55"/>
  <unicode hex="003F"/>
  <outline>
    <contour>
      <point x="232.025" y="83.75" type="curve" smooth="yes"/>
      <point x="232.025" y="136.18193"/>
      <point x="189.45693" y="178.75"/>
      <point x="137.025" y="178.75" type="curve" smooth="yes"/>
      <point x="84.59307" y="178.75"/>
      <point x="42.025" y="136.18193"/>
      <point x="42.025" y="83.75" type="curve" smooth="yes"/>
      <point x="42.025" y="31.31807"/>
      <point x="84.59307" y="-11.25"/>
      <point x="137.025" y="-11.25" type="curve" smooth="yes"/>
      <point x="189.45693" y="-11.25"/>
      <point x="232.025" y="31.31807"/>
    </contour>
    <contour>
      <point x="47.025" y="208.33333" type="line"/>
      <point x="227.025" y="208.33333" type="line"/>
      <point x="227.025" y="400.0" type="line"/>
      <point x="47.025" y="400.0" type="line"/>
    </contour>
    <contour>
      <point x="227.025" y="580.0" type="line"/>
      <point x="127.68029999999999" y="580.0"/>
      <point x="47.025" y="499.3447"/>
      <point x="47.025" y="400.0" type="curve"/>
      <point x="227.025" y="400.0" type="line"/>
    </contour>
    <contour>
      <point x="232.025" y="722.5" type="curve" smooth="yes"/>
      <point x="232.025" y="774.93193"/>
      <point x="189.45693" y="817.5"/>
      <point x="137.025" y="817.5" type="curve" smooth="yes"/>
      <point x="84.59307" y="817.5"/>
      <point x="42.025" y="774.93193"/>
      <point x="42.025" y="722.5" type="curve" smooth="yes"/>
      <point x="42.025" y="670.06807"/>
      <point x="84.59307" y="627.5"/>
      <point x="137.025" y="627.5" type="curve" smooth="yes"/>
      <point x="189.45693" y="627.5"/>
      <point x="232.025" y="670.06807"/>
    </contour>
    <contour>
      <point x="274.525" y="405.0" type="line"/>
      <point x="373.86969999999997" y="405.0"/>
      <point x="454.525" y="485.6553"/>
      <point x="454.525" y="585.0" type="curve"/>
      <point x="274.525" y="585.0" type="line"/>
    </contour>
    <contour>
      <point x="274.525" y="585.0" type="line"/>
      <point x="454.525" y="585.0" type="line"/>
      <point x="454.525" y="605.0" type="line"/>
      <point x="274.525" y="605.0" type="line"/>
    </contour>
    <contour>
      <point x="454.525" y="625.0" type="line"/>
      <point x="454.525" y="724.3447"/>
      <point x="373.86969999999997" y="805.0"/>
      <point x="274.525" y="805.0" type="curve"/>
      <point x="274.525" y="625.0" type="line"/>
    </contour>
    <contour>
      <point x="274.525" y="605.0" type="line"/>
      <point x="454.525" y="605.0" type="line"/>
      <point x="454.525" y="625.0" type="line"/>
      <point x="274.525" y="625.0" type="line"/>
    </contour>
  </outline>
</glyph>
<glyph name="at" format="2">
  <advance width="1081.2674399999999"/>
  <unicode hex="0040"/>
  <outline>
    <contour>
      <point x="325.63372000000004" y="380.0" type="curve"/>
      <point x="505.63372000000004" y="380.0" type="line"/>
      <point x="505.63372000000004" y="200.0" type="line"/>
      <point x="406.28902000000005" y="200.0"/>
      <point x="325.63372000000004" y="280.6553"/>
    </contour>
    <contour>
      <point x="325.63372000000004" y="380.0" type="line"/>
      <point x="325.63372000000004" y="400.0" type="line"/>
      <point x="505.63372000000004" y="400.0" type="line"/>
      <point x="505.63372000000004" y="380.0" type="line"/>
    </contour>
    <contour>
      <point x="505.63372000000004" y="600.0" type="curve"/>
      <point x="505.63372000000004" y="420.0" type="line"/>
      <point x="325.63372000000004" y="420.0" type="line"/>
      <point x="325.63372000000004" y="519.3447"/>
      <point x="406.28902000000005" y="600.0"/>
    </contour>
    <contour>
      <point x="325.63372000000004" y="400" type="line"/>
      <point x="325.63372000000004" y="420.0" type="line"/>
      <point x="505.63372000000004" y="420.0" type="line"/>
      <point x="505.63372000000004" y="400" type="line"/>
    </contour>
    <contour>
      <point x="553.13372" y="380.0" type="curve"/>
      <point x="733.1337199999999" y="380.0" type="line"/>
      <point x="733.1337199999999" y="200.0" type="line"/>
      <point x="633.78902" y="200.0"/>
      <point x="553.13372" y="280.6553"/>
    </contour>
    <contour>
      <point x="553.13372" y="380.0" type="line"/>
      <point x="553.13372" y="400.0" type="line"/>
      <point x="733.1337199999999" y="400.0" type="line"/>
      <point x="733.1337199999999" y="380.0" type="line"/>
    </contour>
    <contour>
      <point x="553.13372" y="400" type="line"/>
      <point x="553.13372" y="600" type="line"/>
      <point x="733.1337199999999" y="600" type="line"/>
      <point x="733.1337199999999" y="400" type="line"/>
    </contour>
    <contour>
      <point x="944.2424399999999" y="400.0" type="curve" smooth="yes"/>
      <point x="944.2424399999999" y="622.75772"/>
      <point x="763.39144" y="803.60872"/>
      <point x="540.63372" y="803.60872" type="curve" smooth="yes"/>
      <point x="317.876" y="803.60872"/>
      <point x="137.025" y="622.75772"/>
      <point x="137.025" y="400.0" type="curve" smooth="yes"/>
      <point x="137.025" y="177.24228"/>
      <point x="317.876" y="-3.60872"/>
      <point x="540.63372" y="-3.60872" type="curve" smooth="yes"/>
      <point x="763.39144" y="-3.60872"/>
      <point x="944.2424399999999" y="177.24228"/>
    </contour>
  </outline>
</glyph>
<glyph name="D" format="2">
  <advance width="501.55"/>
  <unicode hex="0044"/>
  <outline>
    <contour>
      <point x="47.025" y="0" type="line"/>
      <point x="227.025" y="0" type="line"/>
      <point x="227.025" y="200" type="line"/>
      <point x="47.025" y="200" type="line"/>
    </contour>
    <contour>
      <point x="47.025" y="200" type="line"/>
      <point x="227.025" y="200" type="line"/>
      <point x="227.025" y="400" type="line"/>
      <point x="47.025" y="400" type="line"/>
    </contour>
    <contour>
      <point x="47.025" y="400" type="line"/>
      <point x="227.025" y="400" type="line"/>
      <point x="227.025" y="600" type="line"/>
      <point x="47.025" y="600" type="line"/>
    </contour>
    <contour>
      <point x="47.025" y="600" type="line"/>
      <point x="227.025" y="600" type="line"/>
      <point x="227.025" y="800" type="line"/>
      <point x="47.025" y="800" type="line"/>
    </contour>
    <contour>
      <point x="274.525" y="0.0" type="line"/>
      <point x="373.86969999999997" y="0.0"/>
      <point x="454.525" y="80.6553"/>
      <point x="454.525" y="180.0" type="curve"/>
      <point x="274.525" y="180.0" type="line"/>
    </contour>
    <contour>
      <point x="274.525" y="180.0" type="line"/>
      <point x="454.525" y="180.0" type="line"/>
      <point x="454.525" y="200.0" type="line"/>
      <point x="274.525" y="200.0" type="line"/>
    </contour>
    <contour>
      <point x="274.525" y="200" type="line"/>
      <point x="454.525" y="200" type="line"/>
      <point x="454.525" y="400" type="line"/>
      <point x="274.525" y="400" type="line"/>
    </contour>
    <contour>
      <point x="274.525" y="400" type="line"/>
      <point x="454.525" y="400" type="line"/>
      <point x="454.525" y="600" type="line"/>
      <point x="274.525" y="600" type="line"/>
    </contour>
    <contour>
      <point x="454.525" y="620.0" type="line"/>
      <point x="454.525" y="719.3447"/>
      <point x="373.86969999999997" y="800.0"/>
      <point x="274.525" y="800.0" type="curve"/>
      <point x="274.525" y="620.0" type="line"/>
    </contour>
    <contour>
      <point x="274.525" y="600" type="line"/>
      <point x="454.525" y="600" type="line"/>
      <point x="454.525" y="620.0" type="line"/>
      <point x="274.525" y="620.0" type="line"/>
    </contour>
  </outline>
</glyph>
<glyph name="H" format="2">
  <advance width="729.05"/>
  <unicode hex="0048"/>
  <outline>
    <contour>
      <point x="47.025" y="0" type="line"/>
      <point x="227.025" y="0" type="line"/>
      <point x="227.025" y="200" type="line"/>
      <point x="47.025" y="200" type="line"/>
    </contour>
    <contour>
      <point x="47.025" y="200" type="line"/>
      <point x="227.025" y="200" type="line"/>
      <point x="227.025" y="400" type="line"/>
      <point x="47.025" y="400" type="line"/>
    </contour>
    <contour>
      <point x="47.025" y="400" type="line"/>
      <point x="227.025" y="400" type="line"/>
      <point x="227.025" y="600" type="line"/>
      <point x="47.025" y="600" type="line"/>
    </contour>
    <contour>
      <point x="47.025" y="600" type="line"/>
      <point x="227.025" y="600" type="line"/>
      <point x="227.025" y="800" type="line"/>
      <point x="47.025" y="800" type="line"/>
    </contour>
    <contour>
      <point x="274.525" y="490.0" type="line"/>
      <point x="274.525" y="390.6553"/>
      <point x="355.1803" y="310.0"/>
      <point x="454.525" y="310.0" type="curve"/>
      <point x="454.525" y="490.0" type="line"/>
    </contour>
    <contour>
      <point x="502.025" y="0" type="line"/>
      <point x="682.025" y="0" type="line"/>
      <point x="682.025" y="200" type="line"/>
      <point x="502.025" y="200" type="line"/>
    </contour>
    <contour>
      <point x="502.025" y="200" type="line"/>
      <point x="682.025" y="200" type="line"/>
      <point x="682.025" y="400" type="line"/>
      <point x="502.025" y="400" type="line"/>
    </contour>
    <contour>
      <point x="502.025" y="400" type="line"/>
      <point x="682.025" y="400" type="line"/>
      <point x="682.025" y="600" type="line"/>
      <point x="502.025" y="600" type="line"/>
    </contour>
    <contour>
      <point x="502.025" y="600" type="line"/>
      <point x="682.025" y="600" type="line"/>
      <point x="682.025" y="800" type="line"/>
      <point x="502.025" y="800" type="line"/>
    </contour>
  </outline>
</glyph>
<glyph name="L" format="2">
  <advance width="501.55"/>
  <unicode hex="004C"/>
  <outline>
    <contour>
      <point x="47.025" y="0" type="line"/>
      <point x="227.025" y="0" type="line"/>
      <point x="227.025" y="200" type="line"/>
      <point x="47.025" y="200" type="line"/>
    </contour>
    <contour>
      <point x="47.025" y="200" type="line"/>
      <point x="227.025" y="200" type="line"/>
      <point x="227.025" y="400" type="line"/>
      <point x="47.025" y="400" type="line"/>
    </contour>
    <contour>
      <point x="47.025" y="400" type="line"/>
      <point x="227.025" y="400" type="line"/>
      <point x="227.025" y="600" type="line"/>
      <point x="47.025" y="600" type="line"/>
    </contour>
    <contour>
      <point x="47.025" y="600" type="line"/>
      <point x="227.025" y="600" type="line"/>
      <point x="227.025" y="800" type="line"/>
      <point x="47.025" y="800" type="line"/>
    </contour>
    <contour>
      <point x="454.525" y="180.0" type="line"/>
      <point x="355.1803" y="180.0"/>
      <point x="274.525" y="99.3447"/>
      <point x="274.525" y="0.0" type="curve"/>
      <point x="454.525" y="0.0" type="line"/>
    </contour>
  </outline>
</glyph>
<glyph name="T" format="2">
  <advance width="729.05"/>
  <unicode hex="0054"/>
  <outline>
    <contour>
      <point x="47.025" y="620.0" type="line"/>
      <point x="146.3697" y="620.0"/>
      <point x="227.025" y="700.6553"/>
      <point x="227.025" y="800.0" type="curve"/>
      <point x="47.025" y="800.0" type="line"/>
    </contour>
    <contour>
      <point x="274.525" y="0" type="line"/>
      <point x="454.525" y="0" type="line"/>
      <point x="454.525" y="200" type="line"/>
      <point x="274.525" y="200" type="line"/>
    </contour>
    <contour>
      <point x="274.525" y="200" type="line"/>
      <point x="454.525" y="200" type="line"/>
      <point x="454.525" y="400" type="line"/>
      <point x="274.525" y="400" type="line"/>
    </contour>
    <contour>
      <point x="274.525" y="400" type="line"/>
      <point x="454.525" y="400" type="line"/>
      <point x="454.525" y="600" type="line"/>
      <point x="274.525" y="600" type="line"/>
    </contour>
    <contour>
      <point x="274.525" y="600" type="line"/>
      <point x="454.525" y="600" type="line"/>
      <point x="454.525" y="800" type="line"/>
      <point x="274.525" y="800" type="line"/>
    </contour>
    <contour>
      <point x="502.025" y="800.0" type="line"/>
      <point x="502.025" y="700.6553"/>
      <point x="582.6803" y="620.0"/>
      <point x="682.025" y="620.0" type="curve"/>
      <point x="682.025" y="800.0" type="line"/>
    </contour>
  </outline>
</glyph>
<glyph name="X" format="2">
  <advance width="501.55"/>
  <unicode hex="0058"/>
  <outline>
    <contour>
      <point x="47.025" y="0" type="line"/>
      <point x="227.025" y="0" type="line"/>
      <point x="227.025" y="200" type="line"/>
      <point x="47.025" y="200" type="line"/>
    </contour>
    <contour>
      <point x="227.025" y="400.0" type="line"/>
      <point x="127.68029999999999" y="400.0"/>
      <point x="47.025" y="319.3447"/>
      <point x="47.025" y="220.0" type="curve"/>
      <point x="227.025" y="220.0" type="line"/>
    </contour>
    <contour>
      <point x="47.025" y="200" type="line"/>
      <point x="227.025" y="200" type="line"/>
      <point x="227.025" y="220.0" type="line"/>
      <point x="47.025" y="220.0" type="line"/>
    </contour>
    <contour>
      <point x="47.025" y="580.0" type="line"/>
      <point x="47.025" y="480.6553"/>
      <point x="127.68029999999999" y="400.0"/>
      <point x="227.025" y="400.0" type="curve"/>
      <point x="227.025" y="580.0" type="line"/>
    </contour>
    <contour>
      <point x="47.025" y="580.0" type="line"/>
      <point x="227.025" y="580.0" type="line"/>
      <point x="227.025" y="600.0" type="line"/>
      <point x="47.025" y="600.0" type="line"/>
    </contour>
    <contour>
      <point x="47.025" y="600" type="line"/>
      <point x="227.025" y="600" type="line"/>
      <point x="227.025" y="800" type="line"/>
      <point x="47.025" y="800" type="line"/>
    </contour>
    <contour>
      <point x="274.525" y="0" type="line"/>
      <point x="454.525" y="0" type="line"/>
      <point x="454.525" y="200" type="line"/>
      <point x="274.525" y="200" type="line"/>
    </contour>
    <contour>
      <point x="454.525" y="220.0" type="line"/>
      <point x="454.525" y="319.3447"/>
      <point x="373.86969999999997" y="400.0"/>
      <point x="274.525" y="400.0" type="curve"/>
      <point x="274.525" y="220.0" type="line"/>
    </contour>
    <contour>
      <point x="274.525" y="200" type="line"/>
      <point x="454.525" y="200" type="line"/>
      <point x="454.525" y="220.0" type="line"/>
      <point x="274.525" y="220.0" type="line"/>
    </contour>
    <contour>
      <point x="274.525" y="400.0" type="line"/>
      <point x="373.86969999999997" y="400.0"/>
      <point x="454.525" y="480.6553"/>
      <point x="454.525" y="580.0" type="curve"/>
      <point x="274.525" y="580.0" type="line"/>
    </contour>
    <contour>
      <point x="274.525" y="580.0" type="line"/>
      <point x="454.525" y="580.0" type="line"/>
      <point x="454.525" y="600.0" type="line"/>
      <point x="274.525" y="600.0" type="line"/>
    </contour>
    <contour>
      <point x="274.525" y="600" type="line"/>
      <point x="454.525" y="600" type="line"/>
      <point x="454.525" y="800" type="line"/>
      <point x="274.525" y="800" type="line"/>
    </contour>
  </outline>
</glyph>
<glyph name="Z" format="2">
  <advance width="501.55"/>
  <unicode hex="005A"/>
  <outline>
    <contour>
      <point x="47.025" y="0" type="line"/>
      <point x="227.025" y="0" type="line"/>
      <point x="227.025" y="200" type="line"/>
      <point x="47.025" y="200" type="line"/>
    </contour>
    <contour>
      <point x="47.025" y="100.0" type="line"/>
      <point x="227.025" y="100.0" type="line"/>
      <point x="227.025" y="300.0" type="line"/>
      <point x="47.025" y="300.0" type="line"/>
    </contour>
    <contour>
      <point x="227.025" y="490.0" type="line"/>
      <point x="127.68029999999999" y="490.0"/>
      <point x="47.025" y="409.3447"/>
      <point x="47.025" y="310.0" type="curve"/>
      <point x="227.025" y="310.0" type="line"/>
    </contour>
    <contour>
      <point x="47.025" y="300.0" type="line"/>
      <point x="227.025" y="300.0" type="line"/>
      <point x="227.025" y="310.0" type="line"/>
      <point x="47.025" y="310.0" type="line"/>
    </contour>
    <contour>
      <point x="47.025" y="620.0" type="line"/>
      <point x="146.3697" y="620.0"/>
      <point x="227.025" y="700.6553"/>
      <point x="227.025" y="800.0" type="curve"/>
      <point x="47.025" y="800.0" type="line"/>
    </contour>
    <contour>
      <point x="454.525" y="180.0" type="line"/>
      <point x="355.1803" y="180.0"/>
      <point x="274.525" y="99.3447"/>
      <point x="274.525" y="0.0" type="curve"/>
      <point x="454.525" y="0.0" type="line"/>
    </contour>
    <contour>
      <point x="274.525" y="310.0" type="line"/>
      <point x="373.86969999999997" y="310.0"/>
      <point x="454.525" y="390.6553"/>
      <point x="454.525" y="490.0" type="curve"/>
      <point x="274.525" y="490.0" type="line"/>
    </contour>
    <contour>
      <point x="274.525" y="490.0" type="line"/>
      <point x="454.525" y="490.0" type="line"/>
      <point x="454.525" y="500.0" type="line"/>
      <point x="274.525" y="500.0" type="line"/>
    </contour>
    <contour>
      <point x="274.525" y="500.0" type="line"/>
      <point x="454.525" y="500.0" type="line"/>
      <point x="454.525" y="700.0" type="line"/>
      <point x="274.525" y="700.0" type="line"/>
    </contour>
    <contour>
      <point x="274.525" y="600" type="line"/>
      <point x="454.525" y="600" type="line"/>
      <point x="454.525" y="800" type="line"/>
      <point x="274.525" y="800" type="line"/>
    </contour>
  </outline>
</glyph>
<glyph name="bracketleft" format="2">
  <advance width="454.05"/>
  <unicode hex="005B"/>
  <outline>
    <contour>
      <point x="47.025" y="-100.0" type="line"/>
      <point x="227.025" y="-100.0" type="line"/>
      <point x="227.025" y="100.0" type="line"/>
      <point x="47.025" y="100.0" type="line"/>
    </contour>
    <contour>
      <point x="47.025" y="100.0" type="line"/>
      <point x="227.025" y="100.0" type="line"/>
      <point x="227.025" y="300.0" type="line"/>
      <point x="47.025" y="300.0" type="line"/>
    </contour>
    <contour>
      <point x="47.025" y="300.0" type="line"/>
      <point x="227.025" y="300.0" type="line"/>
      <point x="227.025" y="500.0" type="line"/>
      <point x="47.025" y="500.0" type="line"/>
    </contour>
    <contour>
      <point x="47.025" y="500.0" type="line"/>
      <point x="227.025" y="500.0" type="line"/>
      <point x="227.025" y="700.0" type="line"/>
      <point x="47.025" y="700.0" type="line"/>
    </contour>
    <contour>
      <point x="47.025" y="700.0" type="line"/>
      <point x="227.025" y="700.0" type="line"/>
      <point x="227.025" y="900.0" type="line"/>
      <point x="47.025" y="900.0" type="line"/>
    </contour>
    <contour>
      <point x="407.025" y="-100.0" type="line"/>
      <point x="407.025" y="-0.6553"/>
      <point x="326.36969999999997" y="80.0"/>
      <point x="227.025" y="80.0" type="curve"/>
      <point x="227.025" y="-100.0" type="line"/>
    </contour>
    <contour>
      <point x="227.025" y="720.0" type="line"/>
      <point x="326.36969999999997" y="720.0"/>
      <point x="407.025" y="800.6553"/>
      <point x="407.025" y="900.0" type="curve"/>
      <point x="227.025" y="900.0" type="line"/>
    </contour>
  </outline>
</glyph>
<glyph name="backslash" format="2">
  <advance width="513.3191659323846"/>
  <unicode hex="005C"/>
  <outline>
    <contour>
      <point x="247.7145420425455" y="67.70497108311378" type="line"/>
      <point x="272.0284961246846" y="-28.61844795390772"/>
      <point x="369.97074689536316" y="-87.08100306530798"/>
      <point x="466.29416593238466" y="-62.76704898316888" type="curve"/>
      <point x="422.24036402060636" y="111.75877299489201" type="line"/>
    </contour>
    <contour>
      <point x="247.7145420425455" y="67.70497108311378" type="line"/>
      <point x="422.24036402060636" y="111.75877299489201" type="line"/>
      <point x="417.3454971415199" y="131.15053099245432" type="line"/>
      <point x="242.81967516345904" y="87.09672908067608" type="line"/>
    </contour>
    <contour>
      <point x="242.81967516345904" y="87.09672908067608" type="line"/>
      <point x="417.3454971415199" y="131.15053099245432" type="line"/>
      <point x="368.39682835065514" y="325.0681109680776" type="line"/>
      <point x="193.87100637259428" y="281.0143090562992" type="line"/>
    </contour>
    <contour>
      <point x="193.87100637259428" y="281.0143090562992" type="line"/>
      <point x="368.39682835065514" y="325.0681109680776" type="line"/>
      <point x="319.4481595597904" y="518.9856909437008" type="line"/>
      <point x="144.92233758172952" y="474.9318890319224" type="line"/>
    </contour>
    <contour>
      <point x="144.92233758172952" y="474.9318890319224" type="line"/>
      <point x="319.4481595597904" y="518.9856909437008" type="line"/>
      <point x="270.4994907689256" y="712.9032709193239" type="line"/>
      <point x="95.97366879086476" y="668.8494690075456" type="line"/>
    </contour>
    <contour>
      <point x="265.60462388983916" y="732.2950289168862" type="line"/>
      <point x="241.29066980770008" y="828.6184479539077"/>
      <point x="143.3484190370215" y="887.081003065308"/>
      <point x="47.025" y="862.7670489831689" type="curve"/>
      <point x="91.0788019117783" y="688.2412270051079" type="line"/>
    </contour>
    <contour>
      <point x="95.97366879086476" y="668.8494690075456" type="line"/>
      <point x="270.4994907689256" y="712.9032709193239" type="line"/>
      <point x="265.60462388983916" y="732.2950289168862" type="line"/>
      <point x="91.0788019117783" y="688.2412270051079" type="line"/>
    </contour>
  </outline>
</glyph>
<glyph name="asciicircum" format="2">
  <advance width="454.05"/>
  <unicode hex="005E"/>
  <outline>
    <contour>
      <point x="47.025" y="700.0" type="line"/>
      <point x="146.3697" y="700.0"/>
      <point x="227.025" y="780.6553"/>
      <point x="227.025" y="880.0" type="curve"/>
      <point x="47.025" y="880.0" type="line"/>
    </contour>
    <contour>
      <point x="227.025" y="880.0" type="line"/>
      <point x="227.025" y="780.6553"/>
      <point x="307.6803" y="700.0"/>
      <point x="407.025" y="700.0" type="curve"/>
      <point x="407.025" y="880.0" type="line"/>
    </contour>
  </outline>
</glyph>
<glyph name="underscore" format="2">
  <advance width="501.55"/>
  <unicode hex="005F"/>
  <outline>
    <contour>
      <point x="47.025" y="-190.0" type="line"/>
      <point x="227.025" y="-190.0" type="line"/>
      <point x="227.025" y="-10.0" type="line"/>
      <point x="47.025" y="-10.0" type="line"/>
    </contour>
    <contour>
      <point x="227.025" y="-190.0" type="line"/>
      <point x="274.525" y="-190.0" type="line"/>
      <point x="274.525" y="-10.0" type="line"/>
      <point x="227.025" y="-10.0" type="line"/>
    </contour>
    <contour>
      <point x="274.525" y="-190.0" type="line"/>
      <point x="454.525" y="-190.0" type="line"/>
      <point x="454.525" y="-10.0" type="line"/>
      <point x="274.525" y="-10.0" type="line"/>
    </contour>
  </outline>
</glyph>
<glyph name="grave" format="2">
  <advance width="274.05"/>
  <unicode hex="0060"/>
  <outline>
    <contour>
      <point x="-31.725" y="980.0" type="line"/>
      <point x="-31.725" y="880.6553"/>
      <point x="48.930299999999995" y="800.0"/>
      <point x="148.275" y="800.0" type="curve"/>
      <point x="148.275" y="980.0" type="line"/>
    </contour>
  </outline>
</glyph>
<glyph name="c" format="2">
  <advance width="501.55"/>
  <unicode hex="0063"/>
  <outline>
    <contour>
      <point x="47.025" y="180.0" type="line"/>
      <point x="47.025" y="80.6553"/>
      <point x="127.68029999999999" y="0.0"/>
      <point x="227.025" y="0.0" type="curve"/>
      <point x="227.025" y="180.0" type="line"/>
    </contour>
    <contour>
      <point x="47.025" y="180.0" type="line"/>
      <point x="227.025" y="180.0" type="line"/>
      <point x="227.025" y="200.0" type="line"/>
      <point x="47.025" y="200.0" type="line"/>
    </contour>
    <contour>
      <point x="47.025" y="200" type="line"/>
      <point x="227.025" y="200" type="line"/>
      <point x="227.025" y="405.0" type="line"/>
      <point x="47.025" y="405.0" type="line"/>
    </contour>
    <contour>
      <point x="227.025" y="605.0" type="line"/>
      <point x="127.68029999999999" y="605.0"/>
      <point x="47.025" y="524.3447"/>
      <point x="47.025" y="425.0" type="curve"/>
      <point x="227.025" y="425.0" type="line"/>
    </contour>
    <contour>
      <point x="47.025" y="405.0" type="line"/>
      <point x="227.025" y="405.0" type="line"/>
      <point x="227.025" y="425.0" type="line"/>
      <point x="47.025" y="425.0" type="line"/>
    </contour>
    <contour>
      <point x="451.7125" y="180.0" type="line"/>
      <point x="352.3678" y="180.0"/>
      <point x="271.7125" y="99.3447"/>
      <point x="271.7125" y="0.0" type="curve"/>
      <point x="451.7125" y="0.0" type="line"/>
    </contour>
    <contour>
      <point x="459.525" y="510.0" type="curve" smooth="yes"/>
      <point x="459.525" y="562.43193"/>
      <point x="416.95693" y="605.0"/>
      <point x="364.525" y="605.0" type="curve" smooth="yes"/>
      <point x="312.09306999999995" y="605.0"/>
      <point x="269.525" y="562.43193"/>
      <point x="269.525" y="510.0" type="curve" smooth="yes"/>
      <point x="269.525" y="457.56807"/>
      <point x="312.09306999999995" y="415.0"/>
      <point x="364.525" y="415.0" type="curve" smooth="yes"/>
      <point x="416.95693" y="415.0"/>
      <point x="459.525" y="457.56807"/>
    </contour>
  </outline>
</glyph>
<glyph name="d" format="2">
  <advance width="501.55"/>
  <unicode hex="0064"/>
  <outline>
    <contour>
      <point x="47.025" y="180.0" type="line"/>
      <point x="47.025" y="80.6553"/>
      <point x="127.68029999999999" y="0.0"/>
      <point x="227.025" y="0.0" type="curve"/>
      <point x="227.025" y="180.0" type="line"/>
    </contour>
    <contour>
      <point x="47.025" y="180.0" type="line"/>
      <point x="227.025" y="180.0" type="line"/>
      <point x="227.025" y="200.0" type="line"/>
      <point x="47.025" y="200.0" type="line"/>
    </contour>
    <contour>
      <point x="47.025" y="200" type="line"/>
      <point x="227.025" y="200" type="line"/>
      <point x="227.025" y="405.0" type="line"/>
      <point x="47.025" y="405.0" type="line"/>
    </contour>
    <contour>
      <point x="227.025" y="605.0" type="line"/>
      <point x="127.68029999999999" y="605.0"/>
      <point x="47.025" y="524.3447"/>
      <point x="47.025" y="425.0" type="curve"/>
      <point x="227.025" y="425.0" type="line"/>
    </contour>
    <contour>
      <point x="47.025" y="405.0" type="line"/>
      <point x="227.025" y="405.0" type="line"/>
      <point x="227.025" y="425.0" type="line"/>
      <point x="47.025" y="425.0" type="line"/>
    </contour>
    <contour>
      <point x="274.525" y="0" type="line"/>
      <point x="454.525" y="0" type="line"/>
      <point x="454.525" y="200" type="line"/>
      <point x="274.525" y="200" type="line"/>
    </contour>
    <contour>
      <point x="274.525" y="200" type="line"/>
      <point x="454.525" y="200" type="line"/>
      <point x="454.525" y="400" type="line"/>
      <point x="274.525" y="400" type="line"/>
    </contour>
    <contour>
      <point x="274.525" y="400" type="line"/>
      <point x="454.525" y="400" type="line"/>
      <point x="454.525" y="600" type="line"/>
      <point x="274.525" y="600" type="line"/>
    </contour>
    <contour>
      <point x="274.525" y="600" type="line"/>
      <point x="454.525" y="600" type="line"/>
      <point x="454.525" y="800" type="line"/>
      <point x="274.525" y="800" type="line"/>
    </contour>
  </outline>
</glyph>
<glyph name="e" format="2">
  <advance width="501.55"/>
  <unicode hex="0065"/>
  <outline>
    <contour>
      <point x="47.025" y="175.0" type="line"/>
      <point x="47.025" y="75.6553"/>
      <point x="127.68029999999999" y="-5.0"/>
      <point x="227.025" y="-5.0" type="curve"/>
      <point x="227.025" y="175.0" type="line"/>
    </contour>
    <contour>
      <point x="47.025" y="175.0" type="line"/>
      <point x="227.025" y="175.0" type="line"/>
      <point x="227.025" y="195.0" type="line"/>
      <point x="47.025" y="195.0" type="line"/>
    </contour>
    <contour>
      <point x="47.025" y="195.0" type="line"/>
      <point x="227.025" y="195.0" type="line"/>
      <point x="227.025" y="405.0" type="line"/>
      <point x="47.025" y="405.0" type="line"/>
    </contour>
    <contour>
      <point x="227.025" y="605.0" type="line"/>
      <point x="127.68029999999999" y="605.0"/>
      <point x="47.025" y="524.3447"/>
      <point x="47.025" y="425.0" type="curve"/>
      <point x="227.025" y="425.0" type="line"/>
    </contour>
    <contour>
      <point x="47.025" y="405.0" type="line"/>
      <point x="227.025" y="405.0" type="line"/>
      <point x="227.025" y="425.0" type="line"/>
      <point x="47.025" y="425.0" type="line"/>
    </contour>
    <contour>
      <point x="274.525" y="195.0" type="line"/>
      <point x="454.525" y="195.0" type="line"/>
      <point x="454.525" y="405.0" type="line"/>
      <point x="274.525" y="405.0" type="line"/>
    </contour>
    <contour>
      <point x="454.525" y="425.0" type="line"/>
      <point x="454.525" y="524.3447"/>
      <point x="373.86969999999997" y="605.0"/>
      <point x="274.525" y="605.0" type="curve"/>
      <point x="274.525" y="425.0" type="line"/>
    </contour>
    <contour>
      <point x="274.525" y="405.0" type="line"/>
      <point x="454.525" y="405.0" type="line"/>
      <point x="454.525" y="425.0" type="line"/>
      <point x="274.525" y="425.0" type="line"/>
    </contour>
  </outline>
</glyph>
<glyph name="f" format="2">
  <advance width="501.55"/>
  <unicode hex="0066"/>
  <outline>
    <contour>
      <point x="47.025" y="0" type="line"/>
      <point x="227.025" y="0" type="line"/>
      <point x="227.025" y="200" type="line"/>
      <point x="47.025" y="200" type="line"/>
    </contour>
    <contour>
      <point x="47.025" y="200" type="line"/>
      <point x="227.025" y="200" type="line"/>
      <point x="227.025" y="400" type="line"/>
      <point x="47.025" y="400" type="line"/>
    </contour>
    <contour>
      <point x="47.025" y="400" type="line"/>
      <point x="227.025" y="400" type="line"/>
      <point x="227.025" y="600" type="line"/>
      <point x="47.025" y="600" type="line"/>
    </contour>
    <contour>
      <point x="227.025" y="800.0" type="line"/>
      <point x="127.68029999999999" y="800.0"/>
      <point x="47.025" y="719.3447"/>
      <point x="47.025" y="620.0" type="curve"/>
      <point x="227.025" y="620.0" type="line"/>
    </contour>
    <contour>
      <point x="47.025" y="600" type="line"/>
      <point x="227.025" y="600" type="line"/>
      <point x="227.025" y="620.0" type="line"/>
      <point x="47.025" y="620.0" type="line"/>
    </contour>
    <contour>
      <point x="274.525" y="587.5" type="line"/>
      <point x="274.525" y="488.1553"/>
      <point x="355.1803" y="407.5"/>
      <point x="454.525" y="407.5" type="curve"/>
      <point x="454.525" y="587.5" type="line"/>
    </contour>
    <contour>
      <point x="274.525" y="800.0" type="line"/>
      <point x="274.525" y="700.6553"/>
      <point x="355.1803" y="620.0"/>
      <point x="454.525" y="620.0" type="curve"/>
      <point x="454.525" y="800.0" type="line"/>
    </contour>
  </outline>
</glyph>
<glyph name="i" format="2">
  <advance width="274.05"/>
  <unicode hex="0069"/>
  <outline>
    <contour>
      <point x="47.025" y="0" type="line"/>
      <point x="227.025" y="0" type="line"/>
      <point x="227.025" y="200" type="line"/>
      <point x="47.025" y="200" type="line"/>
    </contour>
    <contour>
      <point x="47.025" y="200" type="line"/>
      <point x="227.025" y="200" type="line"/>
      <point x="227.025" y="400" type="line"/>
      <point x="47.025" y="400" type="line"/>
    </contour>
    <contour>
      <point x="47.025" y="400" type="line"/>
      <point x="227.025" y="400" type="line"/>
      <point x="227.025" y="600" type="line"/>
      <point x="47.025" y="600" type="line"/>
    </contour>
    <contour>
      <point x="232.025" y="726.11111" type="curve" smooth="yes"/>
      <point x="232.025" y="778.54304"/>
      <point x="189.45693" y="821.11111"/>
      <point x="137.025" y="821.11111" type="curve" smooth="yes"/>
      <point x="84.59307" y="821.11111"/>
      <point x="42.025" y="778.54304"/>
      <point x="42.025" y="726.11111" type="curve" smooth="yes"/>
      <point x="42.025" y="673.67918"/>
      <point x="84.59307" y="631.11111"/>
      <point x="137.025" y="631.11111" type="curve" smooth="yes"/>
      <point x="189.45693" y="631.11111"/>
      <point x="232.025" y="673.67918"/>
    </contour>
  </outline>
</glyph>
<glyph name="j" format="2">
  <advance width="501.55"/>
  <unicode hex="006A"/>
  <outline>
    <contour>
      <point x="232.65" y="-120.0" type="curve" smooth="yes"/>
      <point x="232.65" y="-70.32765"/>
      <point x="192.32235" y="-30.0"/>
      <point x="142.65" y="-30.0" type="curve" smooth="yes"/>
      <point x="92.97765" y="-30.0"/>
      <point x="52.65" y="-70.32765"/>
      <point x="52.65" y="-120.0" type="curve" smooth="yes"/>
      <point x="52.65" y="-169.67235"/>
      <point x="92.97765" y="-210.0"/>
      <point x="142.65" y="-210.0" type="curve" smooth="yes"/>
      <point x="192.32235" y="-210.0"/>
      <point x="232.65" y="-169.67235"/>
    </contour>
    <contour>
      <point x="274.525" y="-210.0" type="line"/>
      <point x="373.86969999999997" y="-210.0"/>
      <point x="454.525" y="-129.3447"/>
      <point x="454.525" y="-30.0" type="curve"/>
      <point x="274.525" y="-30.0" type="line"/>
    </contour>
    <contour>
      <point x="274.525" y="-30.0" type="line"/>
      <point x="454.525" y="-30.0" type="line"/>
      <point x="454.525" y="-10.0" type="line"/>
      <point x="274.525" y="-10.0" type="line"/>
    </contour>
    <contour>
      <point x="274.525" y="-10.0" type="line"/>
      <point x="454.525" y="-10.0" type="line"/>
      <point x="454.525" y="200.0" type="line"/>
      <point x="274.525" y="200.0" type="line"/>
    </contour>
    <contour>
      <point x="274.525" y="200" type="line"/>
      <point x="454.525" y="200" type="line"/>
      <point x="454.525" y="400" type="line"/>
      <point x="274.525" y="400" type="line"/>
    </contour>
    <contour>
      <point x="274.525" y="400" type="line"/>
      <point x="454.525" y="400" type="line"/>
      <point x="454.525" y="600" type="line"/>
      <point x="274.525" y="600" type="line"/>
    </contour>
    <contour>
      <point x="459.525" y="726.11111" type="curve" smooth="yes"/>
      <point x="459.525" y="778.54304"/>
      <point x="416.95693" y="821.11111"/>
      <point x="364.525" y="821.11111" type="curve" smooth="yes"/>
      <point x="312.09306999999995" y="821.11111"/>
      <point x="269.525" y="778.54304"/>
      <point x="269.525" y="726.11111" type="curve" smooth="yes"/>
      <point x="269.525" y="673.67918"/>
      <point x="312.09306999999995" y="631.11111"/>
      <point x="364.525" y="631.11111" type="curve" smooth="yes"/>
      <point x="416.95693" y="631.11111"/>
      <point x="459.525" y="673.67918"/>
    </contour>
  </outline>
</glyph>
<glyph name="l" format="2">
  <advance width="274.05"/>
  <unicode hex="006C"/>
  <outline>
    <contour>
      <point x="47.025" y="175.0" type="line"/>
      <point x="47.025" y="75.6553"/>
      <point x="127.68029999999999" y="-5.0"/>
      <point x="227.025" y="-5.0" type="curve"/>
      <point x="227.025" y="175.0" type="line"/>
    </contour>
    <contour>
      <point x="47.025" y="175.0" type="line"/>
      <point x="227.025" y="175.0" type="line"/>
      <point x="227.025" y="195.0" type="line"/>
      <point x="47.025" y="195.0" type="line"/>
    </contour>
    <contour>
      <point x="47.025" y="195.0" type="line"/>
      <point x="227.025" y="195.0" type="line"/>
      <point x="227.025" y="400.0" type="line"/>
      <point x="47.025" y="400.0" type="line"/>
    </contour>
    <contour>
      <point x="47.025" y="400" type="line"/>
      <point x="227.025" y="400" type="line"/>
      <point x="227.025" y="600" type="line"/>
      <point x="47.025" y="600" type="line"/>
    </contour>
    <contour>
      <point x="47.025" y="600" type="line"/>
      <point x="227.025" y="600" type="line"/>
      <point x="227.025" y="800" type="line"/>
      <point x="47.025" y="800" type="line"/>
    </contour>
  </outline>
</glyph>
<glyph name="m" format="2">
  <advance width="729.05"/>
  <unicode hex="006D"/>
  <outline>
    <contour>
      <point x="47.025" y="0" type="line"/>
      <point x="227.025" y="0" type="line"/>
      <point x="227.025" y="200" type="line"/>
      <point x="47.025" y="200" type="line"/>
    </contour>
    <contour>
      <point x="47.025" y="200" type="line"/>
      <point x="227.025" y="200" type="line"/>
      <point x="227.025" y="400" type="line"/>
      <point x="47.025" y="400" type="line"/>
    </contour>
    <contour>
      <point x="47.025" y="400" type="line"/>
      <point x="227.025" y="400" type="line"/>
      <point x="227.025" y="600" type="line"/>
      <point x="47.025" y="600" type="line"/>
    </contour>
    <contour>
      <point x="274.525" y="0" type="line"/>
      <point x="454.525" y="0" type="line"/>
      <point x="454.525" y="200" type="line"/>
      <point x="274.525" y="200" type="line"/>
    </contour>
    <contour>
      <point x="274.525" y="200" type="line"/>
      <point x="454.525" y="200" type="line"/>
      <point x="454.525" y="400" type="line"/>
      <point x="274.525" y="400" type="line"/>
    </contour>
    <contour>
      <point x="274.525" y="400" type="line"/>
      <point x="454.525" y="400" type="line"/>
      <point x="454.525" y="600" type="line"/>
      <point x="274.525" y="600" type="line"/>
    </contour>
    <contour>
      <point x="502.025" y="0" type="line"/>
      <point x="682.025" y="0" type="line"/>
      <point x="682.025" y="200" type="line"/>
      <point x="502.025" y="200" type="line"/>
    </contour>
    <contour>
      <point x="502.025" y="200" type="line"/>
      <point x="682.025" y="200" type="line"/>
      <point x="682.025" y="400" type="line"/>
      <point x="502.025" y="400" type="line"/>
    </contour>
    <contour>
      <point x="682.025" y="420.0" type="line"/>
      <point x="682.025" y="519.3447"/>
      <point x="601.3697" y="600.0"/>
      <point x="502.025" y="600.0" type="curve"/>
      <point x="502.025" y="420.0" type="line"/>
    </contour>
    <contour>
      <point x="502.025" y="400" type="line"/>
      <point x="682.025" y="400" type="line"/>
      <point x="682.025" y="420.0" type="line"/>
      <point x="502.025" y="420.0" type="line"/>
    </contour>
  </outline>
</glyph>
<glyph name="n" format="2">
  <advance width="501.55"/>
  <unicode hex="006E"/>
  <outline>
    <contour>
      <point x="47.025" y="0" type="line"/>
      <point x="227.025" y="0" type="line"/>
      <point x="227.025" y="200" type="line"/>
      <point x="47.025" y="200" type="line"/>
    </contour>
    <contour>
      <point x="47.025" y="200" type="line"/>
      <point x="227.025" y="200" type="line"/>
      <point x="227.025" y="400" type="line"/>
      <point x="47.025" y="400" type="line"/>
    </contour>
    <contour>
      <point x="47.025" y="400" type="line"/>
      <point x="227.025" y="400" type="line"/>
      <point x="227.025" y="600" type="line"/>
      <point x="47.025" y="600" type="line"/>
    </contour>
    <contour>
      <point x="274.525" y="0" type="line"/>
      <point x="454.525" y="0" type="line"/>
      <point x="454.525" y="200" type="line"/>
      <point x="274.525" y="200" type="line"/>
    </contour>
    <contour>
      <point x="274.525" y="200" type="line"/>
      <point x="454.525" y="200" type="line"/>
      <point x="454.525" y="400" type="line"/>
      <point x="274.525" y="400" type="line"/>
    </contour>
    <contour>
      <point x="454.525" y="420.0" type="line"/>
      <point x="454.525" y="519.3447"/>
      <point x="373.86969999999997" y="600.0"/>
      <point x="274.525" y="600.0" type="curve"/>
      <point x="274.525" y="420.0" type="line"/>
    </contour>
    <contour>
      <point x="274.525" y="400" type="line"/>
      <point x="454.525" y="400" type="line"/>
      <point x="454.525" y="420.0" type="line"/>
      <point x="274.525" y="420.0" type="line"/>
    </contour>
  </outline>
</glyph>
<glyph name="p" format="2">
  <advance width="501.55"/>
  <unicode hex="0070"/>
  <outline>
    <contour>
      <point x="47.025" y="-200" type="line"/>
      <point x="227.025" y="-200" type="line"/>
      <point x="227.025" y="0" type="line"/>
      <point x="47.025" y="0" type="line"/>
    </contour>
    <contour>
      <point x="47.025" y="0" type="line"/>
      <point x="227.025" y="0" type="line"/>
      <point x="227.025" y="200" type="line"/>
      <point x="47.025" y="200" type="line"/>
    </contour>
    <contour>
      <point x="47.025" y="200" type="line"/>
      <point x="227.025" y="200" type="line"/>
      <point x="227.025" y="400" type="line"/>
      <point x="47.025" y="400" type="line"/>
    </contour>
    <contour>
      <point x="47.025" y="400" type="line"/>
      <point x="227.025" y="400" type="line"/>
      <point x="227.025" y="600" type="line"/>
      <point x="47.025" y="600" type="line"/>
    </contour>
    <contour>
      <point x="274.525" y="0.0" type="line"/>
      <point x="373.86969999999997" y="0.0"/>
      <point x="454.525" y="80.6553"/>
      <point x="454.525" y="180.0" type="curve"/>
      <point x="274.525" y="180.0" type="line"/>
    </contour>
    <contour>
      <point x="274.525" y="180.0" type="line"/>
      <point x="454.525" y="180.0" type="line"/>
      <point x="454.525" y="200.0" type="line"/>
      <point x="274.525" y="200.0" type="line"/>
    </contour>
    <contour>
      <point x="274.525" y="200" type="line"/>
      <point x="454.525" y="200" type="line"/>
      <point x="454.525" y="400" type="line"/>
      <point x="274.525" y="400" type="line"/>
    </contour>
    <contour>
      <point x="454.525" y="420.0" type="line"/>
      <point x="454.525" y="519.3447"/>
      <point x="373.86969999999997" y="600.0"/>
      <point x="274.525" y="600.0" type="curve"/>
      <point x="274.525" y="420.0" type="line"/>
    </contour>
    <contour>
      <point x="274.525" y="400" type="line"/>
      <point x="454.525" y="400" type="line"/>
      <point x="454.525" y="420.0" type="line"/>
      <point x="274.525" y="420.0" type="line"/>
    </contour>
  </outline>
</glyph>
<glyph name="q" format="2">
  <advance width="501.55"/>
  <unicode hex="0071"/>
  <outline>
    <contour>
      <point x="47.025" y="180.0" type="line"/>
      <point x="47.025" y="80.6553"/>
      <point x="127.68029999999999" y="0.0"/>
      <point x="227.025" y="0.0" type="curve"/>
      <point x="227.025" y="180.0" type="line"/>
    </contour>
    <contour>
      <point x="47.025" y="180.0" type="line"/>
      <point x="227.025" y="180.0" type="line"/>
      <point x="227.025" y="200.0" type="line"/>
      <point x="47.025" y="200.0" type="line"/>
    </contour>
    <contour>
      <point x="47.025" y="200" type="line"/>
      <point x="227.025" y="200" type="line"/>
      <point x="227.025" y="400" type="line"/>
      <point x="47.025" y="400" type="line"/>
    </contour>
    <contour>
      <point x="227.025" y="600.0" type="line"/>
      <point x="127.68029999999999" y="600.0"/>
      <point x="47.025" y="519.3447"/>
      <point x="47.025" y="420.0" type="curve"/>
      <point x="227.025" y="420.0" type="line"/>
    </contour>
    <contour>
      <point x="47.025" y="400" type="line"/>
      <point x="227.025" y="400" type="line"/>
      <point x="227.025" y="420.0" type="line"/>
      <point x="47.025" y="420.0" type="line"/>
    </contour>
    <contour>
      <point x="274.525" y="-200" type="line"/>
      <point x="454.525" y="-200" type="line"/>
      <point x="454.525" y="0" type="line"/>
      <point x="274.525" y="0" type="line"/>
    </contour>
    <contour>
      <point x="274.525" y="0" type="line"/>
      <point x="454.525" y="0" type="line"/>
      <point x="454.525" y="200" type="line"/>
      <point x="274.525" y="200" type="line"/>
    </contour>
    <contour>
      <point x="274.525" y="200" type="line"/>
      <point x="454.525" y="200" type="line"/>
      <point x="454.525" y="400" type="line"/>
      <point x="274.525" y="400" type="line"/>
    </contour>
    <contour>
      <point x="274.525" y="400" type="line"/>
      <point x="454.525" y="400" type="line"/>
      <point x="454.525" y="600" type="line"/>
      <point x="274.525" y="600" type="line"/>
    </contour>
  </outline>
</glyph>
<glyph name="v" format="2">
  <advance width="501.55"/>
  <unicode hex="0076"/>
  <outline>
    <contour>
      <point x="47.025" y="175.0" type="line"/>
      <point x="47.025" y="75.6553"/>
      <point x="127.68029999999999" y="-5.0"/>
      <point x="227.025" y="-5.0" type="curve"/>
      <point x="227.025" y="175.0" type="line"/>
    </contour>
    <contour>
      <point x="47.025" y="175.0" type="line"/>
      <point x="227.025" y="175.0" type="line"/>
      <point x="227.025" y="195.0" type="line"/>
      <point x="47.025" y="195.0" type="line"/>
    </contour>
    <contour>
      <point x="47.025" y="195.0" type="line"/>
      <point x="227.025" y="195.0" type="line"/>
      <point x="227.025" y="405.0" type="line"/>
      <point x="47.025" y="405.0" type="line"/>
    </contour>
    <contour>
      <point x="227.025" y="425.0" type="line"/>
      <point x="227.025" y="524.3447"/>
      <point x="146.3697" y="605.0"/>
      <point x="47.025" y="605.0" type="curve"/>
      <point x="47.025" y="425.0" type="line"/>
    </contour>
    <contour>
      <point x="47.025" y="405.0" type="line"/>
      <point x="227.025" y="405.0" type="line"/>
      <point x="227.025" y="425.0" type="line"/>
      <point x="47.025" y="425.0" type="line"/>
    </contour>
    <contour>
      <point x="274.525" y="-5.0" type="line"/>
      <point x="373.86969999999997" y="-5.0"/>
      <point x="454.525" y="75.6553"/>
      <point x="454.525" y="175.0" type="curve"/>
      <point x="274.525" y="175.0" type="line"/>
    </contour>
    <contour>
      <point x="274.525" y="175.0" type="line"/>
      <point x="454.525" y="175.0" type="line"/>
      <point x="454.525" y="195.0" type="line"/>
      <point x="274.525" y="195.0" type="line"/>
    </contour>
    <contour>
      <point x="274.525" y="195.0" type="line"/>
      <point x="454.525" y="195.0" type="line"/>
      <point x="454.525" y="400.0" type="line"/>
      <point x="274.525" y="400.0" type="line"/>
    </contour>
    <contour>
      <point x="274.525" y="400" type="line"/>
      <point x="454.525" y="400" type="line"/>
      <point x="454.525" y="600" type="line"/>
      <point x="274.525" y="600" type="line"/>
    </contour>
  </outline>
</glyph>
<glyph name="w" format="2">
  <advance width="729.05"/>
  <unicode hex="0077"/>
  <outline>
    <contour>
      <point x="47.025" y="180.0" type="line"/>
      <point x="47.025" y="80.6553"/>
      <point x="127.68029999999999" y="0.0"/>
      <point x="227.025" y="0.0" type="curve"/>
      <point x="227.025" y="180.0" type="line"/>
    </contour>
    <contour>
      <point x="47.025" y="180.0" type="line"/>
      <point x="227.025" y="180.0" type="line"/>
      <point x="227.025" y="200.0" type="line"/>
      <point x="47.025" y="200.0" type="line"/>
    </contour>
    <contour>
      <point x="47.025" y="200" type="line"/>
      <point x="227.025" y="200" type="line"/>
      <point x="227.025" y="400" type="line"/>
      <point x="47.025" y="400" type="line"/>
    </contour>
    <contour>
      <point x="227.025" y="420.0" type="line"/>
      <point x="227.025" y="519.3447"/>
      <point x="146.3697" y="600.0"/>
      <point x="47.025" y="600.0" type="curve"/>
      <point x="47.025" y="420.0" type="line"/>
    </contour>
    <contour>
      <point x="47.025" y="400" type="line"/>
      <point x="227.025" y="400" type="line"/>
      <point x="227.025" y="420.0" type="line"/>
      <point x="47.025" y="420.0" type="line"/>
    </contour>
    <contour>
      <point x="274.525" y="0" type="line"/>
      <point x="454.525" y="0" type="line"/>
      <point x="454.525" y="200" type="line"/>
      <point x="274.525" y="200" type="line"/>
    </contour>
    <contour>
      <point x="274.525" y="200" type="line"/>
      <point x="454.525" y="200" type="line"/>
      <point x="454.525" y="400" type="line"/>
      <point x="274.525" y="400" type="line"/>
    </contour>
    <contour>
      <point x="454.525" y="420.0" type="line"/>
      <point x="454.525" y="519.3447"/>
      <point x="373.86969999999997" y="600.0"/>
      <point x="274.525" y="600.0" type="curve"/>
      <point x="274.525" y="420.0" type="line"/>
    </contour>
    <contour>
      <point x="274.525" y="400" type="line"/>
      <point x="454.525" y="400" type="line"/>
      <point x="454.525" y="420.0" type="line"/>
      <point x="274.525" y="420.0" type="line"/>
    </contour>
    <contour>
      <point x="502.025" y="0.0" type="line"/>
      <point x="601.3697" y="0.0"/>
      <point x="682.025" y="80.6553"/>
      <point x="682.025" y="180.0" type="curve"/>
      <point x="502.025" y="180.0" type="line"/>
    </contour>
    <contour>
      <point x="502.025" y="180.0" type="line"/>
      <point x="682.025" y="180.0" type="line"/>
      <point x="682.025" y="200.0" type="line"/>
      <point x="502.025" y="200.0" type="line"/>
    </contour>
    <contour>
      <point x="502.025" y="200" type="line"/>
      <point x="682.025" y="200" type="line"/>
      <point x="682.025" y="400" type="line"/>
      <point x="502.025" y="400" type="line"/>
    </contour>
    <contour>
      <point x="502.025" y="400" type="line"/>
      <point x="682.025" y="400" type="line"/>
      <point x="682.025" y="600" type="line"/>
      <point x="502.025" y="600" type="line"/>
    </contour>
  </outline>
</glyph>
<glyph name="x" format="2">
  <advance width="501.55"/>
  <unicode hex="0078"/>
  <outline>
    <contour>
      <point x="47.025" y="0" type="line"/>
      <point x="227.025" y="0" type="line"/>
      <point x="227.025" y="100.0" type="line"/>
      <point x="47.025" y="100.0" type="line"/>
    </contour>
    <contour>
      <point x="227.025" y="300.0" type="line"/>
      <point x="127.68029999999999" y="300.0"/>
      <point x="47.025" y="219.3447"/>
      <point x="47.025" y="120.0" type="curve"/>
      <point x="227.025" y="120.0" type="line"/>
    </contour>
    <contour>
      <point x="47.025" y="100.0" type="line"/>
      <point x="227.025" y="100.0" type="line"/>
      <point x="227.025" y="120.0" type="line"/>
      <point x="47.025" y="120.0" type="line"/>
    </contour>
    <contour>
      <point x="47.025" y="480.0" type="line"/>
      <point x="47.025" y="380.6553"/>
      <point x="127.68029999999999" y="300.0"/>
      <point x="227.025" y="300.0" type="curve"/>
      <point x="227.025" y="480.0" type="line"/>
    </contour>
    <contour>
      <point x="47.025" y="480.0" type="line"/>
      <point x="227.025" y="480.0" type="line"/>
      <point x="227.025" y="500.0" type="line"/>
      <point x="47.025" y="500.0" type="line"/>
    </contour>
    <contour>
      <point x="47.025" y="500.0" type="line"/>
      <point x="227.025" y="500.0" type="line"/>
      <point x="227.025" y="600.0" type="line"/>
      <point x="47.025" y="600.0" type="line"/>
    </contour>
    <contour>
      <point x="274.525" y="0" type="line"/>
      <point x="454.525" y="0" type="line"/>
      <point x="454.525" y="100.0" type="line"/>
      <point x="274.525" y="100.0" type="line"/>
    </contour>
    <contour>
      <point x="454.525" y="120.0" type="line"/>
      <point x="454.525" y="219.3447"/>
      <point x="373.86969999999997" y="300.0"/>
      <point x="274.525" y="300.0" type="curve"/>
      <point x="274.525" y="120.0" type="line"/>
    </contour>
    <contour>
      <point x="274.525" y="100.0" type="line"/>
      <point x="454.525" y="100.0" type="line"/>
      <point x="454.525" y="120.0" type="line"/>
      <point x="274.525" y="120.0" type="line"/>
    </contour>
    <contour>
      <point x="274.525" y="300.0" type="line"/>
      <point x="373.86969999999997" y="300.0"/>
      <point x="454.525" y="380.6553"/>
      <point x="454.525" y="480.0" type="curve"/>
      <point x="274.525" y="480.0" type="line"/>
    </contour>
    <contour>
      <point x="274.525" y="480.0" type="line"/>
      <point x="454.525" y="480.0" type="line"/>
      <point x="454.525" y="500.0" type="line"/>
      <point x="274.525" y="500.0" type="line"/>
    </contour>
    <contour>
      <point x="274.525" y="500.0" type="line"/>
      <point x="454.525" y="500.0" type="line"/>
      <point x="454.525" y="600.0" type="line"/>
      <point x="274.525" y="600.0" type="line"/>
    </contour>
  </outline>
</glyph>
<glyph name="braceleft" format="2">
  <advance width="274.05"/>
  <unicode hex="007B"/>
  <outline>
    <contour>
      <point x="47.025" y="80.0" type="line"/>
      <point x="47.025" y="-19.3447"/>
      <point x="127.68029999999999" y="-100.0"/>
      <point x="227.025" y="-100.0" type="curve"/>
      <point x="227.025" y="80.0" type="line"/>
    </contour>
    <contour>
      <point x="47.025" y="80.0" type="line"/>
      <point x="227.025" y="80.0" type="line"/>
      <point x="227.025" y="100.0" type="line"/>
      <point x="47.025" y="100.0" type="line"/>
    </contour>
    <contour>
      <point x="47.025" y="100.0" type="line"/>
      <point x="227.025" y="100.0" type="line"/>
      <point x="227.025" y="200.0" type="line"/>
      <point x="47.025" y="200.0" type="line"/>
    </contour>
    <contour>
      <point x="227.025" y="220.0" type="line"/>
      <point x="227.025" y="319.3447"/>
      <point x="146.3697" y="400.0"/>
      <point x="47.025" y="400.0" type="curve"/>
      <point x="47.025" y="220.0" type="line"/>
    </contour>
    <contour>
      <point x="47.025" y="200" type="line"/>
      <point x="227.025" y="200" type="line"/>
      <point x="227.025" y="220.0" type="line"/>
      <point x="47.025" y="220.0" type="line"/>
    </contour>
    <contour>
      <point x="47.025" y="400.0" type="line"/>
      <point x="146.3697" y="400.0"/>
      <point x="227.025" y="480.6553"/>
      <point x="227.025" y="580.0" type="curve"/>
      <point x="47.025" y="580.0" type="line"/>
    </contour>
    <contour>
      <point x="47.025" y="580.0" type="line"/>
      <point x="227.025" y="580.0" type="line"/>
      <point x="227.025" y="600.0" type="line"/>
      <point x="47.025" y="600.0" type="line"/>
    </contour>
    <contour>
      <point x="47.025" y="600" type="line"/>
      <point x="227.025" y="600" type="line"/>
      <point x="227.025" y="700.0" type="line"/>
      <point x="47.025" y="700.0" type="line"/>
    </contour>
    <contour>
      <point x="227.025" y="900.0" type="line"/>
      <point x="127.68029999999999" y="900.0"/>
      <point x="47.025" y="819.3447"/>
      <point x="47.025" y="720.0" type="curve"/>
      <point x="227.025" y="720.0" type="line"/>
    </contour>
    <contour>
      <point x="47.025" y="700.0" type="line"/>
      <point x="227.025" y="700.0" type="line"/>
      <point x="227.025" y="720.0" type="line"/>
      <point x="47.025" y="720.0" type="line"/>
    </contour>
  </outline>
</glyph>
<glyph name="invexclamation" format="2">
  <advance width="274.05"/>
  <unicode hex="00A1"/>
  <outline>
    <contour>
      <point x="47.025" y="-200" type="line"/>
      <point x="227.025" y="-200" type="line"/>
      <point x="227.025" y="0" type="line"/>
      <point x="47.025" y="0" type="line"/>
    </contour>
    <contour>
      <point x="47.025" y="0" type="line"/>
      <point x="227.025" y="0" type="line"/>
      <point x="227.025" y="200" type="line"/>
      <point x="47.025" y="200" type="line"/>
    </contour>
    <contour>
      <point x="47.025" y="200" type="line"/>
      <point x="227.025" y="200" type="line"/>
      <point x="227.025" y="391.66667" type="line"/>
      <point x="47.025" y="391.66667" type="line"/>
    </contour>
    <contour>
      <point x="232.025" y="516.25" type="curve" smooth="yes"/>
      <point x="232.025" y="568.68193"/>
      <point x="189.45693" y="611.25"/>
      <point x="137.025" y="611.25" type="curve" smooth="yes"/>
      <point x="84.59307" y="611.25"/>
      <point x="42.025" y="568.68193"/>
      <point x="42.025" y="516.25" type="curve" smooth="yes"/>
      <point x="42.025" y="463.81807"/>
      <point x="84.59307" y="421.25"/>
      <point x="137.025" y="421.25" type="curve" smooth="yes"/>
      <point x="189.45693" y="421.25"/>
      <point x="232.025" y="463.81807"/>
    </contour>
  </outline>
</glyph>
<glyph name="cent" format="2">
  <advance width="501.55"/>
  <unicode hex="00A2"/>
  <outline>
    <contour>
      <point x="137.025" y="0" type="line"/>
      <point x="227.025" y="0" type="line"/>
      <point x="227.025" y="100.0" type="line"/>
      <point x="137.025" y="100.0" type="line"/>
    </contour>
    <contour>
      <point x="137.025" y="100.0" type="line"/>
      <point x="227.025" y="100.0" type="line"/>
      <point x="227.025" y="200.0" type="line"/>
      <point x="137.025" y="200.0" type="line"/>
    </contour>
    <contour>
      <point x="47.025" y="280.0" type="line"/>
      <point x="47.025" y="180.6553"/>
      <point x="127.68029999999999" y="100.0"/>
      <point x="227.025" y="100.0" type="curve"/>
      <point x="227.025" y="280.0" type="line"/>
    </contour>
    <contour>
      <point x="47.025" y="280.0" type="line"/>
      <point x="227.025" y="280.0" type="line"/>
      <point x="227.025" y="300.0" type="line"/>
      <point x="47.025" y="300.0" type="line"/>
    </contour>
    <contour>
      <point x="227.025" y="500.0" type="line"/>
      <point x="127.68029999999999" y="500.0"/>
      <point x="47.025" y="419.3447"/>
      <point x="47.025" y="320.0" type="curve"/>
      <point x="227.025" y="320.0" type="line"/>
    </contour>
    <contour>
      <point x="47.025" y="300.0" type="line"/>
      <point x="227.025" y="300.0" type="line"/>
      <point x="227.025" y="320.0" type="line"/>
      <point x="47.025" y="320.0" type="line"/>
    </contour>
    <contour>
      <point x="137.025" y="400" type="line"/>
      <point x="227.025" y="400" type="line"/>
      <point x="227.025" y="500.0" type="line"/>
      <point x="137.025" y="500.0" type="line"/>
    </contour>
    <contour>
      <point x="137.025" y="500.0" type="line"/>
      <point x="227.025" y="500.0" type="line"/>
      <point x="227.025" y="600.0" type="line"/>
      <point x="137.025" y="600.0" type="line"/>
    </contour>
    <contour>
      <point x="274.525" y="0" type="line"/>
      <point x="364.525" y="0" type="line"/>
      <point x="364.525" y="100.0" type="line"/>
      <point x="274.525" y="100.0" type="line"/>
    </contour>
    <contour>
      <point x="454.525" y="280.0" type="line"/>
      <point x="355.1803" y="280.0"/>
      <point x="274.525" y="199.3447"/>
      <point x="274.525" y="100.0" type="curve"/>
      <point x="454.525" y="100.0" type="line"/>
    </contour>
    <contour>
      <point x="274.525" y="500.0" type="line"/>
      <point x="274.525" y="400.6553"/>
      <point x="355.1803" y="320.0"/>
      <point x="454.525" y="320.0" type="curve"/>
      <point x="454.525" y="500.0" type="line"/>
    </contour>
    <contour>
      <point x="274.525" y="500.0" type="line"/>
      <point x="364.525" y="500.0" type="line"/>
      <point x="364.525" y="600.0" type="line"/>
      <point x="274.525" y="600.0" type="line"/>
    </contour>
  </outline>
</glyph>
<glyph name="pound" format="2">
  <advance width="644.05"/>
  <unicode hex="00A3"/>
  <outline>
    <contour>
      <point x="47.025" y="0" type="line"/>
      <point x="137.025" y="0" type="line"/>
      <point x="137.025" y="90.0" type="line"/>
      <point x="47.025" y="90.0" type="line"/>
    </contour>
    <contour>
      <point x="47.025" y="355.0" type="line"/>
      <point x="137.025" y="355.0" type="line"/>
      <point x="137.025" y="445.0" type="line"/>
      <point x="47.025" y="445.0" type="line"/>
    </contour>
    <contour>
      <point x="184.525" y="0" type="line"/>
      <point x="364.525" y="0" type="line"/>
      <point x="364.525" y="200" type="line"/>
      <point x="184.525" y="200" type="line"/>
    </contour>
    <contour>
      <point x="184.525" y="200" type="line"/>
      <point x="364.525" y="200" type="line"/>
      <point x="364.525" y="400" type="line"/>
      <point x="184.525" y="400" type="line"/>
    </contour>
    <contour>
      <point x="184.525" y="400" type="line"/>
      <point x="364.525" y="400" type="line"/>
      <point x="364.525" y="605.0" type="line"/>
      <point x="184.525" y="605.0" type="line"/>
    </contour>
    <contour>
      <point x="364.525" y="805.0" type="line"/>
      <point x="265.1803" y="805.0"/>
      <point x="184.525" y="724.3447"/>
      <point x="184.525" y="625.0" type="curve"/>
      <point x="364.525" y="625.0" type="line"/>
    </contour>
    <contour>
      <point x="184.525" y="605.0" type="line"/>
      <point x="364.525" y="605.0" type="line"/>
      <point x="364.525" y="625.0" type="line"/>
      <point x="184.525" y="625.0" type="line"/>
    </contour>
    <contour>
      <point x="592.025" y="180.0" type="line"/>
      <point x="492.6803" y="180.0"/>
      <point x="412.025" y="99.3447"/>
      <point x="412.025" y="0.0" type="curve"/>
      <point x="592.025" y="0.0" type="line"/>
    </contour>
    <contour>
      <point x="412.025" y="355.0" type="line"/>
      <point x="502.025" y="355.0" type="line"/>
      <point x="502.025" y="445.0" type="line"/>
      <point x="412.025" y="445.0" type="line"/>
    </contour>
    <contour>
      <point x="457.025" y="355.0" type="line"/>
      <point x="547.025" y="355.0" type="line"/>
      <point x="547.025" y="445.0" type="line"/>
      <point x="457.025" y="445.0" type="line"/>
    </contour>
    <contour>
      <point x="597.025" y="710.0" type="curve" smooth="yes"/>
      <point x="597.025" y="762.43193"/>
      <point x="554.4569299999999" y="805.0"/>
      <point x="502.025" y="805.0" type="curve" smooth="yes"/>
      <point x="449.59306999999995" y="805.0"/>
      <point x="407.025" y="762.43193"/>
      <point x="407.025" y="710.0" type="curve" smooth="yes"/>
      <point x="407.025" y="657.56807"/>
      <point x="449.59306999999995" y="615.0"/>
      <point x="502.025" y="615.0" type="curve" smooth="yes"/>
      <point x="554.4569299999999" y="615.0"/>
      <point x="597.025" y="657.56807"/>
    </contour>
  </outline>
</glyph>
<glyph name="currency" format="2">
  <advance width="501.55"/>
  <unicode hex="00A4"/>
  <outline>
    <contour>
      <point x="47.025" y="390.0" type="line"/>
      <point x="47.025" y="290.6553"/>
      <point x="127.68029999999999" y="210.0"/>
      <point x="227.025" y="210.0" type="curve"/>
      <point x="227.025" y="390.0" type="line"/>
    </contour>
    <contour>
      <point x="47.025" y="390.0" type="line"/>
      <point x="227.025" y="390.0" type="line"/>
      <point x="227.025" y="400.0" type="line"/>
      <point x="47.025" y="400.0" type="line"/>
    </contour>
    <contour>
      <point x="227.025" y="590.0" type="line"/>
      <point x="127.68029999999999" y="590.0"/>
      <point x="47.025" y="509.3447"/>
      <point x="47.025" y="410.0" type="curve"/>
      <point x="227.025" y="410.0" type="line"/>
    </contour>
    <contour>
      <point x="47.025" y="400" type="line"/>
      <point x="227.025" y="400" type="line"/>
      <point x="227.025" y="410.0" type="line"/>
      <point x="47.025" y="410.0" type="line"/>
    </contour>
    <contour>
      <point x="47.025" y="205.0" type="line"/>
      <point x="137.025" y="205.0" type="line"/>
      <point x="137.025" y="295.0" type="line"/>
      <point x="47.025" y="295.0" type="line"/>
    </contour>
    <contour>
      <point x="47.025" y="505.0" type="line"/>
      <point x="137.025" y="505.0" type="line"/>
      <point x="137.025" y="595.0" type="line"/>
      <point x="47.025" y="595.0" type="line"/>
    </contour>
    <contour>
      <point x="274.525" y="210.0" type="line"/>
      <point x="373.86969999999997" y="210.0"/>
      <point x="454.525" y="290.6553"/>
      <point x="454.525" y="390.0" type="curve"/>
      <point x="274.525" y="390.0" type="line"/>
    </contour>
    <contour>
      <point x="274.525" y="390.0" type="line"/>
      <point x="454.525" y="390.0" type="line"/>
      <point x="454.525" y="400.0" type="line"/>
      <point x="274.525" y="400.0" type="line"/>
    </contour>
    <contour>
      <point x="454.525" y="410.0" type="line"/>
      <point x="454.525" y="509.3447"/>
      <point x="373.86969999999997" y="590.0"/>
      <point x="274.525" y="590.0" type="curve"/>
      <point x="274.525" y="410.0" type="line"/>
    </contour>
    <contour>
      <point x="274.525" y="400" type="line"/>
      <point x="454.525" y="400" type="line"/>
      <point x="454.525" y="410.0" type="line"/>
      <point x="274.525" y="410.0" type="line"/>
    </contour>
    <contour>
      <point x="364.525" y="205.0" type="line"/>
      <point x="454.525" y="205.0" type="line"/>
      <point x="454.525" y="295.0" type="line"/>
      <point x="364.525" y="295.0" type="line"/>
    </contour>
    <contour>
      <point x="364.525" y="505.0" type="line"/>
      <point x="454.525" y="505.0" type="line"/>
      <point x="454.525" y="595.0" type="line"/>
      <point x="364.525" y="595.0" type="line"/>
    </contour>
  </outline>
</glyph>
<glyph name="yen" format="2">
  <advance width="776.55"/>
  <unicode hex="00A5"/>
  <outline>
    <contour>
      <point x="47.025" y="380.0" type="line"/>
      <point x="137.025" y="380.0" type="line"/>
      <point x="137.025" y="470.0" type="line"/>
      <point x="47.025" y="470.0" type="line"/>
    </contour>
    <contour>
      <point x="47.025" y="530.0" type="line"/>
      <point x="137.025" y="530.0" type="line"/>
      <point x="137.025" y="620.0" type="line"/>
      <point x="47.025" y="620.0" type="line"/>
    </contour>
    <contour>
      <point x="184.525" y="380.0" type="line"/>
      <point x="184.525" y="280.6553"/>
      <point x="265.1803" y="200.0"/>
      <point x="364.525" y="200.0" type="curve"/>
      <point x="364.525" y="380.0" type="line"/>
    </contour>
    <contour>
      <point x="184.525" y="380.0" type="line"/>
      <point x="364.525" y="380.0" type="line"/>
      <point x="364.525" y="400.0" type="line"/>
      <point x="184.525" y="400.0" type="line"/>
    </contour>
    <contour>
      <point x="184.525" y="400" type="line"/>
      <point x="364.525" y="400" type="line"/>
      <point x="364.525" y="605.0" type="line"/>
      <point x="184.525" y="605.0" type="line"/>
    </contour>
    <contour>
      <point x="364.525" y="625.0" type="line"/>
      <point x="364.525" y="724.3447"/>
      <point x="283.86969999999997" y="805.0"/>
      <point x="184.525" y="805.0" type="curve"/>
      <point x="184.525" y="625.0" type="line"/>
    </contour>
    <contour>
      <point x="184.525" y="605.0" type="line"/>
      <point x="364.525" y="605.0" type="line"/>
      <point x="364.525" y="625.0" type="line"/>
      <point x="184.525" y="625.0" type="line"/>
    </contour>
    <contour>
      <point x="412.025" y="-5.0" type="line"/>
      <point x="511.36969999999997" y="-5.0"/>
      <point x="592.025" y="75.6553"/>
      <point x="592.025" y="175.0" type="curve"/>
      <point x="412.025" y="175.0" type="line"/>
    </contour>
    <contour>
      <point x="412.025" y="175.0" type="line"/>
      <point x="592.025" y="175.0" type="line"/>
      <point x="592.025" y="195.0" type="line"/>
      <point x="412.025" y="195.0" type="line"/>
    </contour>
    <contour>
      <point x="412.025" y="195.0" type="line"/>
      <point x="592.025" y="195.0" type="line"/>
      <point x="592.025" y="400.0" type="line"/>
      <point x="412.025" y="400.0" type="line"/>
    </contour>
    <contour>
      <point x="412.025" y="400" type="line"/>
      <point x="592.025" y="400" type="line"/>
      <point x="592.025" y="600" type="line"/>
      <point x="412.025" y="600" type="line"/>
    </contour>
    <contour>
      <point x="412.025" y="600" type="line"/>
      <point x="592.025" y="600" type="line"/>
      <point x="592.025" y="800" type="line"/>
      <point x="412.025" y="800" type="line"/>
    </contour>
    <contour>
      <point x="639.525" y="380.0" type="line"/>
      <point x="729.525" y="380.0" type="line"/>
      <point x="729.525" y="470.0" type="line"/>
      <point x="639.525" y="470.0" type="line"/>
    </contour>
    <contour>
      <point x="639.525" y="530.0" type="line"/>
      <point x="729.525" y="530.0" type="line"/>
      <point x="729.525" y="620.0" type="line"/>
      <point x="639.525" y="620.0" type="line"/>
    </contour>
  </outline>
</glyph>
<glyph name="brokenbar" format="2">
  <advance width="274.05"/>
  <unicode hex="00A6"/>
  <outline>
    <contour>
      <point x="47.025" y="-100.0" type="line"/>
      <point x="227.025" y="-100.0" type="line"/>
      <point x="227.025" y="100.0" type="line"/>
      <point x="47.025" y="100.0" type="line"/>
    </contour>
    <contour>
      <point x="47.025" y="100.0" type="line"/>
      <point x="227.025" y="100.0" type="line"/>
      <point x="227.025" y="300.0" type="line"/>
      <point x="47.025" y="300.0" type="line"/>
    </contour>
    <contour>
      <point x="47.025" y="500.0" type="line"/>
      <point x="227.025" y="500.0" type="line"/>
      <point x="227.025" y="700.0" type="line"/>
      <point x="47.025" y="700.0" type="line"/>
    </contour>
    <contour>
      <point x="47.025" y="700.0" type="line"/>
      <point x="227.025" y="700.0" type="line"/>
      <point x="227.025" y="900.0" type="line"/>
      <point x="47.025" y="900.0" type="line"/>
    </contour>
  </outline>
</glyph>
<glyph name="section" format="2">
  <advance width="501.55"/>
  <unicode hex="00A7"/>
  <outline>
    <contour>
      <point x="227.025" y="-200" type="line"/>
      <point x="227.025" y="-100.6553"/>
      <point x="146.3697" y="-20.0"/>
      <point x="47.025" y="-20.0" type="curve"/>
      <point x="47.025" y="-200" type="line"/>
    </contour>
    <contour>
      <point x="47.025" y="280.0" type="line"/>
      <point x="47.025" y="180.6553"/>
      <point x="127.68029999999999" y="100.0"/>
      <point x="227.025" y="100.0" type="curve"/>
      <point x="227.025" y="280.0" type="line"/>
    </contour>
    <contour>
      <point x="47.025" y="280.0" type="line"/>
      <point x="227.025" y="280.0" type="line"/>
      <point x="227.025" y="300.0" type="line"/>
      <point x="47.025" y="300.0" type="line"/>
    </contour>
    <contour>
      <point x="227.025" y="500.0" type="line"/>
      <point x="127.68029999999999" y="500.0"/>
      <point x="47.025" y="419.3447"/>
      <point x="47.025" y="320.0" type="curve"/>
      <point x="227.025" y="320.0" type="line"/>
    </contour>
    <contour>
      <point x="47.025" y="300.0" type="line"/>
      <point x="227.025" y="300.0" type="line"/>
      <point x="227.025" y="320.0" type="line"/>
      <point x="47.025" y="320.0" type="line"/>
    </contour>
    <contour>
      <point x="47.025" y="590.0" type="line"/>
      <point x="47.025" y="490.6553"/>
      <point x="127.68029999999999" y="410.0"/>
      <point x="227.025" y="410.0" type="curve"/>
      <point x="227.025" y="590.0" type="line"/>
    </contour>
    <contour>
      <point x="47.025" y="590.0" type="line"/>
      <point x="227.025" y="590.0" type="line"/>
      <point x="227.025" y="600.0" type="line"/>
      <point x="47.025" y="600.0" type="line"/>
    </contour>
    <contour>
      <point x="227.025" y="800.0" type="line"/>
      <point x="127.68029999999999" y="800.0"/>
      <point x="47.025" y="719.3447"/>
      <point x="47.025" y="620.0" type="curve"/>
      <point x="227.025" y="620.0" type="line"/>
    </contour>
    <contour>
      <point x="47.025" y="600" type="line"/>
      <point x="227.025" y="600" type="line"/>
      <point x="227.025" y="620.0" type="line"/>
      <point x="47.025" y="620.0" type="line"/>
    </contour>
    <contour>
      <point x="274.525" y="-200.0" type="line"/>
      <point x="373.86969999999997" y="-200.0"/>
      <point x="454.525" y="-119.3447"/>
      <point x="454.525" y="-20.0" type="curve"/>
      <point x="274.525" y="-20.0" type="line"/>
    </contour>
    <contour>
      <point x="274.525" y="-20.0" type="line"/>
      <point x="454.525" y="-20.0" type="line"/>
      <point x="454.525" y="0.0" type="line"/>
      <point x="274.525" y="0.0" type="line"/>
    </contour>
    <contour>
      <point x="454.525" y="10.0" type="line"/>
      <point x="454.525" y="109.3447"/>
      <point x="373.86969999999997" y="190.0"/>
      <point x="274.525" y="190.0" type="curve"/>
      <point x="274.525" y="10.0" type="line"/>
    </contour>
    <contour>
      <point x="274.525" y="0" type="line"/>
      <point x="454.525" y="0" type="line"/>
      <point x="454.525" y="10.0" type="line"/>
      <point x="274.525" y="10.0" type="line"/>
    </contour>
    <contour>
      <point x="274.525" y="100.0" type="line"/>
      <point x="373.86969999999997" y="100.0"/>
      <point x="454.525" y="180.6553"/>
      <point x="454.525" y="280.0" type="curve"/>
      <point x="274.525" y="280.0" type="line"/>
    </contour>
    <contour>
      <point x="274.525" y="280.0" type="line"/>
      <point x="454.525" y="280.0" type="line"/>
      <point x="454.525" y="300.0" type="line"/>
      <point x="274.525" y="300.0" type="line"/>
    </contour>
    <contour>
      <point x="454.525" y="320.0" type="line"/>
      <point x="454.525" y="419.3447"/>
      <point x="373.86969999999997" y="500.0"/>
      <point x="274.525" y="500.0" type="curve"/>
      <point x="274.525" y="320.0" type="line"/>
    </contour>
    <contour>
      <point x="274.525" y="300.0" type="line"/>
      <point x="454.525" y="300.0" type="line"/>
      <point x="454.525" y="320.0" type="line"/>
      <point x="274.525" y="320.0" type="line"/>
    </contour>
    <contour>
      <point x="274.525" y="800.0" type="line"/>
      <point x="274.525" y="700.6553"/>
      <point x="355.1803" y="620.0"/>
      <point x="454.525" y="620.0" type="curve"/>
      <point x="454.525" y="800.0" type="line"/>
    </contour>
  </outline>
</glyph>
<glyph name="diaeresis" format="2">
  <advance width="501.55"/>
  <unicode hex="00A8"/>
  <outline>
    <contour>
      <point x="232.025" y="890.0" type="curve" smooth="yes"/>
      <point x="232.025" y="942.43193"/>
      <point x="189.45693" y="985.0"/>
      <point x="137.025" y="985.0" type="curve" smooth="yes"/>
      <point x="84.59307" y="985.0"/>
      <point x="42.025" y="942.43193"/>
      <point x="42.025" y="890.0" type="curve" smooth="yes"/>
      <point x="42.025" y="837.56807"/>
      <point x="84.59307" y="795.0"/>
      <point x="137.025" y="795.0" type="curve" smooth="yes"/>
      <point x="189.45693" y="795.0"/>
      <point x="232.025" y="837.56807"/>
    </contour>
    <contour>
      <point x="459.525" y="890.0" type="curve" smooth="yes"/>
      <point x="459.525" y="942.43193"/>
      <point x="416.95693" y="985.0"/>
      <point x="364.525" y="985.0" type="curve" smooth="yes"/>
      <point x="312.09306999999995" y="985.0"/>
      <point x="269.525" y="942.43193"/>
      <point x="269.525" y="890.0" type="curve" smooth="yes"/>
      <point x="269.525" y="837.56807"/>
      <point x="312.09306999999995" y="795.0"/>
      <point x="364.525" y="795.0" type="curve" smooth="yes"/>
      <point x="416.95693" y="795.0"/>
      <point x="459.525" y="837.56807"/>
    </contour>
  </outline>
</glyph>
<glyph name="copyright" format="2">
  <advance width="1081.2674399999999"/>
  <unicode hex="00A9"/>
  <outline>
    <contour>
      <point x="325.63372000000004" y="380.0" type="curve"/>
      <point x="505.63372000000004" y="380.0" type="line"/>
      <point x="505.63372000000004" y="200.0" type="line"/>
      <point x="406.28902000000005" y="200.0"/>
      <point x="325.63372000000004" y="280.6553"/>
    </contour>
    <contour>
      <point x="325.63372000000004" y="380.0" type="line"/>
      <point x="325.63372000000004" y="400.0" type="line"/>
      <point x="505.63372000000004" y="400.0" type="line"/>
      <point x="505.63372000000004" y="380.0" type="line"/>
    </contour>
    <contour>
      <point x="505.63372000000004" y="605.0" type="curve"/>
      <point x="505.63372000000004" y="425.0" type="line"/>
      <point x="325.63372000000004" y="425.0" type="line"/>
      <point x="325.63372000000004" y="524.3447"/>
      <point x="406.28902000000005" y="605.0"/>
    </contour>
    <contour>
      <point x="325.63372000000004" y="400" type="line"/>
      <point x="325.63372000000004" y="425.0" type="line"/>
      <point x="505.63372000000004" y="425.0" type="line"/>
      <point x="505.63372000000004" y="400" type="line"/>
    </contour>
    <contour>
      <point x="730.3212199999999" y="380.0" type="curve"/>
      <point x="730.3212199999999" y="200.0" type="line"/>
      <point x="550.32122" y="200.0" type="line"/>
      <point x="550.32122" y="299.3447"/>
      <point x="630.97652" y="380.0"/>
    </contour>
    <contour>
      <point x="733.1337199999999" y="520.0" type="curve" smooth="yes"/>
      <point x="733.1337199999999" y="470.32765"/>
      <point x="692.80607" y="430.0"/>
      <point x="643.13372" y="430.0" type="curve" smooth="yes"/>
      <point x="593.46137" y="430.0"/>
      <point x="553.13372" y="470.32765"/>
      <point x="553.13372" y="520.0" type="curve" smooth="yes"/>
      <point x="553.13372" y="569.67235"/>
      <point x="593.46137" y="610.0"/>
      <point x="643.13372" y="610.0" type="curve" smooth="yes"/>
      <point x="692.80607" y="610.0"/>
      <point x="733.1337199999999" y="569.67235"/>
    </contour>
    <contour>
      <point x="944.2424399999999" y="405.0" type="curve" smooth="yes"/>
      <point x="944.2424399999999" y="627.75772"/>
      <point x="763.39144" y="808.60872"/>
      <point x="540.63372" y="808.60872" type="curve" smooth="yes"/>
      <point x="317.876" y="808.60872"/>
      <point x="137.025" y="627.75772"/>
      <point x="137.025" y="405.0" type="curve" smooth="yes"/>
      <point x="137.025" y="182.24228"/>
      <point x="317.876" y="1.39128"/>
      <point x="540.63372" y="1.39128" type="curve" smooth="yes"/>
      <point x="763.39144" y="1.39128"/>
      <point x="944.2424399999999" y="182.24228"/>
    </contour>
  </outline>
</glyph>
<glyph name="ordinalfeminine" format="2">
  <advance width="501.55"/>
  <unicode hex="00AA"/>
  <outline>
    <contour>
      <point x="47.025" y="580.0" type="line"/>
      <point x="47.025" y="480.6553"/>
      <point x="127.68029999999999" y="400.0"/>
      <point x="227.025" y="400.0" type="curve"/>
      <point x="227.025" y="580.0" type="line"/>
    </contour>
    <contour>
      <point x="47.025" y="580.0" type="line"/>
      <point x="227.025" y="580.0" type="line"/>
      <point x="227.025" y="600.0" type="line"/>
      <point x="47.025" y="600.0" type="line"/>
    </contour>
    <contour>
      <point x="227.025" y="800.0" type="line"/>
      <point x="127.68029999999999" y="800.0"/>
      <point x="47.025" y="719.3447"/>
      <point x="47.025" y="620.0" type="curve"/>
      <point x="227.025" y="620.0" type="line"/>
    </contour>
    <contour>
      <point x="47.025" y="600" type="line"/>
      <point x="227.025" y="600" type="line"/>
      <point x="227.025" y="620.0" type="line"/>
      <point x="47.025" y="620.0" type="line"/>
    </contour>
    <contour>
      <point x="274.525" y="580.0" type="line"/>
      <point x="274.525" y="480.6553"/>
      <point x="355.1803" y="400.0"/>
      <point x="454.525" y="400.0" type="curve"/>
      <point x="454.525" y="580.0" type="line"/>
    </contour>
    <contour>
      <point x="274.525" y="580.0" type="line"/>
      <point x="454.525" y="580.0" type="line"/>
      <point x="454.525" y="600.0" type="line"/>
      <point x="274.525" y="600.0" type="line"/>
    </contour>
    <contour>
      <point x="274.525" y="600" type="line"/>
      <point x="454.525" y="600" type="line"/>
      <point x="454.525" y="800" type="line"/>
      <point x="274.525" y="800" type="line"/>
    </contour>
  </outline>
</glyph>
<glyph name="angledblleft" format="2">
  <advance width="501.55"/>
  <unicode hex="00AB"/>
  <outline>
    <contour>
      <point x="47.025" y="400.0" type="line"/>
      <point x="47.025" y="300.6553"/>
      <point x="127.68029999999999" y="220.0"/>
      <point x="227.025" y="220.0" type="curve"/>
      <point x="227.025" y="400.0" type="line"/>
    </contour>
    <contour>
      <point x="227.025" y="580.0" type="line"/>
      <point x="127.68029999999999" y="580.0"/>
      <point x="47.025" y="499.3447"/>
      <point x="47.025" y="400.0" type="curve"/>
      <point x="227.025" y="400.0" type="line"/>
    </contour>
    <contour>
      <point x="274.525" y="400.0" type="line"/>
      <point x="274.525" y="300.6553"/>
      <point x="355.1803" y="220.0"/>
      <point x="454.525" y="220.0" type="curve"/>
      <point x="454.525" y="400.0" type="line"/>
    </contour>
    <contour>
      <point x="454.525" y="580.0" type="line"/>
      <point x="355.1803" y="580.0"/>
      <point x="274.525" y="499.3447"/>
      <point x="274.525" y="400.0" type="curve"/>
      <point x="454.525" y="400.0" type="line"/>
    </contour>
  </outline>
</glyph>
<glyph name="macron" format="2">
  <advance width="501.55"/>
  <unicode hex="00AF"/>
  <outline>
    <contour>
      <point x="70.775" y="800" type="line"/>
      <point x="250.775" y="800" type="line"/>
      <point x="250.775" y="980.0" type="line"/>
      <point x="70.775" y="980.0" type="line"/>
    </contour>
    <contour>
      <point x="250.775" y="800" type="line"/>
      <point x="430.775" y="800" type="line"/>
      <point x="430.775" y="980.0" type="line"/>
      <point x="250.775" y="980.0" type="line"/>
    </contour>
  </outline>
</glyph>
<glyph name="degree" format="2">
  <advance width="331.55"/>
  <unicode hex="00B0"/>
  <outline>
    <contour>
      <point x="142.025" y="805.0" type="line"/>
      <point x="89.59307000000001" y="805.0"/>
      <point x="47.025" y="762.43193"/>
      <point x="47.025" y="710.0" type="curve" smooth="yes"/>
      <point x="47.025" y="657.56807"/>
      <point x="89.59307000000001" y="615.0"/>
      <point x="142.025" y="615.0" type="curve"/>
    </contour>
    <contour>
      <point x="189.525" y="615.0" type="line"/>
      <point x="241.95693000000003" y="615.0"/>
      <point x="284.525" y="657.56807"/>
      <point x="284.525" y="710.0" type="curve" smooth="yes"/>
      <point x="284.525" y="762.43193"/>
      <point x="241.95693000000003" y="805.0"/>
      <point x="189.525" y="805.0" type="curve"/>
    </contour>
  </outline>
</glyph>
<glyph name="plus_minus" format="2">
  <advance width="729.05"/>
  <unicode hex="00B1"/>
  <outline>
    <contour>
      <point x="94.525" y="110.0" type="line"/>
      <point x="274.525" y="110.0" type="line"/>
      <point x="274.525" y="290.0" type="line"/>
      <point x="94.525" y="290.0" type="line"/>
    </contour>
    <contour>
      <point x="94.525" y="410.0" type="line"/>
      <point x="274.525" y="410.0" type="line"/>
      <point x="274.525" y="590.0" type="line"/>
      <point x="94.525" y="590.0" type="line"/>
    </contour>
    <contour>
      <point x="274.525" y="110.0" type="line"/>
      <point x="454.525" y="110.0" type="line"/>
      <point x="454.525" y="290.0" type="line"/>
      <point x="274.525" y="290.0" type="line"/>
    </contour>
    <contour>
      <point x="274.525" y="300.0" type="line"/>
      <point x="454.525" y="300.0" type="line"/>
      <point x="454.525" y="400.0" type="line"/>
      <point x="274.525" y="400.0" type="line"/>
    </contour>
    <contour>
      <point x="274.525" y="400" type="line"/>
      <point x="454.525" y="400" type="line"/>
      <point x="454.525" y="600" type="line"/>
      <point x="274.525" y="600" type="line"/>
    </contour>
    <contour>
      <point x="274.525" y="600" type="line"/>
      <point x="454.525" y="600" type="line"/>
      <point x="454.525" y="700.0" type="line"/>
      <point x="274.525" y="700.0" type="line"/>
    </contour>
    <contour>
      <point x="454.525" y="110.0" type="line"/>
      <point x="634.525" y="110.0" type="line"/>
      <point x="634.525" y="290.0" type="line"/>
      <point x="454.525" y="290.0" type="line"/>
    </contour>
    <contour>
      <point x="454.525" y="410.0" type="line"/>
      <point x="634.525" y="410.0" type="line"/>
      <point x="634.525" y="590.0" type="line"/>
      <point x="454.525" y="590.0" type="line"/>
    </contour>
  </outline>
</glyph>
<glyph name="sup_two" format="2">
  <advance width="501.55"/>
  <unicode hex="00B2"/>
  <outline>
    <contour>
      <point x="227.025" y="380.0" type="line"/>
      <point x="127.68029999999999" y="380.0"/>
      <point x="47.025" y="299.3447"/>
      <point x="47.025" y="200.0" type="curve"/>
      <point x="227.025" y="200.0" type="line"/>
    </contour>
    <contour>
      <point x="227.025" y="200" type="line"/>
      <point x="274.525" y="200" type="line"/>
      <point x="274.525" y="380.0" type="line"/>
      <point x="227.025" y="380.0" type="line"/>
    </contour>
    <contour>
      <point x="237.65" y="710.0" type="curve" smooth="yes"/>
      <point x="237.65" y="762.43193"/>
      <point x="195.08193" y="805.0"/>
      <point x="142.65" y="805.0" type="curve" smooth="yes"/>
      <point x="90.21807" y="805.0"/>
      <point x="47.65" y="762.43193"/>
      <point x="47.65" y="710.0" type="curve" smooth="yes"/>
      <point x="47.65" y="657.56807"/>
      <point x="90.21807" y="615.0"/>
      <point x="142.65" y="615.0" type="curve" smooth="yes"/>
      <point x="195.08193" y="615.0"/>
      <point x="237.65" y="657.56807"/>
    </contour>
    <contour>
      <point x="274.525" y="200" type="line"/>
      <point x="454.525" y="200" type="line"/>
      <point x="454.525" y="380.0" type="line"/>
      <point x="274.525" y="380.0" type="line"/>
    </contour>
    <contour>
      <point x="274.525" y="393.0" type="line"/>
      <point x="373.86969999999997" y="393.0"/>
      <point x="454.525" y="473.6553"/>
      <point x="454.525" y="573.0" type="curve"/>
      <point x="274.525" y="573.0" type="line"/>
    </contour>
    <contour>
      <point x="274.525" y="573.0" type="line"/>
      <point x="454.525" y="573.0" type="line"/>
      <point x="454.525" y="605.0" type="line"/>
      <point x="274.525" y="605.0" type="line"/>
    </contour>
    <contour>
      <point x="454.525" y="625.0" type="line"/>
      <point x="454.525" y="724.3447"/>
      <point x="373.86969999999997" y="805.0"/>
      <point x="274.525" y="805.0" type="curve"/>
      <point x="274.525" y="625.0" type="line"/>
    </contour>
    <contour>
      <point x="274.525" y="605.0" type="line"/>
      <point x="454.525" y="605.0" type="line"/>
      <point x="454.525" y="625.0" type="line"/>
      <point x="274.525" y="625.0" type="line"/>
    </contour>
  </outline>
</glyph>
<glyph name="sup_three" format="2">
  <advance width="501.55"/>
  <unicode hex="00B3"/>
  <outline>
    <contour>
      <point x="232.025" y="290.0" type="curve" smooth="yes"/>
      <point x="232.025" y="342.43193"/>
      <point x="189.45693" y="385.0"/>
      <point x="137.025" y="385.0" type="curve" smooth="yes"/>
      <point x="84.59307" y="385.0"/>
      <point x="42.025" y="342.43193"/>
      <point x="42.025" y="290.0" type="curve" smooth="yes"/>
      <point x="42.025" y="237.56807"/>
      <point x="84.59307" y="195.0"/>
      <point x="137.025" y="195.0" type="curve" smooth="yes"/>
      <point x="189.45693" y="195.0"/>
      <point x="232.025" y="237.56807"/>
    </contour>
    <contour>
      <point x="232.025" y="710.0" type="curve" smooth="yes"/>
      <point x="232.025" y="762.43193"/>
      <point x="189.45693" y="805.0"/>
      <point x="137.025" y="805.0" type="curve" smooth="yes"/>
      <point x="84.59307" y="805.0"/>
      <point x="42.025" y="762.43193"/>
      <point x="42.025" y="710.0" type="curve" smooth="yes"/>
      <point x="42.025" y="657.56807"/>
      <point x="84.59307" y="615.0"/>
      <point x="137.025" y="615.0" type="curve" smooth="yes"/>
      <point x="189.45693" y="615.0"/>
      <point x="232.025" y="657.56807"/>
    </contour>
    <contour>
      <point x="274.525" y="195.0" type="line"/>
      <point x="373.86969999999997" y="195.0"/>
      <point x="454.525" y="275.6553"/>
      <point x="454.525" y="375.0" type="curve"/>
      <point x="274.525" y="375.0" type="line"/>
    </contour>
    <contour>
      <point x="274.525" y="375.0" type="line"/>
      <point x="454.525" y="375.0" type="line"/>
      <point x="454.525" y="400.0" type="line"/>
      <point x="274.525" y="400.0" type="line"/>
    </contour>
    <contour>
      <point x="454.525" y="420.0" type="line"/>
      <point x="454.525" y="519.3447"/>
      <point x="373.86969999999997" y="600.0"/>
      <point x="274.525" y="600.0" type="curve"/>
      <point x="274.525" y="420.0" type="line"/>
    </contour>
    <contour>
      <point x="274.525" y="400" type="line"/>
      <point x="454.525" y="400" type="line"/>
      <point x="454.525" y="420.0" type="line"/>
      <point x="274.525" y="420.0" type="line"/>
    </contour>
    <contour>
      <point x="274.525" y="600.0" type="line"/>
      <point x="373.86969999999997" y="600.0"/>
      <point x="454.525" y="680.6553"/>
      <point x="454.525" y="780.0" type="curve"/>
      <point x="274.525" y="780.0" type="line"/>
    </contour>
    <contour>
      <point x="274.525" y="780.0" type="line"/>
      <point x="454.525" y="780.0" type="line"/>
      <point x="454.525" y="800.0" type="line"/>
      <point x="274.525" y="800.0" type="line"/>
    </contour>
  </outline>
</glyph>
<glyph name="angledblright" format="2">
  <advance width="501.55"/>
  <unicode hex="00BB"/>
  <outline>
    <contour>
      <point x="47.025" y="220.0" type="line"/>
      <point x="146.3697" y="220.0"/>
      <point x="227.025" y="300.6553"/>
      <point x="227.025" y="400.0" type="curve"/>
      <point x="47.025" y="400.0" type="line"/>
    </contour>
    <contour>
      <point x="227.025" y="400" type="line"/>
      <point x="227.025" y="499.3447"/>
      <point x="146.3697" y="580.0"/>
      <point x="47.025" y="580.0" type="curve"/>
      <point x="47.025" y="400" type="line"/>
    </contour>
    <contour>
      <point x="274.525" y="220.0" type="line"/>
      <point x="373.86969999999997" y="220.0"/>
      <point x="454.525" y="300.6553"/>
      <point x="454.525" y="400.0" type="curve"/>
      <point x="274.525" y="400.0" type="line"/>
    </contour>
    <contour>
      <point x="454.525" y="400" type="line"/>
      <point x="454.525" y="499.3447"/>
      <point x="373.86969999999997" y="580.0"/>
      <point x="274.525" y="580.0" type="curve"/>
      <point x="274.525" y="400" type="line"/>
    </contour>
  </outline>
</glyph>
<glyph name="one_over_four" format="2">
  <advance width="956.55"/>
  <unicode hex="00BC"/>
  <outline>
    <contour>
      <point x="23.275" y="200" type="line"/>
      <point x="203.275" y="200" type="line"/>
      <point x="203.275" y="400" type="line"/>
      <point x="23.275" y="400" type="line"/>
    </contour>
    <contour>
      <point x="23.275" y="400" type="line"/>
      <point x="203.275" y="400" type="line"/>
      <point x="203.275" y="600" type="line"/>
      <point x="23.275" y="600" type="line"/>
    </contour>
    <contour>
      <point x="23.275" y="600" type="line"/>
      <point x="203.275" y="600" type="line"/>
      <point x="203.275" y="800" type="line"/>
      <point x="23.275" y="800" type="line"/>
    </contour>
    <contour>
      <point x="274.525" y="-200.0" type="line"/>
      <point x="373.86969999999997" y="-200.0"/>
      <point x="454.525" y="-119.3447"/>
      <point x="454.525" y="-20.0" type="curve"/>
      <point x="274.525" y="-20.0" type="line"/>
    </contour>
    <contour>
      <point x="274.525" y="-20.0" type="line"/>
      <point x="454.525" y="-20.0" type="line"/>
      <point x="454.525" y="0.0" type="line"/>
      <point x="274.525" y="0.0" type="line"/>
    </contour>
    <contour>
      <point x="274.525" y="0" type="line"/>
      <point x="454.525" y="0" type="line"/>
      <point x="454.525" y="200" type="line"/>
      <point x="274.525" y="200" type="line"/>
    </contour>
    <contour>
      <point x="274.525" y="200" type="line"/>
      <point x="454.525" y="200" type="line"/>
      <point x="454.525" y="400" type="line"/>
      <point x="274.525" y="400" type="line"/>
    </contour>
    <contour>
      <point x="274.525" y="400" type="line"/>
      <point x="454.525" y="400" type="line"/>
      <point x="454.525" y="600" type="line"/>
      <point x="274.525" y="600" type="line"/>
    </contour>
    <contour>
      <point x="454.525" y="800.0" type="line"/>
      <point x="355.1803" y="800.0"/>
      <point x="274.525" y="719.3447"/>
      <point x="274.525" y="620.0" type="curve"/>
      <point x="454.525" y="620.0" type="line"/>
    </contour>
    <contour>
      <point x="274.525" y="600" type="line"/>
      <point x="454.525" y="600" type="line"/>
      <point x="454.525" y="620.0" type="line"/>
      <point x="274.525" y="620.0" type="line"/>
    </contour>
    <contour>
      <point x="525.775" y="0.0" type="line"/>
      <point x="625.1197" y="0.0"/>
      <point x="705.775" y="80.6553"/>
      <point x="705.775" y="180.0" type="curve"/>
      <point x="525.775" y="180.0" type="line"/>
    </contour>
    <contour>
      <point x="525.775" y="180.0" type="line"/>
      <point x="705.775" y="180.0" type="line"/>
      <point x="705.775" y="200.0" type="line"/>
      <point x="525.775" y="200.0" type="line"/>
    </contour>
    <contour>
      <point x="525.775" y="200" type="line"/>
      <point x="705.775" y="200" type="line"/>
      <point x="705.775" y="400" type="line"/>
      <point x="525.775" y="400" type="line"/>
    </contour>
    <contour>
      <point x="753.275" y="-200" type="line"/>
      <point x="933.275" y="-200" type="line"/>
      <point x="933.275" y="0" type="line"/>
      <point x="753.275" y="0" type="line"/>
    </contour>
    <contour>
      <point x="753.275" y="0" type="line"/>
      <point x="933.275" y="0" type="line"/>
      <point x="933.275" y="200" type="line"/>
      <point x="753.275" y="200" type="line"/>
    </contour>
  </outline>
</glyph>
<glyph name="one_over_two" format="2">
  <advance width="956.55"/>
  <unicode hex="00BD"/>
  <outline>
    <contour>
      <point x="23.275" y="200" type="line"/>
      <point x="203.275" y="200" type="line"/>
      <point x="203.275" y="400" type="line"/>
      <point x="23.275" y="400" type="line"/>
    </contour>
    <contour>
      <point x="23.275" y="400" type="line"/>
      <point x="203.275" y="400" type="line"/>
      <point x="203.275" y="600" type="line"/>
      <point x="23.275" y="600" type="line"/>
    </contour>
    <contour>
      <point x="23.275" y="600" type="line"/>
      <point x="203.275" y="600" type="line"/>
      <point x="203.275" y="800" type="line"/>
      <point x="23.275" y="800" type="line"/>
    </contour>
    <contour>
      <point x="274.525" y="-200.0" type="line"/>
      <point x="373.86969999999997" y="-200.0"/>
      <point x="454.525" y="-119.3447"/>
      <point x="454.525" y="-20.0" type="curve"/>
      <point x="274.525" y="-20.0" type="line"/>
    </contour>
    <contour>
      <point x="274.525" y="-20.0" type="line"/>
      <point x="454.525" y="-20.0" type="line"/>
      <point x="454.525" y="0.0" type="line"/>
      <point x="274.525" y="0.0" type="line"/>
    </contour>
    <contour>
      <point x="274.525" y="0" type="line"/>
      <point x="454.525" y="0" type="line"/>
      <point x="454.525" y="200" type="line"/>
      <point x="274.525" y="200" type="line"/>
    </contour>
    <contour>
      <point x="274.525" y="200" type="line"/>
      <point x="454.525" y="200" type="line"/>
      <point x="454.525" y="400" type="line"/>
      <point x="274.525" y="400" type="line"/>
    </contour>
    <contour>
      <point x="274.525" y="400" type="line"/>
      <point x="454.525" y="400" type="line"/>
      <point x="454.525" y="600" type="line"/>
      <point x="274.525" y="600" type="line"/>
    </contour>
    <contour>
      <point x="454.525" y="800.0" type="line"/>
      <point x="355.1803" y="800.0"/>
      <point x="274.525" y="719.3447"/>
      <point x="274.525" y="620.0" type="curve"/>
      <point x="454.525" y="620.0" type="line"/>
    </contour>
    <contour>
      <point x="274.525" y="600" type="line"/>
      <point x="454.525" y="600" type="line"/>
      <point x="454.525" y="620.0" type="line"/>
      <point x="274.525" y="620.0" type="line"/>
    </contour>
    <contour>
      <point x="705.775" y="-20.0" type="line"/>
      <point x="606.4303" y="-20.0"/>
      <point x="525.775" y="-100.6553"/>
      <point x="525.775" y="-200.0" type="curve"/>
      <point x="705.775" y="-200.0" type="line"/>
    </contour>
    <contour>
      <point x="705.775" y="-200" type="line"/>
      <point x="753.275" y="-200" type="line"/>
      <point x="753.275" y="-20.0" type="line"/>
      <point x="705.775" y="-20.0" type="line"/>
    </contour>
    <contour>
      <point x="716.4" y="310.0" type="curve" smooth="yes"/>
      <point x="716.4" y="362.43193"/>
      <point x="673.8319299999999" y="405.0"/>
      <point x="621.4" y="405.0" type="curve" smooth="yes"/>
      <point x="568.96807" y="405.0"/>
      <point x="526.4" y="362.43193"/>
      <point x="526.4" y="310.0" type="curve" smooth="yes"/>
      <point x="526.4" y="257.56807"/>
      <point x="568.96807" y="215.0"/>
      <point x="621.4" y="215.0" type="curve" smooth="yes"/>
      <point x="673.8319299999999" y="215.0"/>
      <point x="716.4" y="257.56807"/>
    </contour>
    <contour>
      <point x="753.275" y="-200" type="line"/>
      <point x="933.275" y="-200" type="line"/>
      <point x="933.275" y="-20.0" type="line"/>
      <point x="753.275" y="-20.0" type="line"/>
    </contour>
    <contour>
      <point x="753.275" y="-7.0" type="line"/>
      <point x="852.6197" y="-7.0"/>
      <point x="933.275" y="73.6553"/>
      <point x="933.275" y="173.0" type="curve"/>
      <point x="753.275" y="173.0" type="line"/>
    </contour>
    <contour>
      <point x="753.275" y="173.0" type="line"/>
      <point x="933.275" y="173.0" type="line"/>
      <point x="933.275" y="205.0" type="line"/>
      <point x="753.275" y="205.0" type="line"/>
    </contour>
    <contour>
      <point x="933.275" y="225.0" type="line"/>
      <point x="933.275" y="324.3447"/>
      <point x="852.6197" y="405.0"/>
      <point x="753.275" y="405.0" type="curve"/>
      <point x="753.275" y="225.0" type="line"/>
    </contour>
    <contour>
      <point x="753.275" y="205.0" type="line"/>
      <point x="933.275" y="205.0" type="line"/>
      <point x="933.275" y="225.0" type="line"/>
      <point x="753.275" y="225.0" type="line"/>
    </contour>
  </outline>
</glyph>
<glyph name="three_over_four" format="2">
  <advance width="1184.05"/>
  <unicode hex="00BE"/>
  <outline>
    <contour>
      <point x="208.275" y="290.0" type="curve" smooth="yes"/>
      <point x="208.275" y="342.43193"/>
      <point x="165.70693" y="385.0"/>
      <point x="113.275" y="385.0" type="curve" smooth="yes"/>
      <point x="60.84307" y="385.0"/>
      <point x="18.275" y="342.43193"/>
      <point x="18.275" y="290.0" type="curve" smooth="yes"/>
      <point x="18.275" y="237.56807"/>
      <point x="60.84307" y="195.0"/>
      <point x="113.275" y="195.0" type="curve" smooth="yes"/>
      <point x="165.70693" y="195.0"/>
      <point x="208.275" y="237.56807"/>
    </contour>
    <contour>
      <point x="208.275" y="710.0" type="curve" smooth="yes"/>
      <point x="208.275" y="762.43193"/>
      <point x="165.70693" y="805.0"/>
      <point x="113.275" y="805.0" type="curve" smooth="yes"/>
      <point x="60.84307" y="805.0"/>
      <point x="18.275" y="762.43193"/>
      <point x="18.275" y="710.0" type="curve" smooth="yes"/>
      <point x="18.275" y="657.56807"/>
      <point x="60.84307" y="615.0"/>
      <point x="113.275" y="615.0" type="curve" smooth="yes"/>
      <point x="165.70693" y="615.0"/>
      <point x="208.275" y="657.56807"/>
    </contour>
    <contour>
      <point x="250.775" y="195.0" type="line"/>
      <point x="350.11969999999997" y="195.0"/>
      <point x="430.775" y="275.6553"/>
      <point x="430.775" y="375.0" type="curve"/>
      <point x="250.775" y="375.0" type="line"/>
    </contour>
    <contour>
      <point x="250.775" y="375.0" type="line"/>
      <point x="430.775" y="375.0" type="line"/>
      <point x="430.775" y="400.0" type="line"/>
      <point x="250.775" y="400.0" type="line"/>
    </contour>
    <contour>
      <point x="430.775" y="420.0" type="line"/>
      <point x="430.775" y="519.3447"/>
      <point x="350.11969999999997" y="600.0"/>
      <point x="250.775" y="600.0" type="curve"/>
      <point x="250.775" y="420.0" type="line"/>
    </contour>
    <contour>
      <point x="250.775" y="400" type="line"/>
      <point x="430.775" y="400" type="line"/>
      <point x="430.775" y="420.0" type="line"/>
      <point x="250.775" y="420.0" type="line"/>
    </contour>
    <contour>
      <point x="250.775" y="600.0" type="line"/>
      <point x="350.11969999999997" y="600.0"/>
      <point x="430.775" y="680.6553"/>
      <point x="430.775" y="780.0" type="curve"/>
      <point x="250.775" y="780.0" type="line"/>
    </contour>
    <contour>
      <point x="250.775" y="780.0" type="line"/>
      <point x="430.775" y="780.0" type="line"/>
      <point x="430.775" y="800.0" type="line"/>
      <point x="250.775" y="800.0" type="line"/>
    </contour>
    <contour>
      <point x="502.025" y="-200.0" type="line"/>
      <point x="601.3697" y="-200.0"/>
      <point x="682.025" y="-119.3447"/>
      <point x="682.025" y="-20.0" type="curve"/>
      <point x="502.025" y="-20.0" type="line"/>
    </contour>
    <contour>
      <point x="502.025" y="-20.0" type="line"/>
      <point x="682.025" y="-20.0" type="line"/>
      <point x="682.025" y="0.0" type="line"/>
      <point x="502.025" y="0.0" type="line"/>
    </contour>
    <contour>
      <point x="502.025" y="0" type="line"/>
      <point x="682.025" y="0" type="line"/>
      <point x="682.025" y="200" type="line"/>
      <point x="502.025" y="200" type="line"/>
    </contour>
    <contour>
      <point x="502.025" y="200" type="line"/>
      <point x="682.025" y="200" type="line"/>
      <point x="682.025" y="400" type="line"/>
      <point x="502.025" y="400" type="line"/>
    </contour>
    <contour>
      <point x="502.025" y="400" type="line"/>
      <point x="682.025" y="400" type="line"/>
      <point x="682.025" y="600" type="line"/>
      <point x="502.025" y="600" type="line"/>
    </contour>
    <contour>
      <point x="682.025" y="800.0" type="line"/>
      <point x="582.6803" y="800.0"/>
      <point x="502.025" y="719.3447"/>
      <point x="502.025" y="620.0" type="curve"/>
      <point x="682.025" y="620.0" type="line"/>
    </contour>
    <contour>
      <point x="502.025" y="600" type="line"/>
      <point x="682.025" y="600" type="line"/>
      <point x="682.025" y="620.0" type="line"/>
      <point x="502.025" y="620.0" type="line"/>
    </contour>
    <contour>
      <point x="753.275" y="0.0" type="line"/>
      <point x="852.6197" y="0.0"/>
      <point x="933.275" y="80.6553"/>
      <point x="933.275" y="180.0" type="curve"/>
      <point x="753.275" y="180.0" type="line"/>
    </contour>
    <contour>
      <point x="753.275" y="180.0" type="line"/>
      <point x="933.275" y="180.0" type="line"/>
      <point x="933.275" y="200.0" type="line"/>
      <point x="753.275" y="200.0" type="line"/>
    </contour>
    <contour>
      <point x="753.275" y="200" type="line"/>
      <point x="933.275" y="200" type="line"/>
      <point x="933.275" y="400" type="line"/>
      <point x="753.275" y="400" type="line"/>
    </contour>
    <contour>
      <point x="980.775" y="-200" type="line"/>
      <point x="1160.775" y="-200" type="line"/>
      <point x="1160.775" y="0" type="line"/>
      <point x="980.775" y="0" type="line"/>
    </contour>
    <contour>
      <point x="980.775" y="0" type="line"/>
      <point x="1160.775" y="0" type="line"/>
      <point x="1160.775" y="200" type="line"/>
      <point x="980.775" y="200" type="line"/>
    </contour>
  </outline>
</glyph>
<glyph name="invquestion" format="2">
  <advance width="501.55"/>
  <unicode hex="00BF"/>
  <outline>
    <contour>
      <point x="47.025" y="-25.0" type="line"/>
      <point x="47.025" y="-124.3447"/>
      <point x="127.68029999999999" y="-205.0"/>
      <point x="227.025" y="-205.0" type="curve"/>
      <point x="227.025" y="-25.0" type="line"/>
    </contour>
    <contour>
      <point x="47.025" y="-25.0" type="line"/>
      <point x="227.025" y="-25.0" type="line"/>
      <point x="227.025" y="-5.0" type="line"/>
      <point x="47.025" y="-5.0" type="line"/>
    </contour>
    <contour>
      <point x="227.025" y="195.0" type="line"/>
      <point x="127.68029999999999" y="195.0"/>
      <point x="47.025" y="114.3447"/>
      <point x="47.025" y="15.0" type="curve"/>
      <point x="227.025" y="15.0" type="line"/>
    </contour>
    <contour>
      <point x="47.025" y="-5.0" type="line"/>
      <point x="227.025" y="-5.0" type="line"/>
      <point x="227.025" y="15.0" type="line"/>
      <point x="47.025" y="15.0" type="line"/>
    </contour>
    <contour>
      <point x="459.525" y="-122.5" type="curve" smooth="yes"/>
      <point x="459.525" y="-70.06807"/>
      <point x="416.95693" y="-27.5"/>
      <point x="364.525" y="-27.5" type="curve" smooth="yes"/>
      <point x="312.09306999999995" y="-27.5"/>
      <point x="269.525" y="-70.06807"/>
      <point x="269.525" y="-122.5" type="curve" smooth="yes"/>
      <point x="269.525" y="-174.93193"/>
      <point x="312.09306999999995" y="-217.5"/>
      <point x="364.525" y="-217.5" type="curve" smooth="yes"/>
      <point x="416.95693" y="-217.5"/>
      <point x="459.525" y="-174.93193"/>
    </contour>
    <contour>
      <point x="274.525" y="20.0" type="line"/>
      <point x="373.86969999999997" y="20.0"/>
      <point x="454.525" y="100.6553"/>
      <point x="454.525" y="200.0" type="curve"/>
      <point x="274.525" y="200.0" type="line"/>
    </contour>
    <contour>
      <point x="274.525" y="200" type="line"/>
      <point x="454.525" y="200" type="line"/>
      <point x="454.525" y="391.66667" type="line"/>
      <point x="274.525" y="391.66667" type="line"/>
    </contour>
    <contour>
      <point x="459.525" y="516.25" type="curve" smooth="yes"/>
      <point x="459.525" y="568.68193"/>
      <point x="416.95693" y="611.25"/>
      <point x="364.525" y="611.25" type="curve" smooth="yes"/>
      <point x="312.09306999999995" y="611.25"/>
      <point x="269.525" y="568.68193"/>
      <point x="269.525" y="516.25" type="curve" smooth="yes"/>
      <point x="269.525" y="463.81807"/>
      <point x="312.09306999999995" y="421.25"/>
      <point x="364.525" y="421.25" type="curve" smooth="yes"/>
      <point x="416.95693" y="421.25"/>
      <point x="459.525" y="463.81807"/>
    </contour>
  </outline>
</glyph>
<glyph name="A_with_grave" format="2">
  <advance width="501.55"/>
  <unicode hex="00C0"/>
  <outline>
    <contour>
      <point x="47.025" y="0" type="line"/>
      <point x="227.025" y="0" type="line"/>
      <point x="227.025" y="200" type="line"/>
      <point x="47.025" y="200" type="line"/>
    </contour>
    <contour>
      <point x="47.025" y="200" type="line"/>
      <point x="227.025" y="200" type="line"/>
      <point x="227.025" y="400" type="line"/>
      <point x="47.025" y="400" type="line"/>
    </contour>
    <contour>
      <point x="47.025" y="400" type="line"/>
      <point x="227.025" y="400" type="line"/>
      <point x="227.025" y="605.0" type="line"/>
      <point x="47.025" y="605.0" type="line"/>
    </contour>
    <contour>
      <point x="227.025" y="805.0" type="line"/>
      <point x="127.68029999999999" y="805.0"/>
      <point x="47.025" y="724.3447"/>
      <point x="47.025" y="625.0" type="curve"/>
      <point x="227.025" y="625.0" type="line"/>
    </contour>
    <contour>
      <point x="47.025" y="605.0" type="line"/>
      <point x="227.025" y="605.0" type="line"/>
      <point x="227.025" y="625.0" type="line"/>
      <point x="47.025" y="625.0" type="line"/>
    </contour>
    <contour>
      <point x="274.525" y="0" type="line"/>
      <point x="454.525" y="0" type="line"/>
      <point x="454.525" y="200" type="line"/>
      <point x="274.525" y="200" type="line"/>
    </contour>
    <contour>
      <point x="274.525" y="200" type="line"/>
      <point x="454.525" y="200" type="line"/>
      <point x="454.525" y="400" type="line"/>
      <point x="274.525" y="400" type="line"/>
    </contour>
    <contour>
      <point x="274.525" y="400" type="line"/>
      <point x="454.525" y="400" type="line"/>
      <point x="454.525" y="605.0" type="line"/>
      <point x="274.525" y="605.0" type="line"/>
    </contour>
    <contour>
      <point x="454.525" y="625.0" type="line"/>
      <point x="454.525" y="724.3447"/>
      <point x="373.86969999999997" y="805.0"/>
      <point x="274.525" y="805.0" type="curve"/>
      <point x="274.525" y="625.0" type="line"/>
    </contour>
    <contour>
      <point x="274.525" y="605.0" type="line"/>
      <point x="454.525" y="605.0" type="line"/>
      <point x="454.525" y="625.0" type="line"/>
      <point x="274.525" y="625.0" type="line"/>
    </contour>
    <contour>
      <point x="82.025" y="1016.1111111111111" type="line"/>
      <point x="82.025" y="916.7664111111111"/>
      <point x="162.68030000000002" y="836.1111111111111"/>
      <point x="262.025" y="836.1111111111111" type="curve"/>
      <point x="262.025" y="1016.1111111111111" type="line"/>
    </contour>
  </outline>
</glyph>
<glyph name="A_with_circumflex" format="2">
  <advance width="501.55"/>
  <unicode hex="00C2"/>
  <outline>
    <contour>
      <point x="47.025" y="0" type="line"/>
      <point x="227.025" y="0" type="line"/>
      <point x="227.025" y="200" type="line"/>
      <point x="47.025" y="200" type="line"/>
    </contour>
    <contour>
      <point x="47.025" y="200" type="line"/>
      <point x="227.025" y="200" type="line"/>
      <point x="227.025" y="400" type="line"/>
      <point x="47.025" y="400" type="line"/>
    </contour>
    <contour>
      <point x="47.025" y="400" type="line"/>
      <point x="227.025" y="400" type="line"/>
      <point x="227.025" y="605.0" type="line"/>
      <point x="47.025" y="605.0" type="line"/>
    </contour>
    <contour>
      <point x="227.025" y="805.0" type="line"/>
      <point x="127.68029999999999" y="805.0"/>
      <point x="47.025" y="724.3447"/>
      <point x="47.025" y="625.0" type="curve"/>
      <point x="227.025" y="625.0" type="line"/>
    </contour>
    <contour>
      <point x="47.025" y="605.0" type="line"/>
      <point x="227.025" y="605.0" type="line"/>
      <point x="227.025" y="625.0" type="line"/>
      <point x="47.025" y="625.0" type="line"/>
    </contour>
    <contour>
      <point x="274.525" y="0" type="line"/>
      <point x="454.525" y="0" type="line"/>
      <point x="454.525" y="200" type="line"/>
      <point x="274.525" y="200" type="line"/>
    </contour>
    <contour>
      <point x="274.525" y="200" type="line"/>
      <point x="454.525" y="200" type="line"/>
      <point x="454.525" y="400" type="line"/>
      <point x="274.525" y="400" type="line"/>
    </contour>
    <contour>
      <point x="274.525" y="400" type="line"/>
      <point x="454.525" y="400" type="line"/>
      <point x="454.525" y="605.0" type="line"/>
      <point x="274.525" y="605.0" type="line"/>
    </contour>
    <contour>
      <point x="454.525" y="625.0" type="line"/>
      <point x="454.525" y="724.3447"/>
      <point x="373.86969999999997" y="805.0"/>
      <point x="274.525" y="805.0" type="curve"/>
      <point x="274.525" y="625.0" type="line"/>
    </contour>
    <contour>
      <point x="274.525" y="605.0" type="line"/>
      <point x="454.525" y="605.0" type="line"/>
      <point x="454.525" y="625.0" type="line"/>
      <point x="274.525" y="625.0" type="line"/>
    </contour>
    <contour>
      <point x="65.15" y="836.1111111111111" type="line"/>
      <point x="164.49470000000002" y="836.1111111111111"/>
      <point x="245.15" y="916.7664111111111"/>
      <point x="245.15" y="1016.1111111111111" type="curve"/>
      <point x="65.15" y="1016.1111111111111" type="line"/>
    </contour>
    <contour>
      <point x="256.4" y="1016.1111111111111" type="line"/>
      <point x="256.4" y="916.7664111111111"/>
      <point x="337.0553" y="836.1111111111111"/>
      <point x="436.4" y="836.1111111111111" type="curve"/>
      <point x="436.4" y="1016.1111111111111" type="line"/>
    </contour>
  </outline>
</glyph>
<glyph name="A_with_ring" format="2">
  <advance width="501.55"/>
  <unicode hex="00C5"/>
  <outline>
    <contour>
      <point x="47.025" y="0" type="line"/>
      <point x="227.025" y="0" type="line"/>
      <point x="227.025" y="200" type="line"/>
      <point x="47.025" y="200" type="line"/>
    </contour>
    <contour>
      <point x="47.025" y="200" type="line"/>
      <point x="227.025" y="200" type="line"/>
      <point x="227.025" y="400" type="line"/>
      <point x="47.025" y="400" type="line"/>
    </contour>
    <contour>
      <point x="47.025" y="400" type="line"/>
      <point x="227.025" y="400" type="line"/>
      <point x="227.025" y="605.0" type="line"/>
      <point x="47.025" y="605.0" type="line"/>
    </contour>
    <contour>
      <point x="227.025" y="805.0" type="line"/>
      <point x="127.68029999999999" y="805.0"/>
      <point x="47.025" y="724.3447"/>
      <point x="47.025" y="625.0" type="curve"/>
      <point x="227.025" y="625.0" type="line"/>
    </contour>
    <contour>
      <point x="47.025" y="605.0" type="line"/>
      <point x="227.025" y="605.0" type="line"/>
      <point x="227.025" y="625.0" type="line"/>
      <point x="47.025" y="625.0" type="line"/>
    </contour>
    <contour>
      <point x="274.525" y="0" type="line"/>
      <point x="454.525" y="0" type="line"/>
      <point x="454.525" y="200" type="line"/>
      <point x="274.525" y="200" type="line"/>
    </contour>
    <contour>
      <point x="274.525" y="200" type="line"/>
      <point x="454.525" y="200" type="line"/>
      <point x="454.525" y="400" type="line"/>
      <point x="274.525" y="400" type="line"/>
    </contour>
    <contour>
      <point x="274.525" y="400" type="line"/>
      <point x="454.525" y="400" type="line"/>
      <point x="454.525" y="605.0" type="line"/>
      <point x="274.525" y="605.0" type="line"/>
    </contour>
    <contour>
      <point x="454.525" y="625.0" type="line"/>
      <point x="454.525" y="724.3447"/>
      <point x="373.86969999999997" y="805.0"/>
      <point x="274.525" y="805.0" type="curve"/>
      <point x="274.525" y="625.0" type="line"/>
    </contour>
    <contour>
      <point x="274.525" y="605.0" type="line"/>
      <point x="454.525" y="605.0" type="line"/>
      <point x="454.525" y="625.0" type="line"/>
      <point x="274.525" y="625.0" type="line"/>
    </contour>
    <contour>
      <point x="227.025" y="1021.1111111111111" type="line"/>
      <point x="174.59307" y="1021.1111111111111"/>
      <point x="132.025" y="978.543041111111"/>
      <point x="132.025" y="926.1111111111111" type="curve" smooth="yes"/>
      <point x="132.025" y="873.6791811111111"/>
      <point x="174.59307" y="831.1111111111111"/>
      <point x="227.025" y="831.1111111111111" type="curve"/>
    </contour>
    <contour>
      <point x="274.525" y="831.1111111111111" type="line"/>
      <point x="326.95693000000006" y="831.1111111111111"/>
      <point x="369.525" y="873.6791811111111"/>
      <point x="369.525" y="926.1111111111111" type="curve" smooth="yes"/>
      <point x="369.525" y="978.543041111111"/>
      <point x="326.95693000000006" y="1021.1111111111111"/>
      <point x="274.525" y="1021.1111111111111" type="curve"/>
    </contour>
  </outline>
</glyph>
<glyph name="C_with_cedilla" format="2">
  <advance width="501.55"/>
  <unicode hex="00C7"/>
  <outline>
    <contour>
      <point x="47.025" y="180.0" type="line"/>
      <point x="47.025" y="80.6553"/>
      <point x="127.68029999999999" y="0.0"/>
      <point x="227.025" y="0.0" type="curve"/>
      <point x="227.025" y="180.0" type="line"/>
    </contour>
    <contour>
      <point x="47.025" y="180.0" type="line"/>
      <point x="227.025" y="180.0" type="line"/>
      <point x="227.025" y="200.0" type="line"/>
      <point x="47.025" y="200.0" type="line"/>
    </contour>
    <contour>
      <point x="47.025" y="200" type="line"/>
      <point x="227.025" y="200" type="line"/>
      <point x="227.025" y="400" type="line"/>
      <point x="47.025" y="400" type="line"/>
    </contour>
    <contour>
      <point x="47.025" y="400" type="line"/>
      <point x="227.025" y="400" type="line"/>
      <point x="227.025" y="600" type="line"/>
      <point x="47.025" y="600" type="line"/>
    </contour>
    <contour>
      <point x="227.025" y="800.0" type="line"/>
      <point x="127.68029999999999" y="800.0"/>
      <point x="47.025" y="719.3447"/>
      <point x="47.025" y="620.0" type="curve"/>
      <point x="227.025" y="620.0" type="line"/>
    </contour>
    <contour>
      <point x="47.025" y="600" type="line"/>
      <point x="227.025" y="600" type="line"/>
      <point x="227.025" y="620.0" type="line"/>
      <point x="47.025" y="620.0" type="line"/>
    </contour>
    <contour>
      <point x="454.525" y="180.0" type="line"/>
      <point x="355.1803" y="180.0"/>
      <point x="274.525" y="99.3447"/>
      <point x="274.525" y="0.0" type="curve"/>
      <point x="454.525" y="0.0" type="line"/>
    </contour>
    <contour>
      <point x="274.525" y="600.0" type="line"/>
      <point x="274.525" y="500.6553"/>
      <point x="355.1803" y="420.0"/>
      <point x="454.525" y="420.0" type="curve"/>
      <point x="454.525" y="600.0" type="line"/>
    </contour>
    <contour>
      <point x="274.525" y="600" type="line"/>
      <point x="454.525" y="600" type="line"/>
      <point x="454.525" y="800" type="line"/>
      <point x="274.525" y="800" type="line"/>
    </contour>
    <contour>
      <point x="419.525" y="-205.0" type="line"/>
      <point x="419.525" y="-105.6553"/>
      <point x="338.86969999999997" y="-25.0"/>
      <point x="239.525" y="-25.0" type="curve"/>
      <point x="239.525" y="-205.0" type="line"/>
    </contour>
  </outline>
</glyph>
<glyph name="E_with_diaeresis" format="2">
  <advance width="501.55"/>
  <unicode hex="00CB"/>
  <outline>
    <contour>
      <point x="47.025" y="0" type="line"/>
      <point x="227.025" y="0" type="line"/>
      <point x="227.025" y="200" type="line"/>
      <point x="47.025" y="200" type="line"/>
    </contour>
    <contour>
      <point x="47.025" y="200" type="line"/>
      <point x="227.025" y="200" type="line"/>
      <point x="227.025" y="400" type="line"/>
      <point x="47.025" y="400" type="line"/>
    </contour>
    <contour>
      <point x="47.025" y="400" type="line"/>
      <point x="227.025" y="400" type="line"/>
      <point x="227.025" y="600" type="line"/>
      <point x="47.025" y="600" type="line"/>
    </contour>
    <contour>
      <point x="47.025" y="600" type="line"/>
      <point x="227.025" y="600" type="line"/>
      <point x="227.025" y="800" type="line"/>
      <point x="47.025" y="800" type="line"/>
    </contour>
    <contour>
      <point x="454.525" y="180.0" type="line"/>
      <point x="355.1803" y="180.0"/>
      <point x="274.525" y="99.3447"/>
      <point x="274.525" y="0.0" type="curve"/>
      <point x="454.525" y="0.0" type="line"/>
    </contour>
    <contour>
      <point x="274.525" y="490.0" type="line"/>
      <point x="274.525" y="390.6553"/>
      <point x="355.1803" y="310.0"/>
      <point x="454.525" y="310.0" type="curve"/>
      <point x="454.525" y="490.0" type="line"/>
    </contour>
    <contour>
      <point x="274.525" y="800.0" type="line"/>
      <point x="274.525" y="700.6553"/>
      <point x="355.1803" y="620.0"/>
      <point x="454.525" y="620.0" type="curve"/>
      <point x="454.525" y="800.0" type="line"/>
    </contour>
    <contour>
      <point x="232.025" y="926.1111111111111" type="curve" smooth="yes"/>
      <point x="232.025" y="978.543041111111"/>
      <point x="189.45693" y="1021.1111111111111"/>
      <point x="137.025" y="1021.1111111111111" type="curve" smooth="yes"/>
      <point x="84.59307000000001" y="1021.1111111111111"/>
      <point x="42.025000000000006" y="978.543041111111"/>
      <point x="42.025000000000006" y="926.1111111111111" type="curve" smooth="yes"/>
      <point x="42.025000000000006" y="873.6791811111111"/>
      <point x="84.59307000000001" y="831.1111111111111"/>
      <point x="137.025" y="831.1111111111111" type="curve" smooth="yes"/>
      <point x="189.45693" y="831.1111111111111"/>
      <point x="232.025" y="873.6791811111111"/>
    </contour>
    <contour>
      <point x="459.525" y="926.1111111111111" type="curve" smooth="yes"/>
      <point x="459.525" y="978.543041111111"/>
      <point x="416.95693000000006" y="1021.1111111111111"/>
      <point x="364.525" y="1021.1111111111111" type="curve" smooth="yes"/>
      <point x="312.09307" y="1021.1111111111111"/>
      <point x="269.525" y="978.543041111111"/>
      <point x="269.525" y="926.1111111111111" type="curve" smooth="yes"/>
      <point x="269.525" y="873.6791811111111"/>
      <point x="312.09307" y="831.1111111111111"/>
      <point x="364.525" y="831.1111111111111" type="curve" smooth="yes"/>
      <point x="416.95693000000006" y="831.1111111111111"/>
      <point x="459.525" y="873.6791811111111"/>
    </contour>
  </outline>
</glyph>
<glyph name="I_with_acute" format="2">
  <advance width="274.05"/>
  <unicode hex="00CD"/>
  <outline>
    <contour>
      <point x="47.025" y="0" type="line"/>
      <point x="227.025" y="0" type="line"/>
      <point x="227.025" y="200" type="line"/>
      <point x="47.025" y="200" type="line"/>
    </contour>
    <contour>
      <point x="47.025" y="200" type="line"/>
      <point x="227.025" y="200" type="line"/>
      <point x="227.025" y="400" type="line"/>
      <point x="47.025" y="400" type="line"/>
    </contour>
    <contour>
      <point x="47.025" y="400" type="line"/>
      <point x="227.025" y="400" type="line"/>
      <point x="227.025" y="600" type="line"/>
      <point x="47.025" y="600" type="line"/>
    </contour>
    <contour>
      <point x="47.025" y="600" type="line"/>
      <point x="227.025" y="600" type="line"/>
      <point x="227.025" y="800" type="line"/>
      <point x="47.025" y="800" type="line"/>
    </contour>
    <contour>
      <point x="125.775" y="836.1111111111111" type="line"/>
      <point x="225.1197" y="836.1111111111111"/>
      <point x="305.775" y="916.7664111111111"/>
      <point x="305.775" y="1016.1111111111111" type="curve"/>
      <point x="125.775" y="1016.1111111111111" type="line"/>
    </contour>
  </outline>
</glyph>
<glyph name="ETH" format="2">
  <advance width="729.05"/>
  <unicode hex="00D0"/>
  <outline>
    <contour>
      <point x="339.525" y="490.0" type="line"/>
      <point x="240.18030000000002" y="490.0"/>
      <point x="159.525" y="409.3447"/>
      <point x="159.525" y="310.0" type="curve"/>
      <point x="339.525" y="310.0" type="line"/>
    </contour>
    <contour>
      <point x="274.525" y="0" type="line"/>
      <point x="454.525" y="0" type="line"/>
      <point x="454.525" y="200" type="line"/>
      <point x="274.525" y="200" type="line"/>
    </contour>
    <contour>
      <point x="274.525" y="200" type="line"/>
      <point x="454.525" y="200" type="line"/>
      <point x="454.525" y="400" type="line"/>
      <point x="274.525" y="400" type="line"/>
    </contour>
    <contour>
      <point x="274.525" y="400" type="line"/>
      <point x="454.525" y="400" type="line"/>
      <point x="454.525" y="600" type="line"/>
      <point x="274.525" y="600" type="line"/>
    </contour>
    <contour>
      <point x="274.525" y="600" type="line"/>
      <point x="454.525" y="600" type="line"/>
      <point x="454.525" y="800" type="line"/>
      <point x="274.525" y="800" type="line"/>
    </contour>
    <contour>
      <point x="502.025" y="0.0" type="line"/>
      <point x="601.3697" y="0.0"/>
      <point x="682.025" y="80.6553"/>
      <point x="682.025" y="180.0" type="curve"/>
      <point x="502.025" y="180.0" type="line"/>
    </contour>
    <contour>
      <point x="502.025" y="180.0" type="line"/>
      <point x="682.025" y="180.0" type="line"/>
      <point x="682.025" y="200.0" type="line"/>
      <point x="502.025" y="200.0" type="line"/>
    </contour>
    <contour>
      <point x="502.025" y="200" type="line"/>
      <point x="682.025" y="200" type="line"/>
      <point x="682.025" y="400" type="line"/>
      <point x="502.025" y="400" type="line"/>
    </contour>
    <contour>
      <point x="502.025" y="400" type="line"/>
      <point x="682.025" y="400" type="line"/>
      <point x="682.025" y="600" type="line"/>
      <point x="502.025" y="600" type="line"/>
    </contour>
    <contour>
      <point x="682.025" y="620.0" type="line"/>
      <point x="682.025" y="719.3447"/>
      <point x="601.3697" y="800.0"/>
      <point x="502.025" y="800.0" type="curve"/>
      <point x="502.025" y="620.0" type="line"/>
    </contour>
    <contour>
      <point x="502.025" y="600" type="line"/>
      <point x="682.025" y="600" type="line"/>
      <point x="682.025" y="620.0" type="line"/>
      <point x="502.025" y="620.0" type="line"/>
    </contour>
  </outline>
</glyph>
<glyph name="O_with_grave" format="2">
  <advance width="501.55"/>
  <unicode hex="00D2"/>
  <outline>
    <contour>
      <point x="47.025" y="175.0" type="line"/>
      <point x="47.025" y="75.6553"/>
      <point x="127.68029999999999" y="-5.0"/>
      <point x="227.025" y="-5.0" type="curve"/>
      <point x="227.025" y="175.0" type="line"/>
    </contour>
    <contour>
      <point x="47.025" y="175.0" type="line"/>
      <point x="227.025" y="175.0" type="line"/>
      <point x="227.025" y="195.0" type="line"/>
      <point x="47.025" y="195.0" type="line"/>
    </contour>
    <contour>
      <point x="47.025" y="195.0" type="line"/>
      <point x="227.025" y="195.0" type="line"/>
      <point x="227.025" y="400.0" type="line"/>
      <point x="47.025" y="400.0" type="line"/>
    </contour>
    <contour>
      <point x="47.025" y="400" type="line"/>
      <point x="227.025" y="400" type="line"/>
      <point x="227.025" y="605.0" type="line"/>
      <point x="47.025" y="605.0" type="line"/>
    </contour>
    <contour>
      <point x="227.025" y="805.0" type="line"/>
      <point x="127.68029999999999" y="805.0"/>
      <point x="47.025" y="724.3447"/>
      <point x="47.025" y="625.0" type="curve"/>
      <point x="227.025" y="625.0" type="line"/>
    </contour>
    <contour>
      <point x="47.025" y="605.0" type="line"/>
      <point x="227.025" y="605.0" type="line"/>
      <point x="227.025" y="625.0" type="line"/>
      <point x="47.025" y="625.0" type="line"/>
    </contour>
    <contour>
      <point x="274.525" y="-5.0" type="line"/>
      <point x="373.86969999999997" y="-5.0"/>
      <point x="454.525" y="75.6553"/>
      <point x="454.525" y="175.0" type="curve"/>
      <point x="274.525" y="175.0" type="line"/>
    </contour>
    <contour>
      <point x="274.525" y="175.0" type="line"/>
      <point x="454.525" y="175.0" type="line"/>
      <point x="454.525" y="195.0" type="line"/>
      <point x="274.525" y="195.0" type="line"/>
    </contour>
    <contour>
      <point x="274.525" y="195.0" type="line"/>
      <point x="454.525" y="195.0" type="line"/>
      <point x="454.525" y="400.0" type="line"/>
      <point x="274.525" y="400.0" type="line"/>
    </contour>
    <contour>
      <point x="274.525" y="400" type="line"/>
      <point x="454.525" y="400" type="line"/>
      <point x="454.525" y="605.0" type="line"/>
      <point x="274.525" y="605.0" type="line"/>
    </contour>
    <contour>
      <point x="454.525" y="625.0" type="line"/>
      <point x="454.525" y="724.3447"/>
      <point x="373.86969999999997" y="805.0"/>
      <point x="274.525" y="805.0" type="curve"/>
      <point x="274.525" y="625.0" type="line"/>
    </contour>
    <contour>
      <point x="274.525" y="605.0" type="line"/>
      <point x="454.525" y="605.0" type="line"/>
      <point x="454.525" y="625.0" type="line"/>
      <point x="274.525" y="625.0" type="line"/>
    </contour>
    <contour>
      <point x="82.025" y="1016.1111111111111" type="line"/>
      <point x="82.025" y="916.7664111111111"/>
      <point x="162.68030000000002" y="836.1111111111111"/>
      <point x="262.025" y="836.1111111111111" type="curve"/>
      <point x="262.025" y="1016.1111111111111" type="line"/>
    </contour>
  </outline>
</glyph>
<glyph name="O_with_stroke" format="2">
  <advance width="501.55"/>
  <unicode hex="00D8"/>
  <outline>
    <contour>
      <point x="47.025" y="175.0" type="line"/>
      <point x="47.025" y="75.6553"/>
      <point x="127.68029999999999" y="-5.0"/>
      <point x="227.025" y="-5.0" type="curve"/>
      <point x="227.025" y="175.0" type="line"/>
    </contour>
    <contour>
      <point x="47.025" y="175.0" type="line"/>
      <point x="227.025" y="175.0" type="line"/>
      <point x="227.025" y="195.0" type="line"/>
      <point x="47.025" y="195.0" type="line"/>
    </contour>
    <contour>
      <point x="47.025" y="195.0" type="line"/>
      <point x="227.025" y="195.0" type="line"/>
      <point x="227.025" y="400.0" type="line"/>
      <point x="47.025" y="400.0" type="line"/>
    </contour>
    <contour>
      <point x="47.025" y="400" type="line"/>
      <point x="227.025" y="400" type="line"/>
      <point x="227.025" y="605.0" type="line"/>
      <point x="47.025" y="605.0" type="line"/>
    </contour>
    <contour>
      <point x="227.025" y="805.0" type="line"/>
      <point x="127.68029999999999" y="805.0"/>
      <point x="47.025" y="724.3447"/>
      <point x="47.025" y="625.0" type="curve"/>
      <point x="227.025" y="625.0" type="line"/>
    </contour>
    <contour>
      <point x="47.025" y="605.0" type="line"/>
      <point x="227.025" y="605.0" type="line"/>
      <point x="227.025" y="625.0" type="line"/>
      <point x="47.025" y="625.0" type="line"/>
    </contour>
    <contour>
      <point x="182.025" y="90.0" type="line"/>
      <point x="82.68029999999999" y="90.0"/>
      <point x="2.0249999999999986" y="9.3447"/>
      <point x="2.0249999999999986" y="-90.0" type="curve"/>
      <point x="182.025" y="-90.0" type="line"/>
    </contour>
    <contour>
      <point x="274.525" y="-5.0" type="line"/>
      <point x="373.86969999999997" y="-5.0"/>
      <point x="454.525" y="75.6553"/>
      <point x="454.525" y="175.0" type="curve"/>
      <point x="274.525" y="175.0" type="line"/>
    </contour>
    <contour>
      <point x="274.525" y="175.0" type="line"/>
      <point x="454.525" y="175.0" type="line"/>
      <point x="454.525" y="195.0" type="line"/>
      <point x="274.525" y="195.0" type="line"/>
    </contour>
    <contour>
      <point x="274.525" y="195.0" type="line"/>
      <point x="454.525" y="195.0" type="line"/>
      <point x="454.525" y="400.0" type="line"/>
      <point x="274.525" y="400.0" type="line"/>
    </contour>
    <contour>
      <point x="274.525" y="400" type="line"/>
      <point x="454.525" y="400" type="line"/>
      <point x="454.525" y="605.0" type="line"/>
      <point x="274.525" y="605.0" type="line"/>
    </contour>
    <contour>
      <point x="454.525" y="625.0" type="line"/>
      <point x="454.525" y="724.3447"/>
      <point x="373.86969999999997" y="805.0"/>
      <point x="274.525" y="805.0" type="curve"/>
      <point x="274.525" y="625.0" type="line"/>
    </contour>
    <contour>
      <point x="274.525" y="605.0" type="line"/>
      <point x="454.525" y="605.0" type="line"/>
      <point x="454.525" y="625.0" type="line"/>
      <point x="274.525" y="625.0" type="line"/>
    </contour>
    <contour>
      <point x="319.525" y="710.0" type="line"/>
      <point x="418.86969999999997" y="710.0"/>
      <point x="499.525" y="790.6553"/>
      <point x="499.525" y="890.0" type="curve"/>
      <point x="319.525" y="890.0" type="line"/>
    </contour>
  </outline>
</glyph>
<glyph name="THORN" format="2">
  <advance width="501.55"/>
  <unicode hex="00DE"/>
  <outline>
    <contour>
      <point x="47.025" y="0" type="line"/>
      <point x="227.025" y="0" type="line"/>
      <point x="227.025" y="200" type="line"/>
      <point x="47.025" y="200" type="line"/>
    </contour>
    <contour>
      <point x="47.025" y="200" type="line"/>
      <point x="227.025" y="200" type="line"/>
      <point x="227.025" y="400" type="line"/>
      <point x="47.025" y="400" type="line"/>
    </contour>
    <contour>
      <point x="47.025" y="400" type="line"/>
      <point x="227.025" y="400" type="line"/>
      <point x="227.025" y="600" type="line"/>
      <point x="47.025" y="600" type="line"/>
    </contour>
    <contour>
      <point x="47.025" y="600" type="line"/>
      <point x="227.025" y="600" type="line"/>
      <point x="227.025" y="800" type="line"/>
      <point x="47.025" y="800" type="line"/>
    </contour>
    <contour>
      <point x="274.525" y="100.0" type="line"/>
      <point x="373.86969999999997" y="100.0"/>
      <point x="454.525" y="180.6553"/>
      <point x="454.525" y="280.0" type="curve"/>
      <point x="274.525" y="280.0" type="line"/>
    </contour>
    <contour>
      <point x="274.525" y="280.0" type="line"/>
      <point x="454.525" y="280.0" type="line"/>
      <point x="454.525" y="300.0" type="line"/>
      <point x="274.525" y="300.0" type="line"/>
    </contour>
    <contour>
      <point x="274.525" y="300.0" type="line"/>
      <point x="454.525" y="300.0" type="line"/>
      <point x="454.525" y="500.0" type="line"/>
      <point x="274.525" y="500.0" type="line"/>
    </contour>
    <contour>
      <point x="454.525" y="520.0" type="line"/>
      <point x="454.525" y="619.3447"/>
      <point x="373.86969999999997" y="700.0"/>
      <point x="274.525" y="700.0" type="curve"/>
      <point x="274.525" y="520.0" type="line"/>
    </contour>
    <contour>
      <point x="274.525" y="500.0" type="line"/>
      <point x="454.525" y="500.0" type="line"/>
      <point x="454.525" y="520.0" type="line"/>
      <point x="274.525" y="520.0" type="line"/>
    </contour>
  </outline>
</glyph>
<glyph name="a_with_acute" format="2">
  <advance width="501.55"/>
  <unicode hex="00E1"/>
  <outline>
    <contour>
      <point x="47.025" y="180.0" type="line"/>
      <point x="47.025" y="80.6553"/>
      <point x="127.68029999999999" y="0.0"/>
      <point x="227.025" y="0.0" type="curve"/>
      <point x="227.025" y="180.0" type="line"/>
    </contour>
    <contour>
      <point x="47.025" y="180.0" type="line"/>
      <point x="227.025" y="180.0" type="line"/>
      <point x="227.025" y="200.0" type="line"/>
      <point x="47.025" y="200.0" type="line"/>
    </contour>
    <contour>
      <point x="227.025" y="400.0" type="line"/>
      <point x="127.68029999999999" y="400.0"/>
      <point x="47.025" y="319.3447"/>
      <point x="47.025" y="220.0" type="curve"/>
      <point x="227.025" y="220.0" type="line"/>
    </contour>
    <contour>
      <point x="47.025" y="200" type="line"/>
      <point x="227.025" y="200" type="line"/>
      <point x="227.025" y="220.0" type="line"/>
      <point x="47.025" y="220.0" type="line"/>
    </contour>
    <contour>
      <point x="234.8375" y="510.0" type="curve" smooth="yes"/>
      <point x="234.8375" y="562.43193"/>
      <point x="192.26943" y="605.0"/>
      <point x="139.8375" y="605.0" type="curve" smooth="yes"/>
      <point x="87.40557" y="605.0"/>
      <point x="44.8375" y="562.43193"/>
      <point x="44.8375" y="510.0" type="curve" smooth="yes"/>
      <point x="44.8375" y="457.56807"/>
      <point x="87.40557" y="415.0"/>
      <point x="139.8375" y="415.0" type="curve" smooth="yes"/>
      <point x="192.26943" y="415.0"/>
      <point x="234.8375" y="457.56807"/>
    </contour>
    <contour>
      <point x="274.525" y="175.0" type="line"/>
      <point x="274.525" y="75.6553"/>
      <point x="355.1803" y="-5.0"/>
      <point x="454.525" y="-5.0" type="curve"/>
      <point x="454.525" y="175.0" type="line"/>
    </contour>
    <contour>
      <point x="274.525" y="175.0" type="line"/>
      <point x="454.525" y="175.0" type="line"/>
      <point x="454.525" y="200.0" type="line"/>
      <point x="274.525" y="200.0" type="line"/>
    </contour>
    <contour>
      <point x="274.525" y="200" type="line"/>
      <point x="454.525" y="200" type="line"/>
      <point x="454.525" y="400" type="line"/>
      <point x="274.525" y="400" type="line"/>
    </contour>
    <contour>
      <point x="454.525" y="422.5" type="line"/>
      <point x="454.525" y="521.8447"/>
      <point x="373.86969999999997" y="602.5"/>
      <point x="274.525" y="602.5" type="curve"/>
      <point x="274.525" y="422.5" type="line"/>
    </contour>
    <contour>
      <point x="274.525" y="400" type="line"/>
      <point x="454.525" y="400" type="line"/>
      <point x="454.525" y="422.5" type="line"/>
      <point x="274.525" y="422.5" type="line"/>
    </contour>
    <contour>
      <point x="238.43125" y="636.1111111111111" type="line"/>
      <point x="337.77594999999997" y="636.1111111111111"/>
      <point x="418.43125" y="716.7664111111111"/>
      <point x="418.43125" y="816.1111111111111" type="curve"/>
      <point x="238.43125" y="816.1111111111111" type="line"/>
    </contour>
  </outline>
</glyph>
<glyph name="a_with_diaeresis" format="2">
  <advance width="501.55"/>
  <unicode hex="00E4"/>
  <outline>
    <contour>
      <point x="47.025" y="180.0" type="line"/>
      <point x="47.025" y="80.6553"/>
      <point x="127.68029999999999" y="0.0"/>
      <point x="227.025" y="0.0" type="curve"/>
      <point x="227.025" y="180.0" type="line"/>
    </contour>
    <contour>
      <point x="47.025" y="180.0" type="line"/>
      <point x="227.025" y="180.0" type="line"/>
      <point x="227.025" y="200.0" type="line"/>
      <point x="47.025" y="200.0" type="line"/>
    </contour>
    <contour>
      <point x="227.025" y="400.0" type="line"/>
      <point x="127.68029999999999" y="400.0"/>
      <point x="47.025" y="319.3447"/>
      <point x="47.025" y="220.0" type="curve"/>
      <point x="227.025" y="220.0" type="line"/>
    </contour>
    <contour>
      <point x="47.025" y="200" type="line"/>
      <point x="227.025" y="200" type="line"/>
      <point x="227.025" y="220.0" type="line"/>
      <point x="47.025" y="220.0" type="line"/>
    </contour>
    <contour>
      <point x="234.8375" y="510.0" type="curve" smooth="yes"/>
      <point x="234.8375" y="562.43193"/>
      <point x="192.26943" y="605.0"/>
      <point x="139.8375" y="605.0" type="curve" smooth="yes"/>
      <point x="87.40557" y="605.0"/>
      <point x="44.8375" y="562.43193"/>
      <point x="44.8375" y="510.0" type="curve" smooth="yes"/>
      <point x="44.8375" y="457.56807"/>
      <point x="87.40557" y="415.0"/>
      <point x="139.8375" y="415.0" type="curve" smooth="yes"/>
      <point x="192.26943" y="415.0"/>
      <point x="234.8375" y="457.56807"/>
    </contour>
    <contour>
      <point x="274.525" y="175.0" type="line"/>
      <point x="274.525" y="75.6553"/>
      <point x="355.1803" y="-5.0"/>
      <point x="454.525" y="-5.0" type="curve"/>
      <point x="454.525" y="175.0" type="line"/>
    </contour>
    <contour>
      <point x="274.525" y="175.0" type="line"/>
      <point x="454.525" y="175.0" type="line"/>
      <point x="454.525" y="200.0" type="line"/>
      <point x="274.525" y="200.0" type="line"/>
    </contour>
    <contour>
      <point x="274.525" y="200" type="line"/>
      <point x="454.525" y="200" type="line"/>
      <point x="454.525" y="400" type="line"/>
      <point x="274.525" y="400" type="line"/>
    </contour>
    <contour>
      <point x="454.525" y="422.5" type="line"/>
      <point x="454.525" y="521.8447"/>
      <point x="373.86969999999997" y="602.5"/>
      <point x="274.525" y="602.5" type="curve"/>
      <point x="274.525" y="422.5" type="line"/>
    </contour>
    <contour>
      <point x="274.525" y="400" type="line"/>
      <point x="454.525" y="400" type="line"/>
      <point x="454.525" y="422.5" type="line"/>
      <point x="274.525" y="422.5" type="line"/>
    </contour>
    <contour>
      <point x="230.93125" y="726.1111111111111" type="curve" smooth="yes"/>
      <point x="230.93125" y="778.543041111111"/>
      <point x="188.36318" y="821.1111111111111"/>
      <point x="135.93125" y="821.1111111111111" type="curve" smooth="yes"/>
      <point x="83.49932000000001" y="821.1111111111111"/>
      <point x="40.931250000000006" y="778.543041111111"/>
      <point x="40.931250000000006" y="726.1111111111111" type="curve" smooth="yes"/>
      <point x="40.931250000000006" y="673.6791811111111"/>
      <point x="83.49932000000001" y="631.1111111111111"/>
      <point x="135.93125" y="631.1111111111111" type="curve" smooth="yes"/>
      <point x="188.36318" y="631.1111111111111"/>
      <point x="230.93125" y="673.6791811111111"/>
    </contour>
    <contour>
      <point x="458.43125" y="726.1111111111111" type="curve" smooth="yes"/>
      <point x="458.43125" y="778.543041111111"/>
      <point x="415.86318000000006" y="821.1111111111111"/>
      <point x="363.43125" y="821.1111111111111" type="curve" smooth="yes"/>
      <point x="310.99932" y="821.1111111111111"/>
      <point x="268.43125" y="778.543041111111"/>
      <point x="268.43125" y="726.1111111111111" type="curve" smooth="yes"/>
      <point x="268.43125" y="673.6791811111111"/>
      <point x="310.99932" y="631.1111111111111"/>
      <point x="363.43125" y="631.1111111111111" type="curve" smooth="yes"/>
      <point x="415.86318000000006" y="631.1111111111111"/>
      <point x="458.43125" y="673.6791811111111"/>
    </contour>
  </outline>
</glyph>
<glyph name="e_with_grave" format="2">
  <advance width="501.55"/>
  <unicode hex="00E8"/>
  <outline>
    <contour>
      <point x="47.025" y="175.0" type="line"/>
      <point x="47.025" y="75.6553"/>
      <point x="127.68029999999999" y="-5.0"/>
      <point x="227.025" y="-5.0" type="curve"/>
      <point x="227.025" y="175.0" type="line"/>
    </contour>
    <contour>
      <point x="47.025" y="175.0" type="line"/>
      <point x="227.025" y="175.0" type="line"/>
      <point x="227.025" y="195.0" type="line"/>
      <point x="47.025" y="195.0" type="line"/>
    </contour>
    <contour>
      <point x="47.025" y="195.0" type="line"/>
      <point x="227.025" y="195.0" type="line"/>
      <point x="227.025" y="405.0" type="line"/>
      <point x="47.025" y="405.0" type="line"/>
    </contour>
    <contour>
      <point x="227.025" y="605.0" type="line"/>
      <point x="127.68029999999999" y="605.0"/>
      <point x="47.025" y="524.3447"/>
      <point x="47.025" y="425.0" type="curve"/>
      <point x="227.025" y="425.0" type="line"/>
    </contour>
    <contour>
      <point x="47.025" y="405.0" type="line"/>
      <point x="227.025" y="405.0" type="line"/>
      <point x="227.025" y="425.0" type="line"/>
      <point x="47.025" y="425.0" type="line"/>
    </contour>
    <contour>
      <point x="274.525" y="195.0" type="line"/>
      <point x="454.525" y="195.0" type="line"/>
      <point x="454.525" y="405.0" type="line"/>
      <point x="274.525" y="405.0" type="line"/>
    </contour>
    <contour>
      <point x="454.525" y="425.0" type="line"/>
      <point x="454.525" y="524.3447"/>
      <point x="373.86969999999997" y="605.0"/>
      <point x="274.525" y="605.0" type="curve"/>
      <point x="274.525" y="425.0" type="line"/>
    </contour>
    <contour>
      <point x="274.525" y="405.0" type="line"/>
      <point x="454.525" y="405.0" type="line"/>
      <point x="454.525" y="425.0" type="line"/>
      <point x="274.525" y="425.0" type="line"/>
    </contour>
    <contour>
      <point x="82.025" y="816.1111111111111" type="line"/>
      <point x="82.025" y="716.7664111111111"/>
      <point x="162.68030000000002" y="636.1111111111111"/>
      <point x="262.025" y="636.1111111111111" type="curve"/>
      <point x="262.025" y="816.1111111111111" type="line"/>
    </contour>
  </outline>
</glyph>
